<svg width="106" height="47" viewBox="0 0 106 47" fill="none" xmlns="http://www.w3.org/2000/svg">
<path d="M0 6C0 2.68629 2.68629 0 6 0H82.5C95.4787 0 106 10.5213 106 23.5C106 36.4787 95.4787 47 82.5 47H6C2.68629 47 0 44.3137 0 41V6Z" fill="#171717"/>
<path d="M42.0231 21.848V26.286L43.1151 26.601V27H39.7831V26.601L40.8821 26.286V22.058C40.8075 21.988 40.6815 21.9063 40.5041 21.813C40.3315 21.715 40.0865 21.5983 39.7691 21.463V21.253L41.5681 20.483H41.7501L42.0231 21.848ZM44.1581 26.601L45.2501 26.286V22.87C45.2501 22.59 45.1965 22.3567 45.0891 22.17C44.9818 21.9787 44.8161 21.834 44.5921 21.736C44.3728 21.638 44.0928 21.589 43.7521 21.589C43.3975 21.589 43.0545 21.645 42.7231 21.757C42.3965 21.869 42.1445 22.0067 41.9671 22.17L41.7501 21.932C42.0581 21.6427 42.3311 21.4047 42.5691 21.218C42.8118 21.0313 43.0335 20.8867 43.2341 20.784C43.4395 20.6767 43.6425 20.602 43.8431 20.56C44.0485 20.518 44.2701 20.497 44.5081 20.497C45.1521 20.497 45.6258 20.6813 45.9291 21.05C46.2371 21.4187 46.3911 21.9903 46.3911 22.765V26.286L47.5041 26.601V27H44.1581V26.601ZM51.2933 20.497C51.8486 20.497 52.3106 20.6137 52.6793 20.847C53.0526 21.0803 53.3396 21.4233 53.5403 21.876C53.741 22.324 53.8576 22.8747 53.8903 23.528H49.2353V22.898L53.0993 22.786L52.6443 23.031C52.621 22.6343 52.551 22.3007 52.4343 22.03C52.3223 21.7547 52.166 21.547 51.9653 21.407C51.7646 21.2623 51.5126 21.19 51.2093 21.19C50.85 21.19 50.5373 21.2787 50.2713 21.456C50.0053 21.6333 49.8 21.897 49.6553 22.247C49.5106 22.597 49.4383 23.0333 49.4383 23.556C49.4383 24.1207 49.5386 24.599 49.7393 24.991C49.9446 25.3783 50.2363 25.6723 50.6143 25.873C50.9923 26.0737 51.4496 26.174 51.9863 26.174C52.2056 26.174 52.418 26.1507 52.6233 26.104C52.8286 26.0527 53.027 25.9827 53.2183 25.894C53.4143 25.8053 53.601 25.7003 53.7783 25.579L53.8973 25.957C53.636 26.2137 53.3676 26.4307 53.0923 26.608C52.817 26.7853 52.5323 26.9183 52.2383 27.007C51.949 27.0957 51.6526 27.14 51.3493 27.14C50.7473 27.14 50.2153 27.007 49.7533 26.741C49.296 26.4703 48.9366 26.0923 48.6753 25.607C48.414 25.1217 48.2833 24.5547 48.2833 23.906C48.2833 23.2527 48.4046 22.6693 48.6473 22.156C48.8946 21.6427 49.2423 21.239 49.6903 20.945C50.143 20.6463 50.6773 20.497 51.2933 20.497ZM60.6558 26.251L61.5378 26.587V27H58.4648V26.587L59.3398 26.3L57.7088 24.214L57.5338 24.018L55.4408 21.386L54.5588 21.05V20.637H57.6318V21.05L56.7568 21.337L58.2338 23.241L58.4018 23.423L60.6558 26.251ZM57.9608 24.123L56.0778 26.335L56.9388 26.587V27H54.4818V26.587L55.2378 26.328L57.5688 23.682L57.9328 23.381L59.7108 21.295L58.8638 21.05V20.637H61.3068V21.05L60.5438 21.302L58.3178 23.822L57.9608 24.123ZM64.0423 25.152C64.0423 25.502 64.1426 25.7563 64.3433 25.915C64.5439 26.0737 64.8403 26.153 65.2323 26.153C65.4096 26.153 65.6009 26.1367 65.8063 26.104C66.0163 26.0667 66.2426 26.013 66.4853 25.943V26.363C66.1819 26.559 65.9159 26.713 65.6873 26.825C65.4586 26.937 65.2533 27.014 65.0713 27.056C64.8893 27.098 64.7143 27.119 64.5463 27.119C64.2243 27.119 63.9396 27.063 63.6923 26.951C63.4449 26.8343 63.2489 26.6617 63.1043 26.433C62.9643 26.1997 62.8943 25.9127 62.8943 25.572V21.631L61.9423 21.155V20.917C62.1056 20.8377 62.2549 20.7607 62.3903 20.686C62.5256 20.6067 62.6493 20.5273 62.7613 20.448C62.8779 20.364 62.9876 20.2777 63.0903 20.189C63.1929 20.0957 63.2956 19.9977 63.3983 19.895C63.5009 19.7923 63.6036 19.6803 63.7063 19.559H64.0423V20.854V25.152ZM63.5943 21.428L63.6083 20.637H66.3033L66.2263 21.428H63.5943Z" fill="white"/>
</svg>
