<svg width="106" height="47" viewBox="0 0 106 47" fill="none" xmlns="http://www.w3.org/2000/svg">
<path d="M0 23.5C0 10.5213 10.5213 0 23.5 0H100C103.314 0 106 2.68629 106 6V41C106 44.3137 103.314 47 100 47H23.5C10.5213 47 0 36.4787 0 23.5V23.5Z" fill="#D9D9D9"/>
<path d="M28.5006 21.1094C28.431 20.8674 28.3332 20.6536 28.2073 20.468C28.0814 20.2791 27.9272 20.12 27.7449 19.9908C27.566 19.8582 27.3605 19.7571 27.1285 19.6875C26.8998 19.6179 26.6462 19.5831 26.3678 19.5831C25.8474 19.5831 25.3901 19.7124 24.9956 19.9709C24.6046 20.2294 24.2996 20.6056 24.0809 21.0994C23.8621 21.59 23.7528 22.1899 23.7528 22.8991C23.7528 23.6084 23.8605 24.2116 24.0759 24.7088C24.2913 25.206 24.5963 25.5855 24.9907 25.8473C25.3851 26.1058 25.8508 26.2351 26.3877 26.2351C26.8749 26.2351 27.2909 26.1489 27.6356 25.9766C27.9836 25.8009 28.2487 25.554 28.431 25.2358C28.6166 24.9176 28.7094 24.5414 28.7094 24.1072L29.1469 24.1719H26.5219V22.5511H30.7826V23.8338C30.7826 24.7287 30.5937 25.4976 30.2158 26.1406C29.838 26.7803 29.3176 27.2741 28.6547 27.6222C27.9919 27.9669 27.2329 28.1392 26.3778 28.1392C25.4232 28.1392 24.5847 27.9287 23.8621 27.5078C23.1396 27.0836 22.5761 26.482 22.1718 25.7031C21.7707 24.9209 21.5702 23.9929 21.5702 22.919C21.5702 22.0937 21.6895 21.358 21.9282 20.7116C22.1701 20.062 22.5082 19.5118 22.9424 19.0611C23.3766 18.6103 23.882 18.2673 24.4587 18.032C25.0354 17.7966 25.6602 17.679 26.333 17.679C26.9097 17.679 27.4466 17.7635 27.9438 17.9325C28.441 18.0982 28.8818 18.3336 29.2662 18.6385C29.654 18.9434 29.9706 19.3063 30.2158 19.7273C30.4611 20.1449 30.6185 20.6056 30.6881 21.1094H28.5006ZM41.7561 22.9091C41.7561 24.0194 41.5457 24.964 41.1247 25.7429C40.7071 26.5218 40.137 27.1167 39.4145 27.5277C38.6953 27.9354 37.8866 28.1392 36.9884 28.1392C36.0835 28.1392 35.2715 27.9337 34.5523 27.5227C33.8331 27.1117 33.2646 26.5168 32.847 25.7379C32.4294 24.959 32.2206 24.0161 32.2206 22.9091C32.2206 21.7988 32.4294 20.8542 32.847 20.0753C33.2646 19.2964 33.8331 18.7031 34.5523 18.2955C35.2715 17.8845 36.0835 17.679 36.9884 17.679C37.8866 17.679 38.6953 17.8845 39.4145 18.2955C40.137 18.7031 40.7071 19.2964 41.1247 20.0753C41.5457 20.8542 41.7561 21.7988 41.7561 22.9091ZM39.5736 22.9091C39.5736 22.1899 39.4659 21.5833 39.2504 21.0895C39.0383 20.5956 38.7384 20.2211 38.3506 19.9659C37.9628 19.7107 37.5087 19.5831 36.9884 19.5831C36.468 19.5831 36.0139 19.7107 35.6262 19.9659C35.2384 20.2211 34.9368 20.5956 34.7213 21.0895C34.5092 21.5833 34.4031 22.1899 34.4031 22.9091C34.4031 23.6283 34.5092 24.2348 34.7213 24.7287C34.9368 25.2225 35.2384 25.5971 35.6262 25.8523C36.0139 26.1075 36.468 26.2351 36.9884 26.2351C37.5087 26.2351 37.9628 26.1075 38.3506 25.8523C38.7384 25.5971 39.0383 25.2225 39.2504 24.7287C39.4659 24.2348 39.5736 23.6283 39.5736 22.9091ZM46.591 28V17.8182H50.6677C51.4168 17.8182 52.0415 17.9292 52.542 18.1513C53.0425 18.3733 53.4186 18.6816 53.6705 19.076C53.9224 19.4671 54.0484 19.9179 54.0484 20.4283C54.0484 20.826 53.9688 21.1757 53.8097 21.4773C53.6507 21.7756 53.4319 22.0208 53.1535 22.2131C52.8784 22.402 52.5635 22.5362 52.2089 22.6158V22.7152C52.5967 22.7318 52.9596 22.8411 53.2977 23.0433C53.6391 23.2455 53.9158 23.5289 54.1279 23.8935C54.3401 24.2547 54.4461 24.6856 54.4461 25.1861C54.4461 25.7263 54.3119 26.2086 54.0434 26.6328C53.7783 27.0537 53.3855 27.3868 52.8651 27.6321C52.3448 27.8774 51.7035 28 50.9411 28H46.591ZM48.7437 26.2401H50.4987C51.0986 26.2401 51.5361 26.1257 51.8112 25.897C52.0863 25.665 52.2238 25.3568 52.2238 24.9723C52.2238 24.6906 52.1559 24.442 52.02 24.2266C51.8841 24.0111 51.6902 23.8421 51.4383 23.7195C51.1897 23.5968 50.8931 23.5355 50.5484 23.5355H48.7437V26.2401ZM48.7437 22.0788H50.3396C50.6346 22.0788 50.8964 22.0275 51.1251 21.9247C51.3571 21.8187 51.5394 21.6695 51.672 21.4773C51.8079 21.285 51.8758 21.0547 51.8758 20.7862C51.8758 20.4183 51.7449 20.1217 51.483 19.8963C51.2245 19.6709 50.8566 19.5582 50.3794 19.5582H48.7437V22.0788ZM57.6018 28H55.295L58.8099 17.8182H61.5841L65.094 28H62.7872L60.2368 20.1449H60.1572L57.6018 28ZM57.4577 23.9979H62.9065V25.6783H57.4577V23.9979ZM74.8247 21.3828H72.6471C72.6073 21.1011 72.5261 20.8509 72.4035 20.6321C72.2809 20.41 72.1234 20.2211 71.9312 20.0653C71.739 19.9096 71.5169 19.7902 71.265 19.7074C71.0164 19.6245 70.7463 19.5831 70.4546 19.5831C69.9276 19.5831 69.4686 19.714 69.0775 19.9759C68.6864 20.2344 68.3831 20.6122 68.1677 21.1094C67.9523 21.6032 67.8445 22.2031 67.8445 22.9091C67.8445 23.6349 67.9523 24.2448 68.1677 24.7386C68.3865 25.2325 68.6914 25.6054 69.0825 25.8572C69.4736 26.1091 69.926 26.2351 70.4397 26.2351C70.7281 26.2351 70.9949 26.197 71.2401 26.1207C71.4887 26.0445 71.7091 25.9335 71.9014 25.7876C72.0936 25.6385 72.2527 25.4579 72.3786 25.2457C72.5079 25.0336 72.5974 24.7917 72.6471 24.5199L74.8247 24.5298C74.7683 24.9972 74.6275 25.4479 74.4021 25.8821C74.18 26.313 73.8801 26.6991 73.5022 27.0405C73.1277 27.3786 72.6802 27.647 72.1599 27.8459C71.6428 28.0414 71.0579 28.1392 70.4049 28.1392C69.4968 28.1392 68.6847 27.9337 67.9688 27.5227C67.2562 27.1117 66.6928 26.5168 66.2785 25.7379C65.8675 24.959 65.662 24.0161 65.662 22.9091C65.662 21.7988 65.8708 20.8542 66.2884 20.0753C66.7061 19.2964 67.2728 18.7031 67.9887 18.2955C68.7046 17.8845 69.51 17.679 70.4049 17.679C70.9949 17.679 71.5418 17.7618 72.0455 17.9276C72.5526 18.0933 73.0017 18.3352 73.3928 18.6534C73.7839 18.9683 74.1021 19.3544 74.3474 19.8118C74.596 20.2692 74.7551 20.7929 74.8247 21.3828ZM76.3683 28V17.8182H78.521V22.3075H78.6553L82.3193 17.8182H84.8996L81.1212 22.3771L84.9443 28H82.3691L79.58 23.8139L78.521 25.1065V28H76.3683Z" fill="#171717"/>
</svg>
