<svg width="106" height="29" viewBox="0 0 106 29" fill="none" xmlns="http://www.w3.org/2000/svg">
<rect width="106" height="29" rx="6" fill="#171717"/>
<path d="M39.8516 19.0938C39.2786 19.0938 38.7526 18.9427 38.2734 18.6406C37.7943 18.3385 37.4089 17.9375 37.1172 17.4375C36.8359 16.9271 36.6953 16.3594 36.6953 15.7344C36.6953 15.0052 36.8307 14.375 37.1016 13.8438C37.3724 13.3125 37.7422 12.9062 38.2109 12.625C38.6797 12.3333 39.2057 12.1875 39.7891 12.1875C40.2682 12.1875 40.6901 12.2812 41.0547 12.4688C41.4193 12.6458 41.7005 12.875 41.8984 13.1562C42.0859 13.4479 42.2214 13.7448 42.3047 14.0469C42.3984 14.3385 42.4453 14.6302 42.4453 14.9219C42.4453 15.1302 42.4141 15.2604 42.3516 15.3125C42.2891 15.3542 42.1693 15.375 41.9922 15.375H38.0547C37.9714 15.375 37.9297 15.401 37.9297 15.4531C37.9297 15.8906 38.0182 16.3125 38.1953 16.7188C38.3724 17.1146 38.6328 17.4427 38.9766 17.7031C39.3203 17.9635 39.7422 18.0938 40.2422 18.0938C40.6797 18.0938 41.0443 18.0312 41.3359 17.9062C41.638 17.7708 41.8568 17.651 41.9922 17.5469L42.1016 17.4688C42.1641 17.4688 42.1953 17.5365 42.1953 17.6719C42.1953 17.7448 42.1641 17.8385 42.1016 17.9531C41.8932 18.2448 41.5859 18.5104 41.1797 18.75C40.7734 18.9792 40.3307 19.0938 39.8516 19.0938ZM38.0547 14.7188H41.1016C41.1536 14.7188 41.1797 14.6667 41.1797 14.5625C41.1797 14.3333 41.1172 14.0833 40.9922 13.8125C40.8776 13.5312 40.7005 13.2865 40.4609 13.0781C40.2214 12.8698 39.9193 12.7656 39.5547 12.7656C39.2214 12.7656 38.9349 12.8802 38.6953 13.1094C38.4557 13.3281 38.2734 13.5833 38.1484 13.875C38.0234 14.1562 37.9609 14.401 37.9609 14.6094C37.9609 14.6823 37.9922 14.7188 38.0547 14.7188ZM43.3516 19.0469C43.3099 19.0052 43.2891 18.9167 43.2891 18.7812C43.2891 18.6562 43.3099 18.5938 43.3516 18.5938C43.4349 18.5938 43.5495 18.5781 43.6953 18.5469C43.8411 18.5156 43.9766 18.474 44.1016 18.4219C44.2266 18.3698 44.2943 18.3229 44.3047 18.2812C44.3464 18.1354 44.3724 17.9688 44.3828 17.7812C44.4036 17.5938 44.4141 17.3958 44.4141 17.1875V14.2344C44.4141 13.8385 44.3411 13.5573 44.1953 13.3906C44.0911 13.2656 43.9661 13.1823 43.8203 13.1406C43.6849 13.099 43.5599 13.0781 43.4453 13.0781C43.3411 13.0677 43.2891 13.0521 43.2891 13.0312C43.2891 12.7812 43.3203 12.651 43.3828 12.6406C43.9349 12.5573 44.3828 12.4844 44.7266 12.4219C45.0703 12.349 45.2839 12.3021 45.3672 12.2812L45.6172 12.2188C45.6589 12.2083 45.6849 12.25 45.6953 12.3438C45.7057 12.4375 45.7057 12.5052 45.6953 12.5469C45.6745 12.6927 45.6589 12.8177 45.6484 12.9219C45.638 13.026 45.6328 13.1094 45.6328 13.1719C45.6328 13.2135 45.6432 13.2344 45.6641 13.2344C45.6745 13.2344 45.6901 13.224 45.7109 13.2031C45.9505 12.9531 46.2734 12.7188 46.6797 12.5C47.0964 12.2708 47.4922 12.1562 47.8672 12.1562C48.5964 12.1562 49.1068 12.4167 49.3984 12.9375C49.6901 13.4583 49.8359 14.3021 49.8359 15.4688V16.8906C49.8359 17.1927 49.8464 17.4583 49.8672 17.6875C49.888 17.9167 49.9193 18.1146 49.9609 18.2812C49.9818 18.3229 50.0547 18.3698 50.1797 18.4219C50.3047 18.474 50.4401 18.5156 50.5859 18.5469C50.7318 18.5781 50.8359 18.5938 50.8984 18.5938C50.9297 18.5938 50.9505 18.6562 50.9609 18.7812C50.9714 18.9062 50.9661 18.9948 50.9453 19.0469L49.2734 18.9688L47.6328 19.0469C47.5911 19.0052 47.5703 18.9167 47.5703 18.7812C47.5703 18.6562 47.5911 18.5938 47.6328 18.5938C47.7161 18.5938 47.8255 18.5781 47.9609 18.5469C48.0964 18.5156 48.2214 18.474 48.3359 18.4219C48.4505 18.3698 48.513 18.3229 48.5234 18.2812C48.5651 18.1354 48.5911 17.9688 48.6016 17.7812C48.6224 17.5938 48.6328 17.3958 48.6328 17.1875V15.625C48.6328 14.6562 48.5078 13.9948 48.2578 13.6406C48.0078 13.2865 47.6016 13.1094 47.0391 13.1094C46.8203 13.1094 46.6016 13.1719 46.3828 13.2969C46.1641 13.4115 45.9818 13.5469 45.8359 13.7031C45.6901 13.8594 45.6172 14.0052 45.6172 14.1406V16.8906C45.6172 17.1927 45.6276 17.4583 45.6484 17.6875C45.6693 17.9167 45.7005 18.1146 45.7422 18.2812C45.763 18.3229 45.8359 18.3698 45.9609 18.4219C46.0859 18.474 46.2214 18.5156 46.3672 18.5469C46.513 18.5781 46.6172 18.5938 46.6797 18.5938C46.7109 18.5938 46.7318 18.6562 46.7422 18.7812C46.7526 18.9062 46.7474 18.9948 46.7266 19.0469L45.0547 18.9688L43.3516 19.0469ZM54.3984 19.1094C53.8776 19.1094 53.4401 18.9375 53.0859 18.5938C52.7422 18.25 52.5703 17.7604 52.5703 17.125V13.1562H51.6641C51.612 13.1562 51.5859 13.0469 51.5859 12.8281C51.5859 12.7656 51.5911 12.7292 51.6016 12.7188C51.9141 12.5729 52.2422 12.2969 52.5859 11.8906C52.8255 11.6094 53.0026 11.3646 53.1172 11.1562C53.2422 10.9479 53.3047 10.8229 53.3047 10.7812C53.6172 10.7812 53.7734 10.8073 53.7734 10.8594V12.4062L55.0078 12.4219H55.8828C55.9661 12.4219 56.0078 12.4688 56.0078 12.5625C56.0078 12.7604 55.9557 12.9583 55.8516 13.1562H53.7734V16.9844C53.7734 17.401 53.8776 17.7344 54.0859 17.9844C54.3047 18.2344 54.5859 18.3594 54.9297 18.3594C55.2526 18.3594 55.5755 18.2604 55.8984 18.0625C55.9297 18.0417 55.9766 18.0885 56.0391 18.2031C56.1016 18.3073 56.1276 18.3646 56.1172 18.375C55.9609 18.5417 55.7214 18.7083 55.3984 18.875C55.0755 19.0312 54.7422 19.1094 54.3984 19.1094ZM59.9609 19.0938C59.388 19.0938 58.862 18.9427 58.3828 18.6406C57.9036 18.3385 57.5182 17.9375 57.2266 17.4375C56.9453 16.9271 56.8047 16.3594 56.8047 15.7344C56.8047 15.0052 56.9401 14.375 57.2109 13.8438C57.4818 13.3125 57.8516 12.9062 58.3203 12.625C58.7891 12.3333 59.3151 12.1875 59.8984 12.1875C60.3776 12.1875 60.7995 12.2812 61.1641 12.4688C61.5286 12.6458 61.8099 12.875 62.0078 13.1562C62.1953 13.4479 62.3307 13.7448 62.4141 14.0469C62.5078 14.3385 62.5547 14.6302 62.5547 14.9219C62.5547 15.1302 62.5234 15.2604 62.4609 15.3125C62.3984 15.3542 62.2786 15.375 62.1016 15.375H58.1641C58.0807 15.375 58.0391 15.401 58.0391 15.4531C58.0391 15.8906 58.1276 16.3125 58.3047 16.7188C58.4818 17.1146 58.7422 17.4427 59.0859 17.7031C59.4297 17.9635 59.8516 18.0938 60.3516 18.0938C60.7891 18.0938 61.1536 18.0312 61.4453 17.9062C61.7474 17.7708 61.9661 17.651 62.1016 17.5469L62.2109 17.4688C62.2734 17.4688 62.3047 17.5365 62.3047 17.6719C62.3047 17.7448 62.2734 17.8385 62.2109 17.9531C62.0026 18.2448 61.6953 18.5104 61.2891 18.75C60.8828 18.9792 60.4401 19.0938 59.9609 19.0938ZM58.1641 14.7188H61.2109C61.263 14.7188 61.2891 14.6667 61.2891 14.5625C61.2891 14.3333 61.2266 14.0833 61.1016 13.8125C60.987 13.5312 60.8099 13.2865 60.5703 13.0781C60.3307 12.8698 60.0286 12.7656 59.6641 12.7656C59.3307 12.7656 59.0443 12.8802 58.8047 13.1094C58.5651 13.3281 58.3828 13.5833 58.2578 13.875C58.1328 14.1562 58.0703 14.401 58.0703 14.6094C58.0703 14.6823 58.1016 14.7188 58.1641 14.7188ZM63.5234 19.0469C63.4818 19.0052 63.4609 18.9167 63.4609 18.7812C63.4609 18.6562 63.4818 18.5938 63.5234 18.5938C63.6068 18.5938 63.7214 18.5781 63.8672 18.5469C64.013 18.5156 64.1484 18.474 64.2734 18.4219C64.3984 18.3698 64.4661 18.3229 64.4766 18.2812C64.5182 18.1354 64.5443 17.9688 64.5547 17.7812C64.5755 17.5938 64.5859 17.3958 64.5859 17.1875V14.2344C64.5859 13.8385 64.513 13.5573 64.3672 13.3906C64.263 13.2656 64.138 13.1823 63.9922 13.1406C63.8568 13.099 63.7318 13.0781 63.6172 13.0781C63.513 13.0677 63.4609 13.0521 63.4609 13.0312C63.4609 12.7812 63.4922 12.651 63.5547 12.6406C64.6901 12.4635 65.3464 12.349 65.5234 12.2969L65.7891 12.2188C65.8307 12.2083 65.8568 12.25 65.8672 12.3438C65.8776 12.4375 65.8776 12.5052 65.8672 12.5469L65.7734 13.3281C65.9609 13.0469 66.2161 12.7865 66.5391 12.5469C66.8724 12.2969 67.2005 12.1719 67.5234 12.1719C68.1276 12.1719 68.5339 12.3229 68.7422 12.625C68.7422 12.9896 68.6849 13.2552 68.5703 13.4219C68.4557 13.5885 68.3151 13.6719 68.1484 13.6719C67.9609 13.6719 67.7891 13.5833 67.6328 13.4062C67.4766 13.2292 67.263 13.1406 66.9922 13.1406C66.7839 13.1406 66.5859 13.2135 66.3984 13.3594C66.2109 13.4948 66.0599 13.6719 65.9453 13.8906C65.8411 14.099 65.7891 14.3177 65.7891 14.5469V16.8906C65.7891 17.1927 65.7995 17.4583 65.8203 17.6875C65.8411 17.9167 65.8724 18.1146 65.9141 18.2812C65.9349 18.3229 66.0078 18.3698 66.1328 18.4219C66.2578 18.474 66.3932 18.5156 66.5391 18.5469C66.6953 18.5781 66.8047 18.5938 66.8672 18.5938C66.8984 18.5938 66.9193 18.6562 66.9297 18.7812C66.9401 18.9062 66.9349 18.9948 66.9141 19.0469L65.2266 18.9688L63.5234 19.0469Z" fill="white"/>
</svg>
