<svg width="106" height="47" viewBox="0 0 106 47" fill="none" xmlns="http://www.w3.org/2000/svg">
<path d="M0 6C0 2.68629 2.68629 0 6 0H82.5C95.4787 0 106 10.5213 106 23.5V23.5C106 36.4787 95.4787 47 82.5 47H6C2.68629 47 0 44.3137 0 41V6Z" fill="#171717"/>
<path d="M40.2645 26.601L41.3565 26.286V22.87C41.3565 22.59 41.3005 22.3567 41.1885 22.17C41.0812 21.9787 40.9155 21.834 40.6915 21.736C40.4722 21.638 40.1945 21.589 39.8585 21.589C39.4992 21.589 39.1562 21.645 38.8295 21.757C38.5029 21.869 38.2509 22.0067 38.0735 22.17L37.8495 21.932C38.1622 21.6427 38.4375 21.4047 38.6755 21.218C38.9135 21.0313 39.1329 20.8867 39.3335 20.784C39.5389 20.6767 39.7442 20.602 39.9495 20.56C40.1549 20.518 40.3765 20.497 40.6145 20.497C41.2585 20.497 41.7322 20.6813 42.0355 21.05C42.3435 21.4187 42.4975 21.9903 42.4975 22.765V26.286L43.6105 26.601V27H40.2645V26.601ZM39.2215 27H35.8825V26.601L36.9815 26.286V18.383C36.9209 18.327 36.8299 18.264 36.7085 18.194C36.5872 18.124 36.4425 18.0517 36.2745 17.977C36.1112 17.8977 35.9385 17.8207 35.7565 17.746V17.473L38.0315 16.913H38.2205L38.1295 18.145V26.286L39.2215 26.601V27ZM47.6277 26.433C48.0337 26.433 48.386 26.3467 48.6847 26.174C48.988 25.9967 49.2213 25.7283 49.3847 25.369C49.5527 25.0097 49.6367 24.5477 49.6367 23.983C49.6367 23.3763 49.5573 22.8677 49.3987 22.457C49.2447 22.0417 49.0183 21.729 48.7197 21.519C48.4257 21.309 48.0687 21.204 47.6487 21.204C47.2427 21.204 46.888 21.2903 46.5847 21.463C46.286 21.6357 46.0527 21.904 45.8847 22.268C45.7213 22.6273 45.6397 23.087 45.6397 23.647C45.6397 24.2537 45.7167 24.7647 45.8707 25.18C46.0293 25.5907 46.258 25.9033 46.5567 26.118C46.8553 26.328 47.2123 26.433 47.6277 26.433ZM47.6067 27.14C46.958 27.14 46.3933 27.0023 45.9127 26.727C45.432 26.4517 45.0587 26.069 44.7927 25.579C44.5267 25.0843 44.3937 24.5127 44.3937 23.864C44.3937 23.2013 44.5313 22.618 44.8067 22.114C45.0867 21.6053 45.4717 21.2087 45.9617 20.924C46.4563 20.6393 47.0257 20.497 47.6697 20.497C48.3183 20.497 48.883 20.6347 49.3637 20.91C49.8443 21.1807 50.2177 21.5633 50.4837 22.058C50.7497 22.548 50.8827 23.1197 50.8827 23.773C50.8827 24.4357 50.7427 25.0213 50.4627 25.53C50.1873 26.034 49.8023 26.4283 49.3077 26.713C48.8177 26.9977 48.2507 27.14 47.6067 27.14ZM54.1706 21.848V26.286L55.2136 26.601V27H51.9306V26.601L53.0296 26.286V22.058C52.9549 21.988 52.8289 21.9063 52.6516 21.813C52.4789 21.715 52.2339 21.5983 51.9166 21.463V21.253L53.7156 20.483H53.8976L54.1706 21.848ZM58.2446 22.296V26.286L59.2876 26.601V27H56.0536V26.601L57.1036 26.286V22.765C57.1036 22.4943 57.0499 22.2727 56.9426 22.1C56.8353 21.9273 56.6789 21.799 56.4736 21.715C56.2729 21.631 56.0256 21.589 55.7316 21.589C55.4189 21.589 55.1086 21.6403 54.8006 21.743C54.4973 21.841 54.2639 21.967 54.1006 22.121L53.8906 21.841C54.1846 21.5703 54.4413 21.3487 54.6606 21.176C54.8846 20.9987 55.0923 20.861 55.2836 20.763C55.4749 20.665 55.6639 20.5973 55.8506 20.56C56.0419 20.518 56.2496 20.497 56.4736 20.497C56.8936 20.497 57.2343 20.574 57.4956 20.728C57.7569 20.8773 57.9459 21.0873 58.0626 21.358C58.1839 21.6287 58.2446 21.9413 58.2446 22.296ZM62.3186 22.597V26.286L63.4316 26.601V27H60.1276V26.601L61.1776 26.286V22.765C61.1776 22.4943 61.1239 22.2727 61.0166 22.1C60.9093 21.9273 60.7529 21.799 60.5476 21.715C60.3423 21.631 60.0926 21.589 59.7986 21.589C59.4859 21.589 59.1756 21.6403 58.8676 21.743C58.5596 21.841 58.3239 21.967 58.1606 22.121L57.9506 21.841C58.2446 21.5703 58.5036 21.3487 58.7276 21.176C58.9516 20.9987 59.1593 20.861 59.3506 20.763C59.5419 20.665 59.7309 20.5973 59.9176 20.56C60.1089 20.518 60.3189 20.497 60.5476 20.497C61.1683 20.497 61.6186 20.6767 61.8986 21.036C62.1786 21.3953 62.3186 21.9157 62.3186 22.597ZM67.2279 20.497C67.7832 20.497 68.2452 20.6137 68.6139 20.847C68.9872 21.0803 69.2742 21.4233 69.4749 21.876C69.6755 22.324 69.7922 22.8747 69.8249 23.528H65.1699V22.898L69.0339 22.786L68.5789 23.031C68.5555 22.6343 68.4855 22.3007 68.3689 22.03C68.2569 21.7547 68.1005 21.547 67.8999 21.407C67.6992 21.2623 67.4472 21.19 67.1439 21.19C66.7845 21.19 66.4719 21.2787 66.2059 21.456C65.9399 21.6333 65.7345 21.897 65.5899 22.247C65.4452 22.597 65.3729 23.0333 65.3729 23.556C65.3729 24.1207 65.4732 24.599 65.6739 24.991C65.8792 25.3783 66.1709 25.6723 66.5489 25.873C66.9269 26.0737 67.3842 26.174 67.9209 26.174C68.1402 26.174 68.3525 26.1507 68.5579 26.104C68.7632 26.0527 68.9615 25.9827 69.1529 25.894C69.3489 25.8053 69.5355 25.7003 69.7129 25.579L69.8319 25.957C69.5705 26.2137 69.3022 26.4307 69.0269 26.608C68.7515 26.7853 68.4669 26.9183 68.1729 27.007C67.8835 27.0957 67.5872 27.14 67.2839 27.14C66.6819 27.14 66.1499 27.007 65.6879 26.741C65.2305 26.4703 64.8712 26.0923 64.6099 25.607C64.3485 25.1217 64.2179 24.5547 64.2179 23.906C64.2179 23.2527 64.3392 22.6693 64.5819 22.156C64.8292 21.6427 65.1769 21.239 65.6249 20.945C66.0775 20.6463 66.6119 20.497 67.2279 20.497Z" fill="white"/>
</svg>
