<svg width="106" height="47" viewBox="0 0 106 47" fill="none" xmlns="http://www.w3.org/2000/svg">
<path d="M0 6C0 2.68629 2.68629 0 6 0H82.5C95.4787 0 106 10.5213 106 23.5V23.5C106 36.4787 95.4787 47 82.5 47H6C2.68629 47 0 44.3137 0 41V6Z" fill="white"/>
<path d="M31.3319 30.2695C30.8379 30.2695 30.4068 30.2327 30.0384 30.159C29.6744 30.0897 29.3711 29.9878 29.1284 29.8535C28.8858 29.7192 28.7059 29.5545 28.5889 29.3595C28.4719 29.1645 28.4134 28.9435 28.4134 28.6965C28.4134 28.5188 28.4589 28.3477 28.5499 28.183C28.6409 28.0227 28.7839 27.8753 28.9789 27.741C29.1783 27.611 29.4339 27.4962 29.7459 27.3965C30.0579 27.3012 30.4328 27.2275 30.8704 27.1755H31.2864V27.3185C30.8444 27.3662 30.4978 27.4463 30.2464 27.559C29.9951 27.6717 29.8174 27.8103 29.7134 27.975C29.6094 28.144 29.5574 28.3325 29.5574 28.5405C29.5574 28.7788 29.6203 28.9803 29.7459 29.145C29.8759 29.3097 30.0774 29.4332 30.3504 29.5155C30.6278 29.5978 30.9853 29.639 31.4229 29.639C31.9039 29.639 32.3091 29.587 32.6384 29.483C32.9721 29.379 33.2234 29.2338 33.3924 29.0475C33.5658 28.8612 33.6524 28.6488 33.6524 28.4105C33.6524 28.2458 33.6178 28.105 33.5484 27.988C33.4834 27.871 33.3664 27.7713 33.1974 27.689C33.0328 27.611 32.7988 27.5503 32.4954 27.507C32.1964 27.468 31.8108 27.4398 31.3384 27.4225C30.8661 27.4095 30.4761 27.3662 30.1684 27.2925C29.8651 27.2232 29.6268 27.1322 29.4534 27.0195C29.2801 26.9068 29.1566 26.7768 29.0829 26.6295C29.0136 26.4778 28.9789 26.3132 28.9789 26.1355C28.9789 25.8452 29.1176 25.5982 29.3949 25.3945C29.6766 25.1865 30.0969 25.0413 30.6559 24.959L30.7664 25.0955C30.5281 25.1215 30.3483 25.1843 30.2269 25.284C30.1056 25.3793 30.0449 25.5202 30.0449 25.7065C30.0449 25.8105 30.0644 25.9037 30.1034 25.986C30.1424 26.0683 30.2269 26.1398 30.3569 26.2005C30.4869 26.2568 30.6819 26.3023 30.9419 26.337C31.2063 26.3717 31.5616 26.3977 32.0079 26.415C32.4543 26.4323 32.8464 26.4757 33.1844 26.545C33.5268 26.61 33.8106 26.7097 34.0359 26.844C34.2656 26.974 34.4389 27.143 34.5559 27.351C34.6729 27.559 34.7314 27.8125 34.7314 28.1115C34.7314 28.5145 34.5971 28.8785 34.3284 29.2035C34.0641 29.5328 33.6784 29.7928 33.1714 29.9835C32.6644 30.1742 32.0513 30.2695 31.3319 30.2695ZM31.3319 25.206C30.8379 25.206 30.4024 25.1172 30.0254 24.9395C29.6484 24.7575 29.3538 24.504 29.1414 24.179C28.9334 23.8497 28.8294 23.4705 28.8294 23.0415C28.8294 22.5995 28.9334 22.216 29.1414 21.891C29.3538 21.566 29.6484 21.3147 30.0254 21.137C30.4024 20.955 30.8379 20.864 31.3319 20.864C31.7003 20.864 32.0361 20.916 32.3394 21.02C32.6428 21.124 32.9049 21.2713 33.1259 21.462C33.3469 21.6527 33.5181 21.8802 33.6394 22.1445C33.7608 22.4088 33.8214 22.7057 33.8214 23.035C33.8214 23.4683 33.7153 23.8497 33.5029 24.179C33.2949 24.504 33.0046 24.7575 32.6319 24.9395C32.2593 25.1172 31.8259 25.206 31.3319 25.206ZM31.3839 24.5885C31.7783 24.5885 32.0968 24.4628 32.3394 24.2115C32.5821 23.9558 32.7034 23.581 32.7034 23.087C32.7034 22.5713 32.5821 22.1748 32.3394 21.8975C32.1011 21.6202 31.7523 21.4815 31.2929 21.4815C30.8986 21.4815 30.5758 21.6072 30.3244 21.8585C30.0774 22.1098 29.9539 22.4847 29.9539 22.983C29.9539 23.4943 30.0753 23.8908 30.3179 24.1725C30.5649 24.4498 30.9203 24.5885 31.3839 24.5885ZM32.2809 21.4685L31.9949 20.9745C32.2853 21.0005 32.5626 21.0113 32.8269 21.007C33.0956 20.9983 33.3448 20.9832 33.5744 20.9615C33.8041 20.9398 34.0121 20.9182 34.1984 20.8965C34.3848 20.8748 34.5429 20.864 34.6729 20.864C34.7856 20.864 34.8701 20.903 34.9264 20.981C34.9871 21.059 35.0174 21.1803 35.0174 21.345C35.0174 21.5227 34.9784 21.6722 34.9004 21.7935C34.8224 21.9105 34.7293 21.969 34.6209 21.969C34.5213 21.969 34.4151 21.9495 34.3024 21.9105C34.1941 21.8672 34.0576 21.8173 33.8929 21.761C33.7326 21.7003 33.5224 21.644 33.2624 21.592C33.0068 21.5357 32.6796 21.4945 32.2809 21.4685ZM38.4978 26.4345C38.8878 26.4345 39.2236 26.3543 39.5053 26.194C39.7913 26.0293 40.0123 25.7802 40.1683 25.4465C40.3243 25.1085 40.4023 24.6773 40.4023 24.153C40.4023 23.5853 40.3286 23.1108 40.1813 22.7295C40.0383 22.3438 39.8281 22.0535 39.5508 21.8585C39.2735 21.6635 38.9333 21.566 38.5303 21.566C38.1403 21.566 37.8023 21.6462 37.5163 21.8065C37.2346 21.9668 37.0158 22.216 36.8598 22.554C36.7038 22.8877 36.6258 23.3167 36.6258 23.841C36.6258 24.4043 36.6973 24.8788 36.8403 25.2645C36.9876 25.6502 37.2 25.9427 37.4773 26.142C37.759 26.337 38.0991 26.4345 38.4978 26.4345ZM38.4783 27.13C37.863 27.13 37.3278 27.0022 36.8728 26.7465C36.4178 26.4865 36.0646 26.1247 35.8133 25.661C35.5663 25.193 35.4428 24.6513 35.4428 24.036C35.4428 23.4077 35.5728 22.8573 35.8328 22.385C36.0971 21.9083 36.4611 21.5357 36.9248 21.267C37.3928 20.9983 37.9345 20.864 38.5498 20.864C39.1651 20.864 39.6981 20.994 40.1488 21.254C40.6038 21.514 40.9548 21.8758 41.2018 22.3395C41.4531 22.8032 41.5788 23.3427 41.5788 23.958C41.5788 24.5863 41.4488 25.1388 41.1888 25.6155C40.9288 26.0922 40.5648 26.4648 40.0968 26.7335C39.6331 26.9978 39.0936 27.13 38.4783 27.13ZM45.7595 26.4345C46.1495 26.4345 46.4853 26.3543 46.767 26.194C47.053 26.0293 47.274 25.7802 47.43 25.4465C47.586 25.1085 47.664 24.6773 47.664 24.153C47.664 23.5853 47.5903 23.1108 47.443 22.7295C47.3 22.3438 47.0898 22.0535 46.8125 21.8585C46.5352 21.6635 46.195 21.566 45.792 21.566C45.402 21.566 45.064 21.6462 44.778 21.8065C44.4963 21.9668 44.2775 22.216 44.1215 22.554C43.9655 22.8877 43.8875 23.3167 43.8875 23.841C43.8875 24.4043 43.959 24.8788 44.102 25.2645C44.2493 25.6502 44.4617 25.9427 44.739 26.142C45.0207 26.337 45.3608 26.4345 45.7595 26.4345ZM45.74 27.13C45.1247 27.13 44.5895 27.0022 44.1345 26.7465C43.6795 26.4865 43.3263 26.1247 43.075 25.661C42.828 25.193 42.7045 24.6513 42.7045 24.036C42.7045 23.4077 42.8345 22.8573 43.0945 22.385C43.3588 21.9083 43.7228 21.5357 44.1865 21.267C44.6545 20.9983 45.1962 20.864 45.8115 20.864C46.4268 20.864 46.9598 20.994 47.4105 21.254C47.8655 21.514 48.2165 21.8758 48.4635 22.3395C48.7148 22.8032 48.8405 23.3427 48.8405 23.958C48.8405 24.5863 48.7105 25.1388 48.4505 25.6155C48.1905 26.0922 47.8265 26.4648 47.3585 26.7335C46.8948 26.9978 46.3553 27.13 45.74 27.13ZM54.7957 22.931C54.7957 22.5193 54.6679 22.1878 54.4122 21.9365C54.1566 21.6808 53.7514 21.553 53.1967 21.553C52.7677 21.553 52.4037 21.6527 52.1047 21.852C51.8057 22.047 51.5782 22.3265 51.4222 22.6905C51.2706 23.0502 51.1947 23.4792 51.1947 23.9775C51.1947 24.4758 51.2749 24.894 51.4352 25.232C51.5956 25.5657 51.8231 25.817 52.1177 25.986C52.4167 26.1507 52.7721 26.233 53.1837 26.233C53.5477 26.233 53.8987 26.181 54.2367 26.077C54.5747 25.9687 54.9106 25.8083 55.2442 25.596V25.9535C54.8586 26.2092 54.5336 26.4172 54.2692 26.5775C54.0092 26.7335 53.7882 26.8505 53.6062 26.9285C53.4242 27.0065 53.2617 27.0585 53.1187 27.0845C52.9757 27.1148 52.8306 27.13 52.6832 27.13C52.0939 27.13 51.5977 27.013 51.1947 26.779C50.7917 26.5407 50.4862 26.207 50.2782 25.778C50.0746 25.349 49.9727 24.8463 49.9727 24.27C49.9727 23.7457 50.0594 23.2733 50.2327 22.853C50.4061 22.4327 50.6444 22.0752 50.9477 21.7805C51.2511 21.4858 51.6042 21.2605 52.0072 21.1045C52.4102 20.9442 52.8414 20.864 53.3007 20.864C53.5564 20.864 53.7947 20.8835 54.0157 20.9225C54.2411 20.9615 54.4686 21.0243 54.6982 21.111C54.9279 21.1933 55.1706 21.306 55.4262 21.449L54.7957 21.7935V18.8685C54.7437 18.8252 54.6549 18.7732 54.5292 18.7125C54.4079 18.6518 54.2736 18.5912 54.1262 18.5305C53.9789 18.4698 53.8424 18.4135 53.7167 18.3615V18.082L55.7837 17.601H55.9722L55.8812 18.771V25.8235C55.9202 25.8538 55.9809 25.8928 56.0632 25.9405C56.1456 25.9838 56.2344 26.0315 56.3297 26.0835C56.4294 26.1312 56.5247 26.1745 56.6157 26.2135C56.7111 26.2525 56.7934 26.2807 56.8627 26.298V26.5255L55.2312 27.117H55.0492L54.7957 25.947V22.931ZM58.8163 26.155H59.3818L58.4003 27.0585L57.9128 27.013L58.1858 25.4075V18.979C58.1294 18.927 58.0406 18.8707 57.9193 18.81C57.8023 18.745 57.6636 18.6778 57.5033 18.6085C57.3429 18.5348 57.1783 18.4655 57.0093 18.4005V18.108L59.1803 17.601H59.3688L59.2778 18.7645V24.959C59.2778 25.2623 59.3428 25.5245 59.4728 25.7455C59.6028 25.9665 59.7934 26.1377 60.0448 26.259C60.3004 26.376 60.6059 26.4345 60.9613 26.4345C61.3643 26.4345 61.7066 26.3392 61.9883 26.1485C62.2743 25.9535 62.4931 25.6718 62.6448 25.3035C62.7964 24.9352 62.8723 24.491 62.8723 23.971C62.8723 23.49 62.7921 23.0848 62.6318 22.7555C62.4758 22.4262 62.2483 22.1792 61.9493 22.0145C61.6546 21.8455 61.2993 21.761 60.8833 21.761C60.6233 21.761 60.3698 21.7827 60.1228 21.826C59.8801 21.8693 59.6461 21.9343 59.4208 22.021C59.1998 22.1033 58.9896 22.2073 58.7903 22.333V21.7805C59.0936 21.6115 59.3709 21.4707 59.6223 21.358C59.8736 21.241 60.1011 21.1478 60.3048 21.0785C60.5128 21.0048 60.7034 20.9507 60.8768 20.916C61.0501 20.8813 61.2104 20.864 61.3578 20.864C61.9471 20.864 62.4454 20.9832 62.8528 21.2215C63.2601 21.4555 63.5678 21.787 63.7758 22.216C63.9881 22.6407 64.0943 23.1433 64.0943 23.724C64.0943 24.244 64.0163 24.7142 63.8603 25.1345C63.7086 25.5548 63.4898 25.9145 63.2038 26.2135C62.9221 26.5125 62.5863 26.7422 62.1963 26.9025C61.8063 27.0585 61.3794 27.1365 60.9158 27.1365C60.6341 27.1365 60.3719 27.1018 60.1293 27.0325C59.8866 26.9632 59.6569 26.857 59.4403 26.714C59.2236 26.571 59.0156 26.3847 58.8163 26.155ZM68.6585 26.0705L67.9695 27.195L65.3825 21.7285L64.492 21.4035V20.994H67.521V21.4035L66.5915 21.6895L68.6585 26.0705ZM66.039 30.2695C65.7487 30.2695 65.5168 30.198 65.3435 30.055C65.1745 29.912 65.09 29.7148 65.09 29.4635C65.09 29.3422 65.1117 29.236 65.155 29.145C65.2027 29.054 65.2612 28.9825 65.3305 28.9305C65.3998 28.8785 65.4713 28.8525 65.545 28.8525C65.6187 28.8525 65.7075 28.8698 65.8115 28.9045C65.9198 28.9392 66.0325 28.9738 66.1495 29.0085C66.2665 29.0432 66.377 29.0605 66.481 29.0605C66.6197 29.0605 66.7475 29.0258 66.8645 28.9565C66.9815 28.8915 67.0942 28.781 67.2025 28.625C67.3108 28.469 67.4213 28.2588 67.534 27.9945L68.0865 26.636L68.314 26.0575L69.9845 21.657L69.0745 21.4035V20.994H71.473V21.4035L70.7385 21.644L68.0345 28.3325C67.8395 28.8135 67.6445 29.1948 67.4495 29.4765C67.2588 29.7582 67.0487 29.9597 66.819 30.081C66.5937 30.2067 66.3337 30.2695 66.039 30.2695ZM74.7507 20.864C75.2881 20.864 75.7344 20.9788 76.0897 21.2085C76.4451 21.4338 76.7159 21.7632 76.9022 22.1965C77.0886 22.6298 77.1947 23.1585 77.2207 23.7825H72.8137L72.8072 23.1585L76.4602 23.0675L76.0442 23.2885C76.0226 22.9028 75.9576 22.5822 75.8492 22.3265C75.7409 22.0665 75.5892 21.8715 75.3942 21.7415C75.2036 21.6115 74.9652 21.5465 74.6792 21.5465C74.3369 21.5465 74.0401 21.6288 73.7887 21.7935C73.5374 21.9538 73.3424 22.1987 73.2037 22.528C73.0694 22.853 73.0022 23.2625 73.0022 23.7565C73.0022 24.2895 73.0954 24.738 73.2817 25.102C73.4724 25.466 73.7454 25.7412 74.1007 25.9275C74.4561 26.1095 74.8872 26.2005 75.3942 26.2005C75.6109 26.2005 75.8189 26.1788 76.0182 26.1355C76.2176 26.0878 76.4082 26.0228 76.5902 25.9405C76.7766 25.8582 76.9542 25.765 77.1232 25.661L77.2207 26.051C76.9737 26.285 76.7181 26.4822 76.4537 26.6425C76.1894 26.8028 75.9186 26.9242 75.6412 27.0065C75.3682 27.0888 75.0931 27.13 74.8157 27.13C74.2394 27.13 73.7324 27.0043 73.2947 26.753C72.8614 26.5017 72.5212 26.1485 72.2742 25.6935C72.0316 25.2385 71.9102 24.7012 71.9102 24.0815C71.9102 23.4618 72.0251 22.9093 72.2547 22.424C72.4887 21.9387 72.8181 21.5573 73.2427 21.28C73.6674 21.0027 74.1701 20.864 74.7507 20.864Z" fill="#171717"/>
</svg>
