<svg width="106" height="47" viewBox="0 0 106 47" fill="none" xmlns="http://www.w3.org/2000/svg">
<path d="M0 6C0 2.68629 2.68629 0 6 0H82.5C95.4787 0 106 10.5213 106 23.5V23.5C106 36.4787 95.4787 47 82.5 47H6C2.68629 47 0 44.3137 0 41V6Z" fill="#171717"/>
<path d="M40.93 20.497C41.4854 20.497 41.9474 20.6137 42.316 20.847C42.6894 21.0803 42.9764 21.4233 43.177 21.876C43.3777 22.324 43.4944 22.8747 43.527 23.528H38.872V22.898L42.736 22.786L42.281 23.031C42.2577 22.6343 42.1877 22.3007 42.071 22.03C41.959 21.7547 41.8027 21.547 41.602 21.407C41.4014 21.2623 41.1494 21.19 40.846 21.19C40.4867 21.19 40.174 21.2787 39.908 21.456C39.642 21.6333 39.4367 21.897 39.292 22.247C39.1474 22.597 39.075 23.0333 39.075 23.556C39.075 24.1207 39.1754 24.599 39.376 24.991C39.5814 25.3783 39.873 25.6723 40.251 25.873C40.629 26.0737 41.0864 26.174 41.623 26.174C41.8424 26.174 42.0547 26.1507 42.26 26.104C42.4654 26.0527 42.6637 25.9827 42.855 25.894C43.051 25.8053 43.2377 25.7003 43.415 25.579L43.534 25.957C43.2727 26.2137 43.0044 26.4307 42.729 26.608C42.4537 26.7853 42.169 26.9183 41.875 27.007C41.5857 27.0957 41.2894 27.14 40.986 27.14C40.384 27.14 39.852 27.007 39.39 26.741C38.9327 26.4703 38.5734 26.0923 38.312 25.607C38.0507 25.1217 37.92 24.5547 37.92 23.906C37.92 23.2527 38.0414 22.6693 38.284 22.156C38.5314 21.6427 38.879 21.239 39.327 20.945C39.7797 20.6463 40.314 20.497 40.93 20.497ZM50.2925 26.251L51.1745 26.587V27H48.1015V26.587L48.9765 26.3L47.3455 24.214L47.1705 24.018L45.0775 21.386L44.1955 21.05V20.637H47.2685V21.05L46.3935 21.337L47.8705 23.241L48.0385 23.423L50.2925 26.251ZM47.5975 24.123L45.7145 26.335L46.5755 26.587V27H44.1185V26.587L44.8745 26.328L47.2055 23.682L47.5695 23.381L49.3475 21.295L48.5005 21.05V20.637H50.9435V21.05L50.1805 21.302L47.9545 23.822L47.5975 24.123ZM53.679 25.152C53.679 25.502 53.7793 25.7563 53.98 25.915C54.1807 26.0737 54.477 26.153 54.869 26.153C55.0463 26.153 55.2377 26.1367 55.443 26.104C55.653 26.0667 55.8793 26.013 56.122 25.943V26.363C55.8187 26.559 55.5527 26.713 55.324 26.825C55.0953 26.937 54.89 27.014 54.708 27.056C54.526 27.098 54.351 27.119 54.183 27.119C53.861 27.119 53.5763 27.063 53.329 26.951C53.0817 26.8343 52.8857 26.6617 52.741 26.433C52.601 26.1997 52.531 25.9127 52.531 25.572V21.631L51.579 21.155V20.917C51.7423 20.8377 51.8917 20.7607 52.027 20.686C52.1623 20.6067 52.286 20.5273 52.398 20.448C52.5147 20.364 52.6243 20.2777 52.727 20.189C52.8297 20.0957 52.9323 19.9977 53.035 19.895C53.1377 19.7923 53.2403 19.6803 53.343 19.559H53.679V20.854V25.152ZM53.231 21.428L53.245 20.637H55.94L55.863 21.428H53.231ZM61.1316 20.532C61.3649 20.532 61.5399 20.5927 61.6566 20.714C61.7779 20.8307 61.8386 20.9917 61.8386 21.197C61.8386 21.435 61.7803 21.624 61.6636 21.764C61.5469 21.8993 61.3953 21.967 61.2086 21.967C61.0639 21.967 60.9193 21.953 60.7746 21.925C60.6346 21.8923 60.4899 21.862 60.3406 21.834C60.1959 21.806 60.0419 21.792 59.8786 21.792C59.7713 21.792 59.6546 21.8037 59.5286 21.827C59.4073 21.8503 59.2859 21.8877 59.1646 21.939C59.0433 21.9903 58.9266 22.0557 58.8146 22.135L58.6396 21.89C58.9569 21.6333 59.2393 21.4187 59.4866 21.246C59.7386 21.0733 59.9626 20.9357 60.1586 20.833C60.3546 20.7257 60.5319 20.6487 60.6906 20.602C60.8539 20.5553 61.0009 20.532 61.1316 20.532ZM59.0036 21.848V26.286L60.1656 26.601V27H56.7636V26.601L57.8626 26.286V22.058C57.8019 22.002 57.7156 21.9437 57.6036 21.883C57.4963 21.8177 57.3703 21.75 57.2256 21.68C57.0809 21.61 56.9223 21.5377 56.7496 21.463V21.253L58.6396 20.483H58.8286L59.0036 21.848ZM66.7597 22.926L66.7247 23.563C66.09 23.6797 65.5767 23.7987 65.1847 23.92C64.7927 24.0413 64.4894 24.1697 64.2747 24.305C64.0647 24.4357 63.92 24.578 63.8407 24.732C63.7614 24.886 63.7217 25.0587 63.7217 25.25C63.7217 25.5767 63.8197 25.8263 64.0157 25.999C64.2117 26.167 64.473 26.251 64.7997 26.251C65.0517 26.251 65.2804 26.195 65.4857 26.083C65.6957 25.971 65.8614 25.824 65.9827 25.642C66.1087 25.4553 66.1717 25.25 66.1717 25.026V22.506C66.1717 22.1047 66.076 21.7967 65.8847 21.582C65.698 21.3673 65.3714 21.26 64.9047 21.26C64.7134 21.26 64.5174 21.2787 64.3167 21.316C64.116 21.3533 63.9224 21.4093 63.7357 21.484L64.1557 21.099C64.1277 21.253 64.0974 21.3977 64.0647 21.533C64.0367 21.6683 64.004 21.7897 63.9667 21.897C63.9294 22.0043 63.885 22.0977 63.8337 22.177C63.7544 22.289 63.6564 22.366 63.5397 22.408C63.423 22.4453 63.297 22.464 63.1617 22.464C62.9704 22.464 62.821 22.4243 62.7137 22.345C62.6064 22.261 62.5527 22.1607 62.5527 22.044C62.5527 21.89 62.6274 21.7267 62.7767 21.554C62.9307 21.3813 63.136 21.218 63.3927 21.064C63.6494 20.91 63.9434 20.784 64.2747 20.686C64.6107 20.588 64.9607 20.539 65.3247 20.539C65.8054 20.539 66.1904 20.609 66.4797 20.749C66.7737 20.889 66.986 21.0943 67.1167 21.365C67.2474 21.631 67.3127 21.953 67.3127 22.331V25.572C67.3127 25.7307 67.336 25.8613 67.3827 25.964C67.434 26.0667 67.5064 26.1437 67.5997 26.195C67.693 26.2417 67.8097 26.265 67.9497 26.265C68.057 26.265 68.1714 26.2487 68.2927 26.216C68.4187 26.1833 68.5424 26.139 68.6637 26.083V26.503C68.4584 26.713 68.2414 26.8693 68.0127 26.972C67.784 27.07 67.5694 27.119 67.3687 27.119C67.1214 27.119 66.909 27.063 66.7317 26.951C66.559 26.8343 66.426 26.664 66.3327 26.44C66.2394 26.216 66.188 25.9407 66.1787 25.614L66.2277 25.565C66.167 25.8777 66.048 26.153 65.8707 26.391C65.6934 26.629 65.4717 26.8133 65.2057 26.944C64.9444 27.0747 64.6527 27.14 64.3307 27.14C63.78 27.14 63.339 26.9977 63.0077 26.713C62.6764 26.4237 62.5107 26.013 62.5107 25.481C62.5107 25.187 62.569 24.921 62.6857 24.683C62.8024 24.445 63.0124 24.2257 63.3157 24.025C63.6237 23.8243 64.0554 23.6353 64.6107 23.458C65.166 23.276 65.8824 23.0987 66.7597 22.926Z" fill="white"/>
</svg>
