<svg width="106" height="47" viewBox="0 0 106 47" fill="none" xmlns="http://www.w3.org/2000/svg">
<path d="M0 6C0 2.68629 2.68629 0 6 0H82.5C95.4787 0 106 10.5213 106 23.5V23.5C106 36.4787 95.4787 47 82.5 47H6C2.68629 47 0 44.3137 0 41V6Z" fill="white"/>
<path d="M40.9418 26.597L41.9558 26.311V23.113C41.9558 22.8487 41.9038 22.6277 41.7998 22.45C41.7001 22.2723 41.5463 22.138 41.3383 22.047C41.1303 21.956 40.866 21.9105 40.5453 21.9105C40.216 21.9105 39.8975 21.9603 39.5898 22.06C39.2821 22.1597 39.0395 22.281 38.8618 22.424L38.6668 22.1965C38.9745 21.9235 39.241 21.7003 39.4663 21.527C39.6916 21.3537 39.8975 21.2193 40.0838 21.124C40.2701 21.0287 40.4543 20.9615 40.6363 20.9225C40.8226 20.8835 41.0263 20.864 41.2473 20.864C41.8626 20.864 42.3155 21.0373 42.6058 21.384C42.9005 21.7263 43.0478 22.2572 43.0478 22.9765V26.311L44.0813 26.597V27H40.9418V26.597ZM39.9278 27H36.7883V26.597L37.8218 26.311V18.979C37.7655 18.927 37.6766 18.8707 37.5553 18.81C37.434 18.745 37.2931 18.6778 37.1328 18.6085C36.9768 18.5348 36.8143 18.4655 36.6453 18.4005V18.108L38.8098 17.601H39.0048L38.9073 18.7645V26.311L39.9278 26.597V27ZM47.8923 26.4345C48.2823 26.4345 48.6182 26.3543 48.8998 26.194C49.1858 26.0293 49.4068 25.7802 49.5628 25.4465C49.7188 25.1085 49.7968 24.6773 49.7968 24.153C49.7968 23.5853 49.7232 23.1108 49.5758 22.7295C49.4328 22.3438 49.2227 22.0535 48.9453 21.8585C48.668 21.6635 48.3278 21.566 47.9248 21.566C47.5348 21.566 47.1968 21.6462 46.9108 21.8065C46.6292 21.9668 46.4103 22.216 46.2543 22.554C46.0983 22.8877 46.0203 23.3167 46.0203 23.841C46.0203 24.4043 46.0918 24.8788 46.2348 25.2645C46.3822 25.6502 46.5945 25.9427 46.8718 26.142C47.1535 26.337 47.4937 26.4345 47.8923 26.4345ZM47.8728 27.13C47.2575 27.13 46.7223 27.0022 46.2673 26.7465C45.8123 26.4865 45.4592 26.1247 45.2078 25.661C44.9608 25.193 44.8373 24.6513 44.8373 24.036C44.8373 23.4077 44.9673 22.8573 45.2273 22.385C45.4917 21.9083 45.8557 21.5357 46.3193 21.267C46.7873 20.9983 47.329 20.864 47.9443 20.864C48.5597 20.864 49.0927 20.994 49.5433 21.254C49.9983 21.514 50.3493 21.8758 50.5963 22.3395C50.8477 22.8032 50.9733 23.3427 50.9733 23.958C50.9733 24.5863 50.8433 25.1388 50.5833 25.6155C50.3233 26.0922 49.9593 26.4648 49.4913 26.7335C49.0277 26.9978 48.4882 27.13 47.8728 27.13ZM54.101 22.138V26.311L55.0825 26.597V27H51.982V26.597L53.0155 26.311V22.359C52.9462 22.2983 52.827 22.2203 52.658 22.125C52.489 22.0297 52.2572 21.917 51.9625 21.787V21.579L53.6525 20.851H53.8345L54.101 22.138ZM57.962 22.567V26.311L58.937 26.597V27H55.895V26.597L56.87 26.311V23.0155C56.87 22.7598 56.8202 22.5518 56.7205 22.3915C56.6252 22.2268 56.4822 22.1055 56.2915 22.0275C56.1009 21.9495 55.8647 21.9105 55.583 21.9105C55.2927 21.9105 55.0045 21.956 54.7185 22.047C54.4325 22.1337 54.2072 22.2442 54.0425 22.3785L53.8605 22.112C54.1465 21.8563 54.3935 21.6483 54.6015 21.488C54.8095 21.3233 55.0024 21.1977 55.18 21.111C55.3577 21.02 55.531 20.9572 55.7 20.9225C55.8734 20.8835 56.064 20.864 56.272 20.864C56.6707 20.864 56.9935 20.9333 57.2405 21.072C57.4919 21.2107 57.6739 21.4078 57.7865 21.6635C57.9035 21.9192 57.962 22.2203 57.962 22.567ZM61.8165 22.827V26.311L62.8565 26.597V27H59.7495V26.597L60.731 26.311V23.0155C60.731 22.7598 60.6812 22.5518 60.5815 22.3915C60.4819 22.2312 60.3345 22.112 60.1395 22.034C59.9489 21.9517 59.7127 21.9105 59.431 21.9105C59.1407 21.9105 58.8504 21.956 58.56 22.047C58.274 22.1337 58.0487 22.2463 57.884 22.385L57.702 22.1185C57.988 21.8628 58.2372 21.6527 58.4495 21.488C58.6619 21.3233 58.8547 21.1977 59.028 21.111C59.2057 21.02 59.379 20.9572 59.548 20.9225C59.7214 20.8835 59.912 20.864 60.12 20.864C60.718 20.864 61.1492 21.033 61.4135 21.371C61.6822 21.7047 61.8165 22.19 61.8165 22.827ZM66.4734 20.864C67.0107 20.864 67.457 20.9788 67.8124 21.2085C68.1677 21.4338 68.4385 21.7632 68.6249 22.1965C68.8112 22.6298 68.9174 23.1585 68.9434 23.7825H64.5364L64.5299 23.1585L68.1829 23.0675L67.7669 23.2885C67.7452 22.9028 67.6802 22.5822 67.5719 22.3265C67.4635 22.0665 67.3119 21.8715 67.1169 21.7415C66.9262 21.6115 66.6879 21.5465 66.4019 21.5465C66.0595 21.5465 65.7627 21.6288 65.5114 21.7935C65.26 21.9538 65.065 22.1987 64.9264 22.528C64.792 22.853 64.7249 23.2625 64.7249 23.7565C64.7249 24.2895 64.818 24.738 65.0044 25.102C65.195 25.466 65.468 25.7412 65.8234 25.9275C66.1787 26.1095 66.6099 26.2005 67.1169 26.2005C67.3335 26.2005 67.5415 26.1788 67.7409 26.1355C67.9402 26.0878 68.1309 26.0228 68.3129 25.9405C68.4992 25.8582 68.6769 25.765 68.8459 25.661L68.9434 26.051C68.6964 26.285 68.4407 26.4822 68.1764 26.6425C67.912 26.8028 67.6412 26.9242 67.3639 27.0065C67.0909 27.0888 66.8157 27.13 66.5384 27.13C65.962 27.13 65.455 27.0043 65.0174 26.753C64.584 26.5017 64.2439 26.1485 63.9969 25.6935C63.7542 25.2385 63.6329 24.7012 63.6329 24.0815C63.6329 23.4618 63.7477 22.9093 63.9774 22.424C64.2114 21.9387 64.5407 21.5573 64.9654 21.28C65.39 21.0027 65.8927 20.864 66.4734 20.864Z" fill="#171717"/>
</svg>
