<svg width="106" height="47" viewBox="0 0 106 47" fill="none" xmlns="http://www.w3.org/2000/svg">
<path d="M0 6C0 2.68629 2.68629 0 6 0H82.5C95.4787 0 106 10.5213 106 23.5V23.5C106 36.4787 95.4787 47 82.5 47H6C2.68629 47 0 44.3137 0 41V6Z" fill="white"/>
<path d="M54.4692 23.152L54.3977 23.776C53.791 23.8843 53.2992 23.9948 52.9222 24.1075C52.5495 24.2202 52.2635 24.3372 52.0642 24.4585C51.8648 24.5798 51.7283 24.7142 51.6547 24.8615C51.581 25.0045 51.5442 25.1648 51.5442 25.3425C51.5442 25.6458 51.6352 25.8777 51.8172 26.038C52.0035 26.194 52.2548 26.272 52.5712 26.272C52.8138 26.272 53.0327 26.22 53.2277 26.116C53.427 26.012 53.5852 25.8755 53.7022 25.7065C53.8235 25.5332 53.8842 25.3425 53.8842 25.1345V22.788C53.8842 22.4023 53.7932 22.1077 53.6112 21.904C53.4292 21.7003 53.115 21.5985 52.6687 21.5985C52.478 21.5985 52.2873 21.6158 52.0967 21.6505C51.906 21.6852 51.724 21.735 51.5507 21.8L51.9472 21.4295C51.9212 21.5768 51.893 21.7133 51.8627 21.839C51.8367 21.9647 51.8042 22.0795 51.7652 22.1835C51.7305 22.2832 51.6893 22.372 51.6417 22.45C51.568 22.5627 51.477 22.6385 51.3687 22.6775C51.2603 22.7165 51.139 22.736 51.0047 22.736C50.814 22.736 50.6667 22.697 50.5627 22.619C50.463 22.5367 50.4132 22.4392 50.4132 22.3265C50.4132 22.1835 50.4825 22.0318 50.6212 21.8715C50.7642 21.7068 50.957 21.5508 51.1997 21.4035C51.4467 21.2562 51.7283 21.137 52.0447 21.046C52.3653 20.9507 52.7033 20.903 53.0587 20.903C53.5223 20.903 53.8928 20.9702 54.1702 21.1045C54.4518 21.2388 54.6555 21.4338 54.7812 21.6895C54.9068 21.9452 54.9697 22.2528 54.9697 22.6125V25.6285C54.9697 25.7758 54.9935 25.8993 55.0412 25.999C55.0888 26.0943 55.156 26.1658 55.2427 26.2135C55.3337 26.2568 55.4463 26.2785 55.5807 26.2785C55.6803 26.2785 55.7865 26.2655 55.8992 26.2395C56.0118 26.2092 56.1267 26.1702 56.2437 26.1225V26.5385C56.053 26.7335 55.8493 26.8787 55.6327 26.974C55.416 27.065 55.2123 27.1105 55.0217 27.1105C54.7877 27.1105 54.5862 27.0563 54.4172 26.948C54.2482 26.8353 54.1182 26.6707 54.0272 26.454C53.9405 26.2373 53.895 25.9708 53.8907 25.6545L53.9362 25.6155C53.8798 25.9188 53.7672 26.1853 53.5982 26.415C53.4335 26.6403 53.2233 26.8158 52.9677 26.9415C52.7163 27.0672 52.4325 27.13 52.1162 27.13C51.5875 27.13 51.165 26.9957 50.8487 26.727C50.5367 26.454 50.3807 26.064 50.3807 25.557C50.3807 25.2797 50.4348 25.0283 50.5432 24.803C50.6558 24.5733 50.8595 24.3632 51.1542 24.1725C51.4488 23.9818 51.8627 23.8042 52.3957 23.6395C52.933 23.4748 53.6242 23.3123 54.4692 23.152Z" fill="#171717"/>
</svg>
