<svg width="106" height="47" viewBox="0 0 106 47" fill="none" xmlns="http://www.w3.org/2000/svg">
<path d="M0 6C0 2.68629 2.68629 0 6 0H82.5C95.4787 0 106 10.5213 106 23.5V23.5C106 36.4787 95.4787 47 82.5 47H6C2.68629 47 0 44.3137 0 41V6Z" fill="white"/>
<path d="M15.4301 26.155H15.9956L15.0141 27.0585L14.5266 27.013L14.7996 25.4075V18.979C14.7432 18.927 14.6544 18.8707 14.5331 18.81C14.4161 18.745 14.2774 18.6778 14.1171 18.6085C13.9567 18.5348 13.7921 18.4655 13.6231 18.4005V18.108L15.7941 17.601H15.9826L15.8916 18.7645V24.959C15.8916 25.2623 15.9566 25.5245 16.0866 25.7455C16.2166 25.9665 16.4072 26.1377 16.6586 26.259C16.9142 26.376 17.2197 26.4345 17.5751 26.4345C17.9781 26.4345 18.3204 26.3392 18.6021 26.1485C18.8881 25.9535 19.1069 25.6718 19.2586 25.3035C19.4102 24.9352 19.4861 24.491 19.4861 23.971C19.4861 23.49 19.4059 23.0848 19.2456 22.7555C19.0896 22.4262 18.8621 22.1792 18.5631 22.0145C18.2684 21.8455 17.9131 21.761 17.4971 21.761C17.2371 21.761 16.9836 21.7827 16.7366 21.826C16.4939 21.8693 16.2599 21.9343 16.0346 22.021C15.8136 22.1033 15.6034 22.2073 15.4041 22.333V21.7805C15.7074 21.6115 15.9847 21.4707 16.2361 21.358C16.4874 21.241 16.7149 21.1478 16.9186 21.0785C17.1266 21.0048 17.3172 20.9507 17.4906 20.916C17.6639 20.8813 17.8242 20.864 17.9716 20.864C18.5609 20.864 19.0592 20.9832 19.4666 21.2215C19.8739 21.4555 20.1816 21.787 20.3896 22.216C20.6019 22.6407 20.7081 23.1433 20.7081 23.724C20.7081 24.244 20.6301 24.7142 20.4741 25.1345C20.3224 25.5548 20.1036 25.9145 19.8176 26.2135C19.5359 26.5125 19.2001 26.7422 18.8101 26.9025C18.4201 27.0585 17.9932 27.1365 17.5296 27.1365C17.2479 27.1365 16.9857 27.1018 16.7431 27.0325C16.5004 26.9632 16.2707 26.857 16.0541 26.714C15.8374 26.571 15.6294 26.3847 15.4301 26.155ZM25.8438 20.8965C26.0604 20.8965 26.2251 20.9528 26.3378 21.0655C26.4504 21.1782 26.5068 21.332 26.5068 21.527C26.5068 21.7523 26.4548 21.9322 26.3508 22.0665C26.2468 22.1965 26.1146 22.2615 25.9543 22.2615C25.8113 22.2615 25.6683 22.2485 25.5253 22.2225C25.3823 22.1965 25.2371 22.1705 25.0898 22.1445C24.9468 22.1185 24.7973 22.1055 24.6413 22.1055C24.5416 22.1055 24.4354 22.1163 24.3228 22.138C24.2101 22.1597 24.0974 22.1943 23.9848 22.242C23.8721 22.2897 23.7638 22.3503 23.6598 22.424L23.4908 22.1965C23.7941 21.9452 24.0628 21.7372 24.2968 21.5725C24.5308 21.4078 24.7409 21.2757 24.9273 21.176C25.1136 21.0763 25.2804 21.0048 25.4278 20.9615C25.5794 20.9182 25.7181 20.8965 25.8438 20.8965ZM23.8418 22.138V26.311L24.9403 26.597V27H21.7228V26.597L22.7563 26.311V22.359C22.6999 22.307 22.6198 22.2528 22.5158 22.1965C22.4118 22.1358 22.2904 22.0708 22.1518 22.0015C22.0131 21.9278 21.8636 21.8563 21.7033 21.787V21.579L23.4713 20.851H23.6533L23.8418 22.138ZM28.6706 19.239C28.4062 19.239 28.1917 19.1653 28.0271 19.018C27.8624 18.8707 27.7801 18.6713 27.7801 18.42C27.7801 18.1687 27.8624 17.9693 28.0271 17.822C28.1917 17.6747 28.4062 17.601 28.6706 17.601C28.9306 17.601 29.1429 17.6747 29.3076 17.822C29.4722 17.9693 29.5546 18.1687 29.5546 18.42C29.5546 18.6713 29.4722 18.8707 29.3076 19.018C29.1429 19.1653 28.9306 19.239 28.6706 19.239ZM29.3661 20.864L29.3076 22.086V26.311L30.3216 26.597V27H27.1886V26.597L28.2156 26.311V22.2615C28.1679 22.2182 28.0856 22.164 27.9686 22.099C27.8516 22.034 27.7216 21.9668 27.5786 21.8975C27.4356 21.8282 27.2969 21.7675 27.1626 21.7155V21.4295L29.1386 20.864H29.3661ZM33.725 30.2695C33.231 30.2695 32.7998 30.2327 32.4315 30.159C32.0675 30.0897 31.7642 29.9878 31.5215 29.8535C31.2788 29.7192 31.099 29.5545 30.982 29.3595C30.865 29.1645 30.8065 28.9435 30.8065 28.6965C30.8065 28.5188 30.852 28.3477 30.943 28.183C31.034 28.0227 31.177 27.8753 31.372 27.741C31.5713 27.611 31.827 27.4962 32.139 27.3965C32.451 27.3012 32.8258 27.2275 33.2635 27.1755H33.6795V27.3185C33.2375 27.3662 32.8908 27.4463 32.6395 27.559C32.3882 27.6717 32.2105 27.8103 32.1065 27.975C32.0025 28.144 31.9505 28.3325 31.9505 28.5405C31.9505 28.7788 32.0133 28.9803 32.139 29.145C32.269 29.3097 32.4705 29.4332 32.7435 29.5155C33.0208 29.5978 33.3783 29.639 33.816 29.639C34.297 29.639 34.7022 29.587 35.0315 29.483C35.3652 29.379 35.6165 29.2338 35.7855 29.0475C35.9588 28.8612 36.0455 28.6488 36.0455 28.4105C36.0455 28.2458 36.0108 28.105 35.9415 27.988C35.8765 27.871 35.7595 27.7713 35.5905 27.689C35.4258 27.611 35.1918 27.5503 34.8885 27.507C34.5895 27.468 34.2038 27.4398 33.7315 27.4225C33.2592 27.4095 32.8692 27.3662 32.5615 27.2925C32.2582 27.2232 32.0198 27.1322 31.8465 27.0195C31.6732 26.9068 31.5497 26.7768 31.476 26.6295C31.4067 26.4778 31.372 26.3132 31.372 26.1355C31.372 25.8452 31.5107 25.5982 31.788 25.3945C32.0697 25.1865 32.49 25.0413 33.049 24.959L33.1595 25.0955C32.9212 25.1215 32.7413 25.1843 32.62 25.284C32.4987 25.3793 32.438 25.5202 32.438 25.7065C32.438 25.8105 32.4575 25.9037 32.4965 25.986C32.5355 26.0683 32.62 26.1398 32.75 26.2005C32.88 26.2568 33.075 26.3023 33.335 26.337C33.5993 26.3717 33.9547 26.3977 34.401 26.415C34.8473 26.4323 35.2395 26.4757 35.5775 26.545C35.9198 26.61 36.2037 26.7097 36.429 26.844C36.6587 26.974 36.832 27.143 36.949 27.351C37.066 27.559 37.1245 27.8125 37.1245 28.1115C37.1245 28.5145 36.9902 28.8785 36.7215 29.2035C36.4572 29.5328 36.0715 29.7928 35.5645 29.9835C35.0575 30.1742 34.4443 30.2695 33.725 30.2695ZM33.725 25.206C33.231 25.206 32.7955 25.1172 32.4185 24.9395C32.0415 24.7575 31.7468 24.504 31.5345 24.179C31.3265 23.8497 31.2225 23.4705 31.2225 23.0415C31.2225 22.5995 31.3265 22.216 31.5345 21.891C31.7468 21.566 32.0415 21.3147 32.4185 21.137C32.7955 20.955 33.231 20.864 33.725 20.864C34.0933 20.864 34.4292 20.916 34.7325 21.02C35.0358 21.124 35.298 21.2713 35.519 21.462C35.74 21.6527 35.9112 21.8802 36.0325 22.1445C36.1538 22.4088 36.2145 22.7057 36.2145 23.035C36.2145 23.4683 36.1083 23.8497 35.896 24.179C35.688 24.504 35.3977 24.7575 35.025 24.9395C34.6523 25.1172 34.219 25.206 33.725 25.206ZM33.777 24.5885C34.1713 24.5885 34.4898 24.4628 34.7325 24.2115C34.9752 23.9558 35.0965 23.581 35.0965 23.087C35.0965 22.5713 34.9752 22.1748 34.7325 21.8975C34.4942 21.6202 34.1453 21.4815 33.686 21.4815C33.2917 21.4815 32.9688 21.6072 32.7175 21.8585C32.4705 22.1098 32.347 22.4847 32.347 22.983C32.347 23.4943 32.4683 23.8908 32.711 24.1725C32.958 24.4498 33.3133 24.5885 33.777 24.5885ZM34.674 21.4685L34.388 20.9745C34.6783 21.0005 34.9557 21.0113 35.22 21.007C35.4887 20.9983 35.7378 20.9832 35.9675 20.9615C36.1972 20.9398 36.4052 20.9182 36.5915 20.8965C36.7778 20.8748 36.936 20.864 37.066 20.864C37.1787 20.864 37.2632 20.903 37.3195 20.981C37.3802 21.059 37.4105 21.1803 37.4105 21.345C37.4105 21.5227 37.3715 21.6722 37.2935 21.7935C37.2155 21.9105 37.1223 21.969 37.014 21.969C36.9143 21.969 36.8082 21.9495 36.6955 21.9105C36.5872 21.8672 36.4507 21.8173 36.286 21.761C36.1257 21.7003 35.9155 21.644 35.6555 21.592C35.3998 21.5357 35.0727 21.4945 34.674 21.4685ZM41.9003 26.597L42.9143 26.311V23.113C42.9143 22.8487 42.8623 22.6277 42.7583 22.45C42.6586 22.2723 42.5048 22.138 42.2968 22.047C42.0888 21.956 41.8245 21.9105 41.5038 21.9105C41.1745 21.9105 40.856 21.9603 40.5483 22.06C40.2406 22.1597 39.998 22.281 39.8203 22.424L39.6253 22.1965C39.933 21.9235 40.1995 21.7003 40.4248 21.527C40.6501 21.3537 40.856 21.2193 41.0423 21.124C41.2286 21.0287 41.4128 20.9615 41.5948 20.9225C41.7811 20.8835 41.9848 20.864 42.2058 20.864C42.8211 20.864 43.274 21.0373 43.5643 21.384C43.859 21.7263 44.0063 22.2572 44.0063 22.9765V26.311L45.0398 26.597V27H41.9003V26.597ZM40.8863 27H37.7468V26.597L38.7803 26.311V18.979C38.724 18.927 38.6351 18.8707 38.5138 18.81C38.3925 18.745 38.2516 18.6778 38.0913 18.6085C37.9353 18.5348 37.7728 18.4655 37.6038 18.4005V18.108L39.7683 17.601H39.9633L39.8658 18.7645V26.311L40.8863 26.597V27ZM47.5573 25.245C47.5573 25.5787 47.6505 25.8192 47.8368 25.9665C48.0275 26.1138 48.3113 26.1875 48.6883 26.1875C48.8573 26.1875 49.0393 26.1723 49.2343 26.142C49.4336 26.1073 49.646 26.0575 49.8713 25.9925V26.402C49.581 26.584 49.3275 26.7292 49.1108 26.8375C48.8941 26.9415 48.6991 27.013 48.5258 27.052C48.3525 27.0953 48.1856 27.117 48.0253 27.117C47.7263 27.117 47.4576 27.0628 47.2193 26.9545C46.9853 26.8462 46.8011 26.6858 46.6668 26.4735C46.5325 26.2568 46.4653 25.9882 46.4653 25.6675V21.93L45.5358 21.501V21.254C45.7005 21.1803 45.8478 21.1088 45.9778 21.0395C46.1121 20.9658 46.2335 20.89 46.3418 20.812C46.4545 20.734 46.5585 20.6538 46.6538 20.5715C46.7491 20.4848 46.8423 20.3917 46.9333 20.292C47.0286 20.1923 47.124 20.0818 47.2193 19.9605H47.5573V21.202V25.245ZM47.1348 21.7675L47.1478 20.994H49.7088L49.6503 21.7675H47.1348ZM53.3782 20.864C53.9155 20.864 54.3618 20.9788 54.7172 21.2085C55.0725 21.4338 55.3433 21.7632 55.5297 22.1965C55.716 22.6298 55.8222 23.1585 55.8482 23.7825H51.4412L51.4347 23.1585L55.0877 23.0675L54.6717 23.2885C54.65 22.9028 54.585 22.5822 54.4767 22.3265C54.3683 22.0665 54.2167 21.8715 54.0217 21.7415C53.831 21.6115 53.5927 21.5465 53.3067 21.5465C52.9643 21.5465 52.6675 21.6288 52.4162 21.7935C52.1648 21.9538 51.9698 22.1987 51.8312 22.528C51.6968 22.853 51.6297 23.2625 51.6297 23.7565C51.6297 24.2895 51.7228 24.738 51.9092 25.102C52.0998 25.466 52.3728 25.7412 52.7282 25.9275C53.0835 26.1095 53.5147 26.2005 54.0217 26.2005C54.2383 26.2005 54.4463 26.1788 54.6457 26.1355C54.845 26.0878 55.0357 26.0228 55.2177 25.9405C55.404 25.8582 55.5817 25.765 55.7507 25.661L55.8482 26.051C55.6012 26.285 55.3455 26.4822 55.0812 26.6425C54.8168 26.8028 54.546 26.9242 54.2687 27.0065C53.9957 27.0888 53.7205 27.13 53.4432 27.13C52.8668 27.13 52.3598 27.0043 51.9222 26.753C51.4888 26.5017 51.1487 26.1485 50.9017 25.6935C50.659 25.2385 50.5377 24.7012 50.5377 24.0815C50.5377 23.4618 50.6525 22.9093 50.8822 22.424C51.1162 21.9387 51.4455 21.5573 51.8702 21.28C52.2948 21.0027 52.7975 20.864 53.3782 20.864ZM59.425 20.864C59.7023 20.864 59.9623 20.89 60.205 20.942C60.452 20.9897 60.7315 21.072 61.0435 21.189L61.18 22.8075H60.647L59.9645 21.215L60.6535 21.8325C60.4282 21.7112 60.2093 21.6223 59.997 21.566C59.7847 21.5053 59.5767 21.475 59.373 21.475C58.957 21.475 58.6363 21.5487 58.411 21.696C58.19 21.839 58.0795 22.0448 58.0795 22.3135C58.0795 22.5605 58.151 22.7533 58.294 22.892C58.437 23.0263 58.6255 23.1347 58.8595 23.217C59.0978 23.295 59.3557 23.373 59.633 23.451C59.841 23.5117 60.0468 23.581 60.2505 23.659C60.4585 23.737 60.647 23.841 60.816 23.971C60.9893 24.101 61.128 24.27 61.232 24.478C61.336 24.6817 61.388 24.9417 61.388 25.258C61.388 25.661 61.2862 26.0012 61.0825 26.2785C60.8832 26.5558 60.5972 26.766 60.2245 26.909C59.8518 27.0477 59.4055 27.117 58.8855 27.117C58.5952 27.117 58.3048 27.0932 58.0145 27.0455C57.7285 27.0022 57.4728 26.935 57.2475 26.844L56.9615 25.1475H57.5205L58.359 26.857L57.5595 26.2785C57.7242 26.3435 57.8758 26.3933 58.0145 26.428C58.1532 26.4627 58.2853 26.4865 58.411 26.4995C58.541 26.5082 58.671 26.5125 58.801 26.5125C59.321 26.5125 59.7175 26.428 59.9905 26.259C60.2635 26.09 60.4 25.8365 60.4 25.4985C60.4 25.2818 60.3437 25.1085 60.231 24.9785C60.1227 24.8442 59.9775 24.738 59.7955 24.66C59.6178 24.582 59.4228 24.517 59.2105 24.465C58.9982 24.4087 58.7902 24.348 58.5865 24.283C58.3178 24.1963 58.0708 24.0902 57.8455 23.9645C57.6245 23.8345 57.449 23.6568 57.319 23.4315C57.189 23.2062 57.124 22.9115 57.124 22.5475C57.124 22.1878 57.2193 21.8845 57.41 21.6375C57.6007 21.3862 57.8693 21.1955 58.216 21.0655C58.5627 20.9312 58.9657 20.864 59.425 20.864ZM64.3024 25.245C64.3024 25.5787 64.3956 25.8192 64.5819 25.9665C64.7726 26.1138 65.0564 26.1875 65.4334 26.1875C65.6024 26.1875 65.7844 26.1723 65.9794 26.142C66.1788 26.1073 66.3911 26.0575 66.6164 25.9925V26.402C66.3261 26.584 66.0726 26.7292 65.8559 26.8375C65.6393 26.9415 65.4443 27.013 65.2709 27.052C65.0976 27.0953 64.9308 27.117 64.7704 27.117C64.4714 27.117 64.2028 27.0628 63.9644 26.9545C63.7304 26.8462 63.5463 26.6858 63.4119 26.4735C63.2776 26.2568 63.2104 25.9882 63.2104 25.6675V21.93L62.2809 21.501V21.254C62.4456 21.1803 62.5929 21.1088 62.7229 21.0395C62.8573 20.9658 62.9786 20.89 63.0869 20.812C63.1996 20.734 63.3036 20.6538 63.3989 20.5715C63.4943 20.4848 63.5874 20.3917 63.6784 20.292C63.7738 20.1923 63.8691 20.0818 63.9644 19.9605H64.3024V21.202V25.245ZM63.8799 21.7675L63.8929 20.994H66.4539L66.3954 21.7675H63.8799ZM72.9582 20.864C73.2355 20.864 73.4955 20.89 73.7382 20.942C73.9852 20.9897 74.2647 21.072 74.5767 21.189L74.7132 22.8075H74.1802L73.4977 21.215L74.1867 21.8325C73.9614 21.7112 73.7425 21.6223 73.5302 21.566C73.3179 21.5053 73.1099 21.475 72.9062 21.475C72.4902 21.475 72.1695 21.5487 71.9442 21.696C71.7232 21.839 71.6127 22.0448 71.6127 22.3135C71.6127 22.5605 71.6842 22.7533 71.8272 22.892C71.9702 23.0263 72.1587 23.1347 72.3927 23.217C72.631 23.295 72.8889 23.373 73.1662 23.451C73.3742 23.5117 73.58 23.581 73.7837 23.659C73.9917 23.737 74.1802 23.841 74.3492 23.971C74.5225 24.101 74.6612 24.27 74.7652 24.478C74.8692 24.6817 74.9212 24.9417 74.9212 25.258C74.9212 25.661 74.8194 26.0012 74.6157 26.2785C74.4164 26.5558 74.1304 26.766 73.7577 26.909C73.385 27.0477 72.9387 27.117 72.4187 27.117C72.1284 27.117 71.838 27.0932 71.5477 27.0455C71.2617 27.0022 71.006 26.935 70.7807 26.844L70.4947 25.1475H71.0537L71.8922 26.857L71.0927 26.2785C71.2574 26.3435 71.409 26.3933 71.5477 26.428C71.6864 26.4627 71.8185 26.4865 71.9442 26.4995C72.0742 26.5082 72.2042 26.5125 72.3342 26.5125C72.8542 26.5125 73.2507 26.428 73.5237 26.259C73.7967 26.09 73.9332 25.8365 73.9332 25.4985C73.9332 25.2818 73.8769 25.1085 73.7642 24.9785C73.6559 24.8442 73.5107 24.738 73.3287 24.66C73.151 24.582 72.956 24.517 72.7437 24.465C72.5314 24.4087 72.3234 24.348 72.1197 24.283C71.851 24.1963 71.604 24.0902 71.3787 23.9645C71.1577 23.8345 70.9822 23.6568 70.8522 23.4315C70.7222 23.2062 70.6572 22.9115 70.6572 22.5475C70.6572 22.1878 70.7525 21.8845 70.9432 21.6375C71.1339 21.3862 71.4025 21.1955 71.7492 21.0655C72.0959 20.9312 72.4989 20.864 72.9582 20.864ZM77.8356 25.245C77.8356 25.5787 77.9288 25.8192 78.1151 25.9665C78.3058 26.1138 78.5896 26.1875 78.9666 26.1875C79.1356 26.1875 79.3176 26.1723 79.5126 26.142C79.712 26.1073 79.9243 26.0575 80.1496 25.9925V26.402C79.8593 26.584 79.6058 26.7292 79.3891 26.8375C79.1725 26.9415 78.9775 27.013 78.8041 27.052C78.6308 27.0953 78.464 27.117 78.3036 27.117C78.0046 27.117 77.736 27.0628 77.4976 26.9545C77.2636 26.8462 77.0795 26.6858 76.9451 26.4735C76.8108 26.2568 76.7436 25.9882 76.7436 25.6675V21.93L75.8141 21.501V21.254C75.9788 21.1803 76.1261 21.1088 76.2561 21.0395C76.3905 20.9658 76.5118 20.89 76.6201 20.812C76.7328 20.734 76.8368 20.6538 76.9321 20.5715C77.0275 20.4848 77.1206 20.3917 77.2116 20.292C77.307 20.1923 77.4023 20.0818 77.4976 19.9605H77.8356V21.202V25.245ZM77.4131 21.7675L77.4261 20.994H79.9871L79.9286 21.7675H77.4131ZM85.0395 23.152L84.968 23.776C84.3613 23.8843 83.8695 23.9948 83.4925 24.1075C83.1198 24.2202 82.8338 24.3372 82.6345 24.4585C82.4351 24.5798 82.2986 24.7142 82.225 24.8615C82.1513 25.0045 82.1145 25.1648 82.1145 25.3425C82.1145 25.6458 82.2055 25.8777 82.3875 26.038C82.5738 26.194 82.8251 26.272 83.1415 26.272C83.3841 26.272 83.603 26.22 83.798 26.116C83.9973 26.012 84.1555 25.8755 84.2725 25.7065C84.3938 25.5332 84.4545 25.3425 84.4545 25.1345V22.788C84.4545 22.4023 84.3635 22.1077 84.1815 21.904C83.9995 21.7003 83.6853 21.5985 83.239 21.5985C83.0483 21.5985 82.8576 21.6158 82.667 21.6505C82.4763 21.6852 82.2943 21.735 82.121 21.8L82.5175 21.4295C82.4915 21.5768 82.4633 21.7133 82.433 21.839C82.407 21.9647 82.3745 22.0795 82.3355 22.1835C82.3008 22.2832 82.2596 22.372 82.212 22.45C82.1383 22.5627 82.0473 22.6385 81.939 22.6775C81.8306 22.7165 81.7093 22.736 81.575 22.736C81.3843 22.736 81.237 22.697 81.133 22.619C81.0333 22.5367 80.9835 22.4392 80.9835 22.3265C80.9835 22.1835 81.0528 22.0318 81.1915 21.8715C81.3345 21.7068 81.5273 21.5508 81.77 21.4035C82.017 21.2562 82.2986 21.137 82.615 21.046C82.9356 20.9507 83.2736 20.903 83.629 20.903C84.0926 20.903 84.4631 20.9702 84.7405 21.1045C85.0221 21.2388 85.2258 21.4338 85.3515 21.6895C85.4771 21.9452 85.54 22.2528 85.54 22.6125V25.6285C85.54 25.7758 85.5638 25.8993 85.6115 25.999C85.6591 26.0943 85.7263 26.1658 85.813 26.2135C85.904 26.2568 86.0166 26.2785 86.151 26.2785C86.2506 26.2785 86.3568 26.2655 86.4695 26.2395C86.5821 26.2092 86.697 26.1702 86.814 26.1225V26.5385C86.6233 26.7335 86.4196 26.8787 86.203 26.974C85.9863 27.065 85.7826 27.1105 85.592 27.1105C85.358 27.1105 85.1565 27.0563 84.9875 26.948C84.8185 26.8353 84.6885 26.6707 84.5975 26.454C84.5108 26.2373 84.4653 25.9708 84.461 25.6545L84.5065 25.6155C84.4501 25.9188 84.3375 26.1853 84.1685 26.415C84.0038 26.6403 83.7936 26.8158 83.538 26.9415C83.2866 27.0672 83.0028 27.13 82.6865 27.13C82.1578 27.13 81.7353 26.9957 81.419 26.727C81.107 26.454 80.951 26.064 80.951 25.557C80.951 25.2797 81.0051 25.0283 81.1135 24.803C81.2261 24.5733 81.4298 24.3632 81.7245 24.1725C82.0191 23.9818 82.433 23.8042 82.966 23.6395C83.5033 23.4748 84.1945 23.3123 85.0395 23.152ZM91.3897 20.8965C91.6063 20.8965 91.771 20.9528 91.8837 21.0655C91.9963 21.1782 92.0527 21.332 92.0527 21.527C92.0527 21.7523 92.0007 21.9322 91.8967 22.0665C91.7927 22.1965 91.6605 22.2615 91.5002 22.2615C91.3572 22.2615 91.2142 22.2485 91.0712 22.2225C90.9282 22.1965 90.783 22.1705 90.6357 22.1445C90.4927 22.1185 90.3432 22.1055 90.1872 22.1055C90.0875 22.1055 89.9813 22.1163 89.8687 22.138C89.756 22.1597 89.6433 22.1943 89.5307 22.242C89.418 22.2897 89.3097 22.3503 89.2057 22.424L89.0367 22.1965C89.34 21.9452 89.6087 21.7372 89.8427 21.5725C90.0767 21.4078 90.2868 21.2757 90.4732 21.176C90.6595 21.0763 90.8263 21.0048 90.9737 20.9615C91.1253 20.9182 91.264 20.8965 91.3897 20.8965ZM89.3877 22.138V26.311L90.4862 26.597V27H87.2687V26.597L88.3022 26.311V22.359C88.2458 22.307 88.1657 22.2528 88.0617 22.1965C87.9577 22.1358 87.8363 22.0708 87.6977 22.0015C87.559 21.9278 87.4095 21.8563 87.2492 21.787V21.579L89.0172 20.851H89.1992L89.3877 22.138Z" fill="#171717"/>
</svg>
