<svg width="108" height="47" viewBox="0 0 108 47" fill="none" xmlns="http://www.w3.org/2000/svg">
<path d="M0 23.5C0 10.5213 10.5213 0 23.5 0H102C105.314 0 108 2.68629 108 6V41C108 44.3137 105.314 47 102 47H23C10.2975 47 0 36.7025 0 24V23.5Z" fill="#171717"/>
<path d="M41.8651 26.155H42.4306L41.4491 27.0585L40.9616 27.013L41.2346 25.4075V18.979C41.1783 18.927 41.0894 18.8707 40.9681 18.81C40.8511 18.745 40.7124 18.6778 40.5521 18.6085C40.3918 18.5348 40.2271 18.4655 40.0581 18.4005V18.108L42.2291 17.601H42.4176L42.3266 18.7645V24.959C42.3266 25.2623 42.3916 25.5245 42.5216 25.7455C42.6516 25.9665 42.8423 26.1377 43.0936 26.259C43.3493 26.376 43.6548 26.4345 44.0101 26.4345C44.4131 26.4345 44.7554 26.3392 45.0371 26.1485C45.3231 25.9535 45.5419 25.6718 45.6936 25.3035C45.8453 24.9352 45.9211 24.491 45.9211 23.971C45.9211 23.49 45.8409 23.0848 45.6806 22.7555C45.5246 22.4262 45.2971 22.1792 44.9981 22.0145C44.7034 21.8455 44.3481 21.761 43.9321 21.761C43.6721 21.761 43.4186 21.7827 43.1716 21.826C42.9289 21.8693 42.6949 21.9343 42.4696 22.021C42.2486 22.1033 42.0384 22.2073 41.8391 22.333V21.7805C42.1424 21.6115 42.4198 21.4707 42.6711 21.358C42.9224 21.241 43.1499 21.1478 43.3536 21.0785C43.5616 21.0048 43.7523 20.9507 43.9256 20.916C44.0989 20.8813 44.2593 20.864 44.4066 20.864C44.9959 20.864 45.4943 20.9832 45.9016 21.2215C46.3089 21.4555 46.6166 21.787 46.8246 22.216C47.0369 22.6407 47.1431 23.1433 47.1431 23.724C47.1431 24.244 47.0651 24.7142 46.9091 25.1345C46.7574 25.5548 46.5386 25.9145 46.2526 26.2135C45.9709 26.5125 45.6351 26.7422 45.2451 26.9025C44.8551 27.0585 44.4283 27.1365 43.9646 27.1365C43.6829 27.1365 43.4208 27.1018 43.1781 27.0325C42.9354 26.9632 42.7058 26.857 42.4891 26.714C42.2724 26.571 42.0644 26.3847 41.8651 26.155ZM52.4413 23.152L52.3698 23.776C51.7632 23.8843 51.2713 23.9948 50.8943 24.1075C50.5217 24.2202 50.2357 24.3372 50.0363 24.4585C49.837 24.5798 49.7005 24.7142 49.6268 24.8615C49.5532 25.0045 49.5163 25.1648 49.5163 25.3425C49.5163 25.6458 49.6073 25.8777 49.7893 26.038C49.9757 26.194 50.227 26.272 50.5433 26.272C50.786 26.272 51.0048 26.22 51.1998 26.116C51.3992 26.012 51.5573 25.8755 51.6743 25.7065C51.7957 25.5332 51.8563 25.3425 51.8563 25.1345V22.788C51.8563 22.4023 51.7653 22.1077 51.5833 21.904C51.4013 21.7003 51.0872 21.5985 50.6408 21.5985C50.4502 21.5985 50.2595 21.6158 50.0688 21.6505C49.8782 21.6852 49.6962 21.735 49.5228 21.8L49.9193 21.4295C49.8933 21.5768 49.8652 21.7133 49.8348 21.839C49.8088 21.9647 49.7763 22.0795 49.7373 22.1835C49.7027 22.2832 49.6615 22.372 49.6138 22.45C49.5402 22.5627 49.4492 22.6385 49.3408 22.6775C49.2325 22.7165 49.1112 22.736 48.9768 22.736C48.7862 22.736 48.6388 22.697 48.5348 22.619C48.4352 22.5367 48.3853 22.4392 48.3853 22.3265C48.3853 22.1835 48.4547 22.0318 48.5933 21.8715C48.7363 21.7068 48.9292 21.5508 49.1718 21.4035C49.4188 21.2562 49.7005 21.137 50.0168 21.046C50.3375 20.9507 50.6755 20.903 51.0308 20.903C51.4945 20.903 51.865 20.9702 52.1423 21.1045C52.424 21.2388 52.6277 21.4338 52.7533 21.6895C52.879 21.9452 52.9418 22.2528 52.9418 22.6125V25.6285C52.9418 25.7758 52.9657 25.8993 53.0133 25.999C53.061 26.0943 53.1282 26.1658 53.2148 26.2135C53.3058 26.2568 53.4185 26.2785 53.5528 26.2785C53.6525 26.2785 53.7587 26.2655 53.8713 26.2395C53.984 26.2092 54.0988 26.1702 54.2158 26.1225V26.5385C54.0252 26.7335 53.8215 26.8787 53.6048 26.974C53.3882 27.065 53.1845 27.1105 52.9938 27.1105C52.7598 27.1105 52.5583 27.0563 52.3893 26.948C52.2203 26.8353 52.0903 26.6707 51.9993 26.454C51.9127 26.2373 51.8672 25.9708 51.8628 25.6545L51.9083 25.6155C51.852 25.9188 51.7393 26.1853 51.5703 26.415C51.4057 26.6403 51.1955 26.8158 50.9398 26.9415C50.6885 27.0672 50.4047 27.13 50.0883 27.13C49.5597 27.13 49.1372 26.9957 48.8208 26.727C48.5088 26.454 48.3528 26.064 48.3528 25.557C48.3528 25.2797 48.407 25.0283 48.5153 24.803C48.628 24.5733 48.8317 24.3632 49.1263 24.1725C49.421 23.9818 49.8348 23.8042 50.3678 23.6395C50.9052 23.4748 51.5963 23.3123 52.4413 23.152ZM58.1935 20.864C58.6268 20.864 58.967 20.9138 59.214 21.0135C59.4653 21.1088 59.643 21.2258 59.747 21.3645C59.8553 21.5032 59.9095 21.6375 59.9095 21.7675C59.9095 21.9062 59.8792 22.0318 59.8185 22.1445C59.7578 22.2572 59.6733 22.346 59.565 22.411C59.461 22.4717 59.3375 22.502 59.1945 22.502C59.1122 22.502 59.019 22.4717 58.915 22.411C58.8153 22.3503 58.7113 22.2745 58.603 22.1835C58.4947 22.0882 58.3842 21.995 58.2715 21.904C58.1588 21.813 58.0462 21.7372 57.9335 21.6765C57.8208 21.6115 57.7082 21.579 57.5955 21.579C57.2792 21.579 56.991 21.6548 56.731 21.8065C56.471 21.9582 56.263 22.19 56.107 22.502C55.9553 22.8097 55.8795 23.1975 55.8795 23.6655C55.8795 24.2028 55.9683 24.6622 56.146 25.0435C56.3237 25.4205 56.5772 25.7087 56.9065 25.908C57.2402 26.103 57.641 26.2005 58.109 26.2005C58.3863 26.2005 58.6637 26.155 58.941 26.064C59.2227 25.9687 59.5065 25.8343 59.7925 25.661L59.8835 26.051C59.6452 26.285 59.3982 26.4843 59.1425 26.649C58.8912 26.8093 58.6333 26.9285 58.369 27.0065C58.109 27.0888 57.8425 27.13 57.5695 27.13C57.0235 27.13 56.5403 27.0065 56.12 26.7595C55.704 26.5125 55.3768 26.1637 55.1385 25.713C54.9045 25.2623 54.7875 24.7337 54.7875 24.127C54.7875 23.646 54.8633 23.2062 55.015 22.8075C55.171 22.4088 55.3942 22.0665 55.6845 21.7805C55.9748 21.4902 56.3302 21.2648 56.7505 21.1045C57.1752 20.9442 57.6562 20.864 58.1935 20.864ZM64.2025 23.698L64.326 23.3145L66.9845 26.298L67.823 26.597V27H65.197V26.597L65.639 26.3565L63.559 24.0035H62.519V23.3015H63.7865L65.47 21.6505L64.573 21.4035V20.994H67.329V21.4035L66.4645 21.644L64.2025 23.698ZM62.7335 26.311L63.754 26.597V27H60.6145V26.597L61.648 26.311V18.979C61.5916 18.927 61.5028 18.8707 61.3815 18.81C61.2601 18.745 61.1193 18.6778 60.959 18.6085C60.803 18.5348 60.6405 18.4655 60.4715 18.4005V18.108L62.636 17.601H62.831L62.7335 18.7645V26.311Z" fill="white"/>
</svg>
