<svg width="106" height="47" viewBox="0 0 106 47" fill="none" xmlns="http://www.w3.org/2000/svg">
<path d="M0 6C0 2.68629 2.68629 0 6 0H82.5C95.4787 0 106 10.5213 106 23.5V23.5C106 36.4787 95.4787 47 82.5 47H6C2.68629 47 0 44.3137 0 41V6Z" fill="#171717"/>
<path d="M30.1282 30.556C29.6149 30.556 29.1645 30.5187 28.7772 30.444C28.3945 30.3693 28.0749 30.2597 27.8182 30.115C27.5615 29.9703 27.3679 29.793 27.2372 29.583C27.1112 29.3777 27.0482 29.142 27.0482 28.876C27.0482 28.6847 27.0972 28.5027 27.1952 28.33C27.2932 28.1573 27.4472 27.9987 27.6572 27.854C27.8719 27.7093 28.1449 27.5833 28.4762 27.476C28.8075 27.3687 29.2089 27.2847 29.6802 27.224H30.1072V27.378C29.6312 27.434 29.2555 27.525 28.9802 27.651C28.7095 27.777 28.5182 27.931 28.4062 28.113C28.2942 28.295 28.2382 28.498 28.2382 28.722C28.2382 28.9787 28.3059 29.1957 28.4412 29.373C28.5812 29.555 28.7982 29.6903 29.0922 29.779C29.3862 29.8723 29.7665 29.919 30.2332 29.919C30.7372 29.919 31.1642 29.8607 31.5142 29.744C31.8689 29.6273 32.1372 29.4663 32.3192 29.261C32.5059 29.0603 32.5992 28.8293 32.5992 28.568C32.5992 28.3907 32.5619 28.239 32.4872 28.113C32.4125 27.987 32.2842 27.882 32.1022 27.798C31.9202 27.714 31.6682 27.6487 31.3462 27.602C31.0289 27.5553 30.6229 27.5227 30.1282 27.504C29.6335 27.4853 29.2252 27.4363 28.9032 27.357C28.5859 27.2823 28.3362 27.182 28.1542 27.056C27.9722 26.9347 27.8439 26.7947 27.7692 26.636C27.6992 26.4773 27.6642 26.3047 27.6642 26.118C27.6642 25.8053 27.8135 25.5393 28.1122 25.32C28.4109 25.096 28.8519 24.9373 29.4352 24.844L29.5612 24.991C29.3045 25.019 29.1109 25.089 28.9802 25.201C28.8495 25.3083 28.7842 25.4623 28.7842 25.663C28.7842 25.775 28.8052 25.8753 28.8472 25.964C28.8892 26.0527 28.9779 26.1297 29.1132 26.195C29.2485 26.2557 29.4539 26.307 29.7292 26.349C30.0045 26.391 30.3732 26.4213 30.8352 26.44C31.3019 26.4587 31.7149 26.5053 32.0742 26.58C32.4335 26.65 32.7345 26.7573 32.9772 26.902C33.2245 27.042 33.4112 27.2217 33.5372 27.441C33.6632 27.6603 33.7262 27.9287 33.7262 28.246C33.7262 28.6707 33.5839 29.058 33.2992 29.408C33.0145 29.758 32.6039 30.0357 32.0672 30.241C31.5352 30.451 30.8889 30.556 30.1282 30.556ZM30.1352 25.11C29.6219 25.11 29.1645 25.0143 28.7632 24.823C28.3619 24.6317 28.0492 24.3633 27.8252 24.018C27.6012 23.668 27.4892 23.2643 27.4892 22.807C27.4892 22.3403 27.6012 21.9343 27.8252 21.589C28.0492 21.2437 28.3619 20.9753 28.7632 20.784C29.1645 20.5927 29.6219 20.497 30.1352 20.497C30.5225 20.497 30.8772 20.553 31.1992 20.665C31.5212 20.7723 31.7989 20.9287 32.0322 21.134C32.2655 21.3347 32.4475 21.5773 32.5782 21.862C32.7089 22.142 32.7742 22.4547 32.7742 22.8C32.7742 23.262 32.6622 23.668 32.4382 24.018C32.2142 24.3633 31.9039 24.6317 31.5072 24.823C31.1105 25.0143 30.6532 25.11 30.1352 25.11ZM30.1912 24.487C30.6112 24.487 30.9495 24.3493 31.2062 24.074C31.4629 23.794 31.5912 23.3903 31.5912 22.863C31.5912 22.3077 31.4605 21.8783 31.1992 21.575C30.9425 21.2717 30.5739 21.12 30.0932 21.12C29.6732 21.12 29.3325 21.2577 29.0712 21.533C28.8099 21.8083 28.6792 22.212 28.6792 22.744C28.6792 23.2947 28.8099 23.724 29.0712 24.032C29.3372 24.3353 29.7105 24.487 30.1912 24.487ZM31.1292 21.113L30.8352 20.609C31.1479 20.637 31.4419 20.6487 31.7172 20.644C31.9972 20.6393 32.2562 20.6253 32.4942 20.602C32.7322 20.5787 32.9492 20.5553 33.1452 20.532C33.3412 20.5087 33.5115 20.497 33.6562 20.497C33.7869 20.497 33.8849 20.539 33.9502 20.623C34.0202 20.707 34.0552 20.8377 34.0552 21.015C34.0552 21.2017 34.0085 21.3603 33.9152 21.491C33.8265 21.617 33.7192 21.68 33.5932 21.68C33.4812 21.68 33.3669 21.6543 33.2502 21.603C33.1335 21.5517 32.9889 21.4933 32.8162 21.428C32.6435 21.358 32.4219 21.295 32.1512 21.239C31.8852 21.1783 31.5445 21.1363 31.1292 21.113ZM37.7156 26.433C38.1216 26.433 38.4739 26.3467 38.7726 26.174C39.0759 25.9967 39.3092 25.7283 39.4726 25.369C39.6406 25.0097 39.7246 24.5477 39.7246 23.983C39.7246 23.3763 39.6452 22.8677 39.4866 22.457C39.3326 22.0417 39.1062 21.729 38.8076 21.519C38.5136 21.309 38.1566 21.204 37.7366 21.204C37.3306 21.204 36.9759 21.2903 36.6726 21.463C36.3739 21.6357 36.1406 21.904 35.9726 22.268C35.8092 22.6273 35.7276 23.087 35.7276 23.647C35.7276 24.2537 35.8046 24.7647 35.9586 25.18C36.1172 25.5907 36.3459 25.9033 36.6446 26.118C36.9432 26.328 37.3002 26.433 37.7156 26.433ZM37.6946 27.14C37.0459 27.14 36.4812 27.0023 36.0006 26.727C35.5199 26.4517 35.1466 26.069 34.8806 25.579C34.6146 25.0843 34.4816 24.5127 34.4816 23.864C34.4816 23.2013 34.6192 22.618 34.8946 22.114C35.1746 21.6053 35.5596 21.2087 36.0496 20.924C36.5442 20.6393 37.1136 20.497 37.7576 20.497C38.4062 20.497 38.9709 20.6347 39.4516 20.91C39.9322 21.1807 40.3056 21.5633 40.5716 22.058C40.8376 22.548 40.9706 23.1197 40.9706 23.773C40.9706 24.4357 40.8306 25.0213 40.5506 25.53C40.2752 26.034 39.8902 26.4283 39.3956 26.713C38.9056 26.9977 38.3386 27.14 37.6946 27.14ZM45.3855 26.433C45.7915 26.433 46.1438 26.3467 46.4425 26.174C46.7458 25.9967 46.9791 25.7283 47.1425 25.369C47.3105 25.0097 47.3945 24.5477 47.3945 23.983C47.3945 23.3763 47.3151 22.8677 47.1565 22.457C47.0025 22.0417 46.7761 21.729 46.4775 21.519C46.1835 21.309 45.8265 21.204 45.4065 21.204C45.0005 21.204 44.6458 21.2903 44.3425 21.463C44.0438 21.6357 43.8105 21.904 43.6425 22.268C43.4791 22.6273 43.3975 23.087 43.3975 23.647C43.3975 24.2537 43.4745 24.7647 43.6285 25.18C43.7871 25.5907 44.0158 25.9033 44.3145 26.118C44.6131 26.328 44.9701 26.433 45.3855 26.433ZM45.3645 27.14C44.7158 27.14 44.1511 27.0023 43.6705 26.727C43.1898 26.4517 42.8165 26.069 42.5505 25.579C42.2845 25.0843 42.1515 24.5127 42.1515 23.864C42.1515 23.2013 42.2891 22.618 42.5645 22.114C42.8445 21.6053 43.2295 21.2087 43.7195 20.924C44.2141 20.6393 44.7835 20.497 45.4275 20.497C46.0761 20.497 46.6408 20.6347 47.1215 20.91C47.6021 21.1807 47.9755 21.5633 48.2415 22.058C48.5075 22.548 48.6405 23.1197 48.6405 23.773C48.6405 24.4357 48.5005 25.0213 48.2205 25.53C47.9451 26.034 47.5601 26.4283 47.0655 26.713C46.5755 26.9977 46.0085 27.14 45.3645 27.14ZM54.9314 22.66C54.9314 22.226 54.7937 21.876 54.5184 21.61C54.2431 21.3393 53.8137 21.204 53.2304 21.204C52.7777 21.204 52.3927 21.309 52.0754 21.519C51.7627 21.729 51.5247 22.0277 51.3614 22.415C51.1981 22.8023 51.1164 23.262 51.1164 23.794C51.1164 24.326 51.2027 24.7717 51.3754 25.131C51.5481 25.4903 51.7907 25.761 52.1034 25.943C52.4161 26.125 52.7894 26.216 53.2234 26.216C53.6061 26.216 53.9747 26.16 54.3294 26.048C54.6887 25.9313 55.0434 25.7563 55.3934 25.523V25.936C54.9967 26.1973 54.6607 26.4097 54.3854 26.573C54.1147 26.7317 53.8814 26.853 53.6854 26.937C53.4941 27.0163 53.3214 27.07 53.1674 27.098C53.0181 27.126 52.8641 27.14 52.7054 27.14C52.0754 27.14 51.5457 27.014 51.1164 26.762C50.6917 26.51 50.3697 26.1577 50.1504 25.705C49.9357 25.2477 49.8284 24.718 49.8284 24.116C49.8284 23.556 49.9194 23.0543 50.1014 22.611C50.2881 22.163 50.5424 21.7827 50.8644 21.47C51.1864 21.1527 51.5597 20.9123 51.9844 20.749C52.4137 20.581 52.8687 20.497 53.3494 20.497C53.6154 20.497 53.8651 20.518 54.0984 20.56C54.3364 20.5973 54.5767 20.6603 54.8194 20.749C55.0621 20.8377 55.3211 20.9567 55.5964 21.106L54.9314 21.484V18.25C54.8754 18.1987 54.7844 18.1427 54.6584 18.082C54.5371 18.0167 54.4017 17.9513 54.2524 17.886C54.1031 17.8207 53.9607 17.76 53.8254 17.704V17.438L55.9744 16.913H56.1634L56.0724 18.152V25.789C56.1144 25.8263 56.1774 25.8707 56.2614 25.922C56.3454 25.9687 56.4364 26.0177 56.5344 26.069C56.6371 26.1157 56.7374 26.16 56.8354 26.202C56.9334 26.2393 57.0197 26.2673 57.0944 26.286V26.524L55.3514 27.119H55.1694L54.9314 25.901V22.66ZM59.1115 26.188H59.7485L58.6845 27.077L58.2155 27.021L58.4815 25.341V18.383C58.4208 18.327 58.3275 18.264 58.2015 18.194C58.0802 18.124 57.9378 18.0517 57.7745 17.977C57.6112 17.8977 57.4385 17.8207 57.2565 17.746V17.473L59.5245 16.913H59.7205L59.6225 18.145V24.879C59.6225 25.1963 59.6925 25.4717 59.8325 25.705C59.9725 25.9337 60.1755 26.111 60.4415 26.237C60.7122 26.363 61.0365 26.426 61.4145 26.426C61.8392 26.426 62.2008 26.3233 62.4995 26.118C62.8028 25.908 63.0338 25.607 63.1925 25.215C63.3558 24.8183 63.4375 24.347 63.4375 23.801C63.4375 23.283 63.3512 22.8467 63.1785 22.492C63.0105 22.1373 62.7678 21.869 62.4505 21.687C62.1378 21.505 61.7645 21.414 61.3305 21.414C61.0505 21.414 60.7798 21.4373 60.5185 21.484C60.2618 21.5307 60.0145 21.6007 59.7765 21.694C59.5432 21.7873 59.3238 21.9017 59.1185 22.037V21.463C59.4312 21.2857 59.7182 21.1363 59.9795 21.015C60.2408 20.8937 60.4788 20.7957 60.6935 20.721C60.9128 20.6417 61.1158 20.5857 61.3025 20.553C61.4938 20.5157 61.6688 20.497 61.8275 20.497C62.4528 20.497 62.9802 20.623 63.4095 20.875C63.8435 21.1223 64.1702 21.4723 64.3895 21.925C64.6135 22.3777 64.7255 22.9097 64.7255 23.521C64.7255 24.0717 64.6415 24.571 64.4735 25.019C64.3102 25.4623 64.0745 25.8427 63.7665 26.16C63.4632 26.4773 63.1038 26.7223 62.6885 26.895C62.2732 27.063 61.8158 27.147 61.3165 27.147C61.0365 27.147 60.7705 27.112 60.5185 27.042C60.2665 26.9767 60.0238 26.874 59.7905 26.734C59.5618 26.594 59.3355 26.412 59.1115 26.188ZM69.5184 25.992L68.8184 27.217L66.0814 21.393L65.1364 21.05V20.637H68.3214V21.05L67.3414 21.351L69.5184 25.992ZM66.7674 30.556C66.4687 30.556 66.2284 30.4813 66.0464 30.332C65.8691 30.1827 65.7804 29.9773 65.7804 29.716C65.7804 29.5853 65.8037 29.471 65.8504 29.373C65.9017 29.2797 65.9647 29.205 66.0394 29.149C66.1187 29.093 66.1981 29.065 66.2774 29.065C66.3661 29.065 66.4617 29.0837 66.5644 29.121C66.6717 29.1583 66.7837 29.1957 66.9004 29.233C67.0217 29.275 67.1361 29.296 67.2434 29.296C67.3834 29.296 67.5117 29.2633 67.6284 29.198C67.7451 29.1327 67.8571 29.0207 67.9644 28.862C68.0764 28.708 68.1907 28.4957 68.3074 28.225L68.9444 26.636L69.2104 25.957L70.9604 21.316L69.9874 21.05V20.637H72.5144V21.05L71.7304 21.302L68.8674 28.456C68.6574 28.9833 68.4497 29.3987 68.2444 29.702C68.0391 30.01 67.8174 30.2293 67.5794 30.36C67.3414 30.4907 67.0707 30.556 66.7674 30.556ZM75.9642 20.497C76.5195 20.497 76.9815 20.6137 77.3502 20.847C77.7235 21.0803 78.0105 21.4233 78.2112 21.876C78.4119 22.324 78.5285 22.8747 78.5612 23.528H73.9062V22.898L77.7702 22.786L77.3152 23.031C77.2919 22.6343 77.2219 22.3007 77.1052 22.03C76.9932 21.7547 76.8369 21.547 76.6362 21.407C76.4355 21.2623 76.1835 21.19 75.8802 21.19C75.5209 21.19 75.2082 21.2787 74.9422 21.456C74.6762 21.6333 74.4709 21.897 74.3262 22.247C74.1815 22.597 74.1092 23.0333 74.1092 23.556C74.1092 24.1207 74.2095 24.599 74.4102 24.991C74.6155 25.3783 74.9072 25.6723 75.2852 25.873C75.6632 26.0737 76.1205 26.174 76.6572 26.174C76.8765 26.174 77.0889 26.1507 77.2942 26.104C77.4995 26.0527 77.6979 25.9827 77.8892 25.894C78.0852 25.8053 78.2719 25.7003 78.4492 25.579L78.5682 25.957C78.3069 26.2137 78.0385 26.4307 77.7632 26.608C77.4879 26.7853 77.2032 26.9183 76.9092 27.007C76.6199 27.0957 76.3235 27.14 76.0202 27.14C75.4182 27.14 74.8862 27.007 74.4242 26.741C73.9669 26.4703 73.6075 26.0923 73.3462 25.607C73.0849 25.1217 72.9542 24.5547 72.9542 23.906C72.9542 23.2527 73.0755 22.6693 73.3182 22.156C73.5655 21.6427 73.9132 21.239 74.3612 20.945C74.8139 20.6463 75.3482 20.497 75.9642 20.497Z" fill="white"/>
</svg>
