<svg width="106" height="47" viewBox="0 0 106 47" fill="none" xmlns="http://www.w3.org/2000/svg">
<path d="M0 6C0 2.68629 2.68629 0 6 0H82.5C95.4787 0 106 10.5213 106 23.5V23.5C106 36.4787 95.4787 47 82.5 47H6C2.68629 47 0 44.3137 0 41V6Z" fill="white"/>
<path d="M41.489 20.864C42.0263 20.864 42.4727 20.9788 42.828 21.2085C43.1833 21.4338 43.4542 21.7632 43.6405 22.1965C43.8268 22.6298 43.933 23.1585 43.959 23.7825H39.552L39.5455 23.1585L43.1985 23.0675L42.7825 23.2885C42.7608 22.9028 42.6958 22.5822 42.5875 22.3265C42.4792 22.0665 42.3275 21.8715 42.1325 21.7415C41.9418 21.6115 41.7035 21.5465 41.4175 21.5465C41.0752 21.5465 40.7783 21.6288 40.527 21.7935C40.2757 21.9538 40.0807 22.1987 39.942 22.528C39.8077 22.853 39.7405 23.2625 39.7405 23.7565C39.7405 24.2895 39.8337 24.738 40.02 25.102C40.2107 25.466 40.4837 25.7412 40.839 25.9275C41.1943 26.1095 41.6255 26.2005 42.1325 26.2005C42.3492 26.2005 42.5572 26.1788 42.7565 26.1355C42.9558 26.0878 43.1465 26.0228 43.3285 25.9405C43.5148 25.8582 43.6925 25.765 43.8615 25.661L43.959 26.051C43.712 26.285 43.4563 26.4822 43.192 26.6425C42.9277 26.8028 42.6568 26.9242 42.3795 27.0065C42.1065 27.0888 41.8313 27.13 41.554 27.13C40.9777 27.13 40.4707 27.0043 40.033 26.753C39.5997 26.5017 39.2595 26.1485 39.0125 25.6935C38.7698 25.2385 38.6485 24.7012 38.6485 24.0815C38.6485 23.4618 38.7633 22.9093 38.993 22.424C39.227 21.9387 39.5563 21.5573 39.981 21.28C40.4057 21.0027 40.9083 20.864 41.489 20.864ZM50.4004 26.2785L51.2259 26.5905V27H48.3139V26.5905L49.1329 26.324L47.5924 24.374L47.4234 24.1855L45.4344 21.722L44.6089 21.4035V20.994H47.5209V21.4035L46.7019 21.67L48.0994 23.451L48.2554 23.6265L50.4004 26.2785ZM47.8264 24.3025L46.0649 26.3565L46.8709 26.5905V27H44.5439V26.5905L45.2459 26.35L47.4429 23.88L47.8004 23.5875L49.4774 21.631L48.6844 21.4035V20.994H50.9984V21.4035L50.2899 21.6375L48.1839 24.01L47.8264 24.3025ZM53.6447 25.245C53.6447 25.5787 53.7379 25.8192 53.9242 25.9665C54.1149 26.1138 54.3987 26.1875 54.7757 26.1875C54.9447 26.1875 55.1267 26.1723 55.3217 26.142C55.5211 26.1073 55.7334 26.0575 55.9587 25.9925V26.402C55.6684 26.584 55.4149 26.7292 55.1982 26.8375C54.9816 26.9415 54.7866 27.013 54.6132 27.052C54.4399 27.0953 54.2731 27.117 54.1127 27.117C53.8137 27.117 53.5451 27.0628 53.3067 26.9545C53.0727 26.8462 52.8886 26.6858 52.7542 26.4735C52.6199 26.2568 52.5527 25.9882 52.5527 25.6675V21.93L51.6232 21.501V21.254C51.7879 21.1803 51.9352 21.1088 52.0652 21.0395C52.1996 20.9658 52.3209 20.89 52.4292 20.812C52.5419 20.734 52.6459 20.6538 52.7412 20.5715C52.8366 20.4848 52.9297 20.3917 53.0207 20.292C53.1161 20.1923 53.2114 20.0818 53.3067 19.9605H53.6447V21.202V25.245ZM53.2222 21.7675L53.2352 20.994H55.7962L55.7377 21.7675H53.2222ZM60.7114 20.8965C60.9281 20.8965 61.0928 20.9528 61.2054 21.0655C61.3181 21.1782 61.3744 21.332 61.3744 21.527C61.3744 21.7523 61.3224 21.9322 61.2184 22.0665C61.1144 22.1965 60.9823 22.2615 60.8219 22.2615C60.6789 22.2615 60.5359 22.2485 60.3929 22.2225C60.2499 22.1965 60.1048 22.1705 59.9574 22.1445C59.8144 22.1185 59.6649 22.1055 59.5089 22.1055C59.4093 22.1055 59.3031 22.1163 59.1904 22.138C59.0778 22.1597 58.9651 22.1943 58.8524 22.242C58.7398 22.2897 58.6314 22.3503 58.5274 22.424L58.3584 22.1965C58.6618 21.9452 58.9304 21.7372 59.1644 21.5725C59.3984 21.4078 59.6086 21.2757 59.7949 21.176C59.9813 21.0763 60.1481 21.0048 60.2954 20.9615C60.4471 20.9182 60.5858 20.8965 60.7114 20.8965ZM58.7094 22.138V26.311L59.8079 26.597V27H56.5904V26.597L57.6239 26.311V22.359C57.5676 22.307 57.4874 22.2528 57.3834 22.1965C57.2794 22.1358 57.1581 22.0708 57.0194 22.0015C56.8808 21.9278 56.7313 21.8563 56.5709 21.787V21.579L58.3389 20.851H58.5209L58.7094 22.138ZM66.1298 23.152L66.0583 23.776C65.4516 23.8843 64.9598 23.9948 64.5828 24.1075C64.2101 24.2202 63.9241 24.3372 63.7248 24.4585C63.5255 24.5798 63.389 24.7142 63.3153 24.8615C63.2416 25.0045 63.2048 25.1648 63.2048 25.3425C63.2048 25.6458 63.2958 25.8777 63.4778 26.038C63.6641 26.194 63.9155 26.272 64.2318 26.272C64.4745 26.272 64.6933 26.22 64.8883 26.116C65.0876 26.012 65.2458 25.8755 65.3628 25.7065C65.4841 25.5332 65.5448 25.3425 65.5448 25.1345V22.788C65.5448 22.4023 65.4538 22.1077 65.2718 21.904C65.0898 21.7003 64.7756 21.5985 64.3293 21.5985C64.1386 21.5985 63.948 21.6158 63.7573 21.6505C63.5666 21.6852 63.3846 21.735 63.2113 21.8L63.6078 21.4295C63.5818 21.5768 63.5536 21.7133 63.5233 21.839C63.4973 21.9647 63.4648 22.0795 63.4258 22.1835C63.3911 22.2832 63.35 22.372 63.3023 22.45C63.2286 22.5627 63.1376 22.6385 63.0293 22.6775C62.921 22.7165 62.7996 22.736 62.6653 22.736C62.4746 22.736 62.3273 22.697 62.2233 22.619C62.1236 22.5367 62.0738 22.4392 62.0738 22.3265C62.0738 22.1835 62.1431 22.0318 62.2818 21.8715C62.4248 21.7068 62.6176 21.5508 62.8603 21.4035C63.1073 21.2562 63.389 21.137 63.7053 21.046C64.026 20.9507 64.364 20.903 64.7193 20.903C65.183 20.903 65.5535 20.9702 65.8308 21.1045C66.1125 21.2388 66.3161 21.4338 66.4418 21.6895C66.5675 21.9452 66.6303 22.2528 66.6303 22.6125V25.6285C66.6303 25.7758 66.6541 25.8993 66.7018 25.999C66.7495 26.0943 66.8166 26.1658 66.9033 26.2135C66.9943 26.2568 67.107 26.2785 67.2413 26.2785C67.341 26.2785 67.4471 26.2655 67.5598 26.2395C67.6725 26.2092 67.7873 26.1702 67.9043 26.1225V26.5385C67.7136 26.7335 67.51 26.8787 67.2933 26.974C67.0766 27.065 66.873 27.1105 66.6823 27.1105C66.4483 27.1105 66.2468 27.0563 66.0778 26.948C65.9088 26.8353 65.7788 26.6707 65.6878 26.454C65.6011 26.2373 65.5556 25.9708 65.5513 25.6545L65.5968 25.6155C65.5405 25.9188 65.4278 26.1853 65.2588 26.415C65.0941 26.6403 64.884 26.8158 64.6283 26.9415C64.377 27.0672 64.0931 27.13 63.7768 27.13C63.2481 27.13 62.8256 26.9957 62.5093 26.727C62.1973 26.454 62.0413 26.064 62.0413 25.557C62.0413 25.2797 62.0955 25.0283 62.2038 24.803C62.3165 24.5733 62.5201 24.3632 62.8148 24.1725C63.1095 23.9818 63.5233 23.8042 64.0563 23.6395C64.5936 23.4748 65.2848 23.3123 66.1298 23.152Z" fill="#171717"/>
</svg>
