<svg width="322" height="250" viewBox="0 0 322 250" fill="none" xmlns="http://www.w3.org/2000/svg">
<g filter="url(#filter0_d_66_44)">
<rect x="8" y="8" width="306" height="234" rx="6" fill="#171717"/>
</g>
<path d="M100.938 54.0625C100.896 54.0208 100.875 53.9323 100.875 53.7969C100.875 53.5885 100.896 53.4844 100.938 53.4844C101.021 53.4844 101.141 53.4688 101.297 53.4375C101.453 53.4062 101.599 53.3646 101.734 53.3125C101.87 53.25 101.948 53.1927 101.969 53.1406C102.031 52.901 102.062 52.4427 102.062 51.7656V45.8594C102.062 45.276 102.031 44.8698 101.969 44.6406C101.948 44.5781 101.865 44.5156 101.719 44.4531C101.583 44.3802 101.438 44.3229 101.281 44.2812C101.125 44.2292 101.005 44.2031 100.922 44.2031C100.88 44.2031 100.859 44.1094 100.859 43.9219C100.859 43.7552 100.875 43.6562 100.906 43.625C101.323 43.6458 101.719 43.6667 102.094 43.6875C102.479 43.6979 102.849 43.7031 103.203 43.7031C103.661 43.7031 104.469 43.6875 105.625 43.6562C106.208 43.6458 106.719 43.6406 107.156 43.6406C107.594 43.6302 107.958 43.625 108.25 43.625C108.26 43.6771 108.302 43.8958 108.375 44.2812C108.448 44.6667 108.557 45.2188 108.703 45.9375C108.651 45.9896 108.531 46.0156 108.344 46.0156C108.229 46.0156 108.156 45.9792 108.125 45.9062C108 45.6354 107.812 45.3958 107.562 45.1875C107.323 44.9688 107.057 44.7969 106.766 44.6719C106.484 44.5365 106.208 44.4688 105.938 44.4688H105.344C104.677 44.4688 104.339 44.5365 104.328 44.6719C104.307 44.7969 104.286 44.9635 104.266 45.1719C104.255 45.3698 104.25 45.6094 104.25 45.8906V48.2969C104.25 48.3594 104.474 48.3906 104.922 48.3906H105.75C106.406 48.3906 106.76 48.3698 106.812 48.3281C106.865 48.276 106.906 48.125 106.938 47.875C106.958 47.7083 106.99 47.5573 107.031 47.4219C107.042 47.349 107.12 47.3125 107.266 47.3125C107.443 47.3125 107.557 47.3385 107.609 47.3906V50.3438C107.568 50.3854 107.458 50.4062 107.281 50.4062C107.146 50.4062 107.062 50.3646 107.031 50.2812C106.906 49.875 106.823 49.625 106.781 49.5312C106.74 49.4583 106.708 49.4271 106.688 49.4375C106.677 49.4375 106.646 49.4167 106.594 49.375C106.448 49.2917 106.042 49.25 105.375 49.25C104.625 49.25 104.25 49.2969 104.25 49.3906V51.7969C104.25 52.2865 104.292 52.6562 104.375 52.9062C104.417 53.0729 104.771 53.1562 105.438 53.1562H105.844C106.49 53.1562 107.073 53.0208 107.594 52.75C107.771 52.6562 107.969 52.4792 108.188 52.2188C108.417 51.9583 108.594 51.6667 108.719 51.3438C108.74 51.2812 108.812 51.25 108.938 51.25C109.188 51.25 109.344 51.2812 109.406 51.3438C108.885 52.7812 108.604 53.6771 108.562 54.0312C108.302 54.0312 107.958 54.026 107.531 54.0156C107.115 54.0156 106.615 54.0104 106.031 54C105.458 53.9896 104.938 53.9792 104.469 53.9688C104 53.9479 103.583 53.9479 103.219 53.9688L100.938 54.0625ZM110.172 54.0625C110.13 54.0208 110.109 53.9115 110.109 53.7344C110.109 53.5677 110.13 53.4844 110.172 53.4844C110.255 53.4844 110.37 53.4635 110.516 53.4219C110.672 53.3698 110.818 53.3125 110.953 53.25C111.099 53.1875 111.177 53.1354 111.188 53.0938C111.26 52.8021 111.297 52.4062 111.297 51.9062V49.7656C111.297 49.1823 111.203 48.7917 111.016 48.5938C110.932 48.4896 110.818 48.4167 110.672 48.375C110.536 48.3333 110.417 48.3073 110.312 48.2969C110.208 48.276 110.156 48.2552 110.156 48.2344C110.156 47.8698 110.182 47.6875 110.234 47.6875C110.505 47.6875 110.891 47.6302 111.391 47.5156C111.891 47.3906 112.458 47.2604 113.094 47.125L113.172 47.1094C113.182 47.099 113.203 47.0938 113.234 47.0938L113.266 47.0781C113.318 47.0781 113.37 47.1146 113.422 47.1875C113.484 47.25 113.51 47.3021 113.5 47.3438L113.438 47.8281C113.438 47.8802 113.443 47.9115 113.453 47.9219C113.474 47.9219 113.51 47.8958 113.562 47.8438C114.135 47.3021 114.859 47.0312 115.734 47.0312C116.339 47.0312 116.828 47.2865 117.203 47.7969C117.589 48.3073 117.781 49.0833 117.781 50.125V51.6719C117.781 52.3594 117.818 52.8333 117.891 53.0938C117.911 53.1354 117.99 53.1875 118.125 53.25C118.26 53.3125 118.401 53.3698 118.547 53.4219C118.703 53.4635 118.812 53.4844 118.875 53.4844C118.896 53.4844 118.911 53.526 118.922 53.6094C118.932 53.6927 118.938 53.7812 118.938 53.875C118.938 53.9688 118.927 54.0312 118.906 54.0625C118.844 54.0625 118.724 54.0521 118.547 54.0312C118.37 54.0208 118.161 54.0104 117.922 54C117.693 53.9792 117.474 53.9635 117.266 53.9531C117.057 53.9427 116.891 53.9375 116.766 53.9375C116.599 53.9375 116.365 53.9479 116.062 53.9688C115.771 53.9896 115.49 54.0052 115.219 54.0156C114.948 54.0365 114.771 54.0521 114.688 54.0625C114.646 54.0208 114.625 53.9115 114.625 53.7344C114.625 53.5677 114.646 53.4844 114.688 53.4844C114.771 53.4844 114.88 53.4635 115.016 53.4219C115.161 53.3698 115.297 53.3125 115.422 53.25C115.557 53.1875 115.63 53.1354 115.641 53.0938C115.714 52.8021 115.75 52.4062 115.75 51.9062V50.5C115.75 49.7292 115.641 49.1823 115.422 48.8594C115.214 48.526 114.875 48.3594 114.406 48.3594C114.083 48.3594 113.823 48.4219 113.625 48.5469C113.427 48.6615 113.328 48.8281 113.328 49.0469V51.6719C113.328 52.3594 113.365 52.8333 113.438 53.0938C113.458 53.1354 113.531 53.1875 113.656 53.25C113.781 53.3125 113.917 53.3698 114.062 53.4219C114.208 53.4635 114.307 53.4844 114.359 53.4844C114.38 53.4844 114.396 53.526 114.406 53.6094C114.417 53.6927 114.422 53.7812 114.422 53.875C114.422 53.9688 114.411 54.0312 114.391 54.0625C114.307 54.0521 114.13 54.0365 113.859 54.0156C113.589 54.0052 113.302 53.9896 113 53.9688C112.708 53.9479 112.479 53.9375 112.312 53.9375C112.188 53.9375 112.016 53.9427 111.797 53.9531C111.589 53.9635 111.37 53.9792 111.141 54C110.911 54.0104 110.708 54.0208 110.531 54.0312C110.354 54.0521 110.234 54.0625 110.172 54.0625ZM122.719 54.1094C122.146 54.1094 121.651 53.9323 121.234 53.5781C120.828 53.2135 120.625 52.6302 120.625 51.8281V48.2188H119.609C119.526 48.2188 119.484 48.0573 119.484 47.7344C119.484 47.6615 119.495 47.6042 119.516 47.5625C119.807 47.4167 120.068 47.276 120.297 47.1406C120.536 46.9948 120.745 46.8542 120.922 46.7188C121.38 46.3542 121.714 46.0781 121.922 45.8906C122.13 45.7031 122.24 45.6042 122.25 45.5938C122.333 45.5938 122.422 45.6146 122.516 45.6562C122.609 45.6875 122.656 45.724 122.656 45.7656V47.2969H124.344C124.427 47.2969 124.469 47.349 124.469 47.4531C124.469 47.7656 124.417 48.0208 124.312 48.2188H122.656V51.9219C122.656 52.7135 122.938 53.1094 123.5 53.1094C123.792 53.1094 123.995 53.0729 124.109 53C124.234 52.9167 124.318 52.875 124.359 52.875C124.401 52.875 124.443 52.9271 124.484 53.0312C124.536 53.1354 124.562 53.2135 124.562 53.2656C124.562 53.349 124.458 53.4583 124.25 53.5938C124.052 53.7292 123.807 53.849 123.516 53.9531C123.234 54.0573 122.969 54.1094 122.719 54.1094ZM128.703 54.1094C128.068 54.1094 127.479 53.9479 126.938 53.625C126.406 53.3021 125.979 52.8698 125.656 52.3281C125.344 51.7865 125.188 51.1927 125.188 50.5469C125.188 49.8802 125.328 49.2812 125.609 48.75C125.901 48.2188 126.302 47.7969 126.812 47.4844C127.323 47.1719 127.911 47.0156 128.578 47.0156C129.234 47.0156 129.792 47.1719 130.25 47.4844C130.719 47.7865 131.073 48.1667 131.312 48.625C131.562 49.0729 131.688 49.526 131.688 49.9844C131.688 50.224 131.635 50.3802 131.531 50.4531C131.438 50.526 131.245 50.5625 130.953 50.5625H127.422C127.359 50.5625 127.328 50.599 127.328 50.6719C127.328 51.0469 127.396 51.401 127.531 51.7344C127.677 52.0677 127.885 52.3385 128.156 52.5469C128.438 52.7552 128.776 52.8594 129.172 52.8594C129.526 52.8594 129.854 52.8073 130.156 52.7031C130.365 52.6406 130.526 52.5833 130.641 52.5312C130.755 52.4792 130.859 52.4219 130.953 52.3594C131.057 52.2865 131.177 52.1979 131.312 52.0938C131.406 52.1354 131.453 52.2344 131.453 52.3906C131.453 52.526 131.432 52.6302 131.391 52.7031C131.328 52.8698 131.161 53.0625 130.891 53.2812C130.63 53.5 130.307 53.6927 129.922 53.8594C129.547 54.026 129.141 54.1094 128.703 54.1094ZM127.438 49.7031H129.422C129.568 49.7031 129.641 49.6042 129.641 49.4062C129.641 49.0104 129.531 48.6562 129.312 48.3438C129.104 48.0312 128.833 47.875 128.5 47.875C128.198 47.875 127.958 47.9844 127.781 48.2031C127.615 48.4115 127.495 48.6458 127.422 48.9062C127.359 49.1667 127.328 49.3802 127.328 49.5469C127.328 49.651 127.365 49.7031 127.438 49.7031ZM132.641 54.0625C132.599 54.0208 132.578 53.9115 132.578 53.7344C132.578 53.5677 132.599 53.4844 132.641 53.4844C132.724 53.4844 132.844 53.4635 133 53.4219C133.156 53.3698 133.302 53.3125 133.438 53.25C133.573 53.1875 133.646 53.1354 133.656 53.0938C133.729 52.8021 133.766 52.4062 133.766 51.9062V49.7656C133.766 49.1823 133.672 48.7917 133.484 48.5938C133.401 48.4896 133.286 48.4167 133.141 48.375C133.005 48.3333 132.885 48.3073 132.781 48.2969C132.677 48.276 132.625 48.2552 132.625 48.2344C132.625 47.8698 132.651 47.6875 132.703 47.6875C132.974 47.6875 133.349 47.6302 133.828 47.5156C134.318 47.3906 134.833 47.2708 135.375 47.1562L135.734 47.0781C135.786 47.0781 135.839 47.1146 135.891 47.1875C135.943 47.25 135.969 47.3021 135.969 47.3438C135.958 47.4062 135.943 47.5312 135.922 47.7188C135.911 47.9062 135.901 48.0104 135.891 48.0312C136.411 47.3542 137 47.0156 137.656 47.0156C138.125 47.0156 138.573 47.2083 139 47.5938C139 48.1354 138.932 48.5365 138.797 48.7969C138.672 49.0573 138.438 49.1875 138.094 49.1875C137.885 49.1875 137.646 49.0677 137.375 48.8281C137.104 48.5885 136.865 48.4688 136.656 48.4688C136.448 48.4688 136.281 48.5521 136.156 48.7188C136.031 48.875 135.938 49.0781 135.875 49.3281C135.823 49.5781 135.797 49.8385 135.797 50.1094V51.6875C135.797 52.3646 135.833 52.8333 135.906 53.0938C135.927 53.1354 136 53.1875 136.125 53.25C136.25 53.3125 136.385 53.3698 136.531 53.4219C136.677 53.4635 136.776 53.4844 136.828 53.4844C136.849 53.4844 136.865 53.526 136.875 53.6094C136.885 53.6927 136.891 53.7812 136.891 53.875C136.891 53.9688 136.88 54.0312 136.859 54.0625C136.776 54.0521 136.599 54.0365 136.328 54.0156C136.057 54.0052 135.771 53.9896 135.469 53.9688C135.177 53.9479 134.948 53.9375 134.781 53.9375C134.656 53.9375 134.484 53.9427 134.266 53.9531C134.057 53.9635 133.839 53.9792 133.609 54C133.38 54.0104 133.177 54.0208 133 54.0312C132.823 54.0521 132.703 54.0625 132.641 54.0625ZM145 54.1094C144.427 54.1094 143.969 53.9531 143.625 53.6406C143.292 53.3177 143.125 52.9167 143.125 52.4375C143.125 52.0312 143.25 51.6771 143.5 51.375C143.76 51.0729 144.083 50.8333 144.469 50.6562C144.615 50.5938 144.75 50.5417 144.875 50.5C145 50.4479 145.115 50.401 145.219 50.3594C145.615 50.2344 145.932 50.1458 146.172 50.0938C146.411 50.0312 146.589 49.9792 146.703 49.9375C146.797 49.9062 146.844 49.8281 146.844 49.7031V49.1406C146.844 48.2865 146.583 47.8594 146.062 47.8594C145.458 47.8594 145.156 48.2083 145.156 48.9062C145.156 49.1354 145.062 49.3073 144.875 49.4219C144.688 49.526 144.479 49.5781 144.25 49.5781C143.771 49.5781 143.443 49.4219 143.266 49.1094C143.266 48.8385 143.359 48.5781 143.547 48.3281C143.745 48.0781 144 47.8542 144.312 47.6562C144.635 47.4479 144.995 47.2865 145.391 47.1719C145.797 47.0469 146.203 46.9844 146.609 46.9844C147.339 46.9844 147.896 47.1875 148.281 47.5938C148.677 47.9896 148.875 48.7135 148.875 49.7656V52.2969C148.875 52.651 149 52.8281 149.25 52.8281C149.438 52.8281 149.615 52.7604 149.781 52.625C149.854 52.6667 149.891 52.7448 149.891 52.8594C149.891 53.1302 149.854 53.3229 149.781 53.4375C149.635 53.5729 149.396 53.7188 149.062 53.875C148.74 54.0208 148.432 54.0938 148.141 54.0938C147.891 54.0938 147.651 54.0208 147.422 53.875C147.193 53.7188 147.042 53.5417 146.969 53.3438C146.958 53.3438 146.901 53.3802 146.797 53.4531C146.693 53.526 146.615 53.5833 146.562 53.625C146.354 53.7604 146.115 53.875 145.844 53.9688C145.573 54.0625 145.292 54.1094 145 54.1094ZM145.984 52.9844C146.255 52.9844 146.464 52.9219 146.609 52.7969C146.766 52.6615 146.844 52.5 146.844 52.3125V50.7344L146.031 51.0156C145.812 51.0885 145.609 51.1979 145.422 51.3438C145.245 51.4896 145.156 51.6823 145.156 51.9219C145.156 52.2969 145.234 52.5677 145.391 52.7344C145.557 52.901 145.755 52.9844 145.984 52.9844ZM154.031 54.0625C153.99 54.0208 153.969 53.9323 153.969 53.7969C153.969 53.5885 153.99 53.4844 154.031 53.4844C154.115 53.4844 154.234 53.4688 154.391 53.4375C154.547 53.4062 154.693 53.3646 154.828 53.3125C154.964 53.25 155.042 53.1927 155.062 53.1406C155.125 52.901 155.156 52.4427 155.156 51.7656V45.8594C155.156 45.276 155.125 44.8698 155.062 44.6406C155.042 44.5781 154.958 44.5156 154.812 44.4531C154.677 44.3802 154.531 44.3229 154.375 44.2812C154.219 44.2292 154.099 44.2031 154.016 44.2031C153.974 44.2031 153.953 44.1094 153.953 43.9219C153.953 43.7552 153.969 43.6562 154 43.625C154.469 43.6458 154.896 43.6667 155.281 43.6875C155.667 43.6979 156.005 43.7031 156.297 43.7031C156.443 43.7031 156.599 43.7031 156.766 43.7031C156.943 43.6927 157.12 43.6823 157.297 43.6719C157.474 43.6615 157.646 43.6562 157.812 43.6562C157.979 43.6562 158.141 43.6562 158.297 43.6562C158.922 43.6562 159.5 43.7396 160.031 43.9062C160.396 44.0104 160.729 44.1875 161.031 44.4375C161.344 44.6771 161.594 44.974 161.781 45.3281C161.969 45.6719 162.062 46.0677 162.062 46.5156C162.062 47.0781 161.911 47.5938 161.609 48.0625C161.318 48.5312 160.917 48.9115 160.406 49.2031C159.906 49.4844 159.344 49.625 158.719 49.625C158.51 49.625 158.302 49.5938 158.094 49.5312C157.896 49.4688 157.76 49.3854 157.688 49.2812C157.646 49.2188 157.62 49.1042 157.609 48.9375C157.599 48.7708 157.62 48.6875 157.672 48.6875C157.818 48.7708 158.052 48.8125 158.375 48.8125C159.25 48.8125 159.688 48.1042 159.688 46.6875C159.688 45.2604 159.208 44.5469 158.25 44.5469C157.885 44.5469 157.646 44.5885 157.531 44.6719C157.406 44.7656 157.344 45.276 157.344 46.2031V51.7969C157.344 52.349 157.38 52.776 157.453 53.0781C157.474 53.1615 157.562 53.2344 157.719 53.2969C157.875 53.3594 158.047 53.4062 158.234 53.4375C158.422 53.4688 158.568 53.4844 158.672 53.4844C158.714 53.4844 158.734 53.5833 158.734 53.7812C158.734 53.8854 158.724 53.9792 158.703 54.0625C157.453 54 156.656 53.9688 156.312 53.9688L154.031 54.0625ZM164.797 54.1094C164.224 54.1094 163.766 53.9531 163.422 53.6406C163.089 53.3177 162.922 52.9167 162.922 52.4375C162.922 52.0312 163.047 51.6771 163.297 51.375C163.557 51.0729 163.88 50.8333 164.266 50.6562C164.411 50.5938 164.547 50.5417 164.672 50.5C164.797 50.4479 164.911 50.401 165.016 50.3594C165.411 50.2344 165.729 50.1458 165.969 50.0938C166.208 50.0312 166.385 49.9792 166.5 49.9375C166.594 49.9062 166.641 49.8281 166.641 49.7031V49.1406C166.641 48.2865 166.38 47.8594 165.859 47.8594C165.255 47.8594 164.953 48.2083 164.953 48.9062C164.953 49.1354 164.859 49.3073 164.672 49.4219C164.484 49.526 164.276 49.5781 164.047 49.5781C163.568 49.5781 163.24 49.4219 163.062 49.1094C163.062 48.8385 163.156 48.5781 163.344 48.3281C163.542 48.0781 163.797 47.8542 164.109 47.6562C164.432 47.4479 164.792 47.2865 165.188 47.1719C165.594 47.0469 166 46.9844 166.406 46.9844C167.135 46.9844 167.693 47.1875 168.078 47.5938C168.474 47.9896 168.672 48.7135 168.672 49.7656V52.2969C168.672 52.651 168.797 52.8281 169.047 52.8281C169.234 52.8281 169.411 52.7604 169.578 52.625C169.651 52.6667 169.688 52.7448 169.688 52.8594C169.688 53.1302 169.651 53.3229 169.578 53.4375C169.432 53.5729 169.193 53.7188 168.859 53.875C168.536 54.0208 168.229 54.0938 167.938 54.0938C167.688 54.0938 167.448 54.0208 167.219 53.875C166.99 53.7188 166.839 53.5417 166.766 53.3438C166.755 53.3438 166.698 53.3802 166.594 53.4531C166.49 53.526 166.411 53.5833 166.359 53.625C166.151 53.7604 165.911 53.875 165.641 53.9688C165.37 54.0625 165.089 54.1094 164.797 54.1094ZM165.781 52.9844C166.052 52.9844 166.26 52.9219 166.406 52.7969C166.562 52.6615 166.641 52.5 166.641 52.3125V50.7344L165.828 51.0156C165.609 51.0885 165.406 51.1979 165.219 51.3438C165.042 51.4896 164.953 51.6823 164.953 51.9219C164.953 52.2969 165.031 52.5677 165.188 52.7344C165.354 52.901 165.552 52.9844 165.781 52.9844ZM172.938 54.1562C172.698 54.1562 172.432 54.1302 172.141 54.0781C171.849 54.026 171.578 53.9531 171.328 53.8594C171.078 53.7656 170.885 53.6667 170.75 53.5625C170.625 52.8438 170.562 52.2083 170.562 51.6562C170.615 51.625 170.693 51.6094 170.797 51.6094C171.13 51.6094 171.302 51.6562 171.312 51.75C171.49 52.7812 172.052 53.2969 173 53.2969C173.25 53.2969 173.458 53.2396 173.625 53.125C173.792 53.0104 173.875 52.8385 173.875 52.6094C173.875 52.3906 173.786 52.2031 173.609 52.0469C173.432 51.8906 173.224 51.75 172.984 51.625C172.745 51.5 172.526 51.3854 172.328 51.2812C171.724 50.9896 171.276 50.6719 170.984 50.3281C170.693 49.974 170.547 49.5417 170.547 49.0312C170.547 48.5521 170.672 48.1667 170.922 47.875C171.172 47.5729 171.505 47.349 171.922 47.2031C172.339 47.0573 172.786 46.9844 173.266 46.9844C174.172 46.9844 174.849 47.0885 175.297 47.2969C175.401 47.7552 175.453 48.401 175.453 49.2344C175.453 49.3281 175.385 49.375 175.25 49.375C174.927 49.375 174.755 49.3333 174.734 49.25C174.641 48.8125 174.479 48.4688 174.25 48.2188C174.031 47.9688 173.677 47.8438 173.188 47.8438C172.958 47.8438 172.771 47.901 172.625 48.0156C172.479 48.1198 172.406 48.276 172.406 48.4844C172.406 48.724 172.51 48.9323 172.719 49.1094C172.927 49.276 173.234 49.4583 173.641 49.6562C173.984 49.8125 174.318 49.9948 174.641 50.2031C174.964 50.401 175.224 50.651 175.422 50.9531C175.63 51.2448 175.734 51.6146 175.734 52.0625C175.734 52.75 175.469 53.2708 174.938 53.625C174.417 53.9792 173.75 54.1562 172.938 54.1562ZM179.062 54.1562C178.823 54.1562 178.557 54.1302 178.266 54.0781C177.974 54.026 177.703 53.9531 177.453 53.8594C177.203 53.7656 177.01 53.6667 176.875 53.5625C176.75 52.8438 176.688 52.2083 176.688 51.6562C176.74 51.625 176.818 51.6094 176.922 51.6094C177.255 51.6094 177.427 51.6562 177.438 51.75C177.615 52.7812 178.177 53.2969 179.125 53.2969C179.375 53.2969 179.583 53.2396 179.75 53.125C179.917 53.0104 180 52.8385 180 52.6094C180 52.3906 179.911 52.2031 179.734 52.0469C179.557 51.8906 179.349 51.75 179.109 51.625C178.87 51.5 178.651 51.3854 178.453 51.2812C177.849 50.9896 177.401 50.6719 177.109 50.3281C176.818 49.974 176.672 49.5417 176.672 49.0312C176.672 48.5521 176.797 48.1667 177.047 47.875C177.297 47.5729 177.63 47.349 178.047 47.2031C178.464 47.0573 178.911 46.9844 179.391 46.9844C180.297 46.9844 180.974 47.0885 181.422 47.2969C181.526 47.7552 181.578 48.401 181.578 49.2344C181.578 49.3281 181.51 49.375 181.375 49.375C181.052 49.375 180.88 49.3333 180.859 49.25C180.766 48.8125 180.604 48.4688 180.375 48.2188C180.156 47.9688 179.802 47.8438 179.312 47.8438C179.083 47.8438 178.896 47.901 178.75 48.0156C178.604 48.1198 178.531 48.276 178.531 48.4844C178.531 48.724 178.635 48.9323 178.844 49.1094C179.052 49.276 179.359 49.4583 179.766 49.6562C180.109 49.8125 180.443 49.9948 180.766 50.2031C181.089 50.401 181.349 50.651 181.547 50.9531C181.755 51.2448 181.859 51.6146 181.859 52.0625C181.859 52.75 181.594 53.2708 181.062 53.625C180.542 53.9792 179.875 54.1562 179.062 54.1562ZM186.641 54.1719C186.536 54.1719 186.453 54.1146 186.391 54L183.75 48.1875C183.677 48.0417 183.526 47.9219 183.297 47.8281C183.068 47.724 182.891 47.6719 182.766 47.6719C182.724 47.6719 182.703 47.5729 182.703 47.375C182.703 47.2083 182.719 47.1094 182.75 47.0781C182.833 47.0781 183.005 47.0885 183.266 47.1094C183.536 47.1302 183.818 47.151 184.109 47.1719C184.401 47.1927 184.63 47.2031 184.797 47.2031C184.911 47.2031 185.068 47.1979 185.266 47.1875C185.464 47.1771 185.708 47.1615 186 47.1406C186.281 47.1198 186.5 47.1042 186.656 47.0938C186.823 47.0833 186.927 47.0781 186.969 47.0781C186.99 47.1406 187 47.25 187 47.4062C187.01 47.5521 187 47.6302 186.969 47.6406C186.885 47.6406 186.766 47.6667 186.609 47.7188C186.453 47.7604 186.312 47.8177 186.188 47.8906C186.062 47.9635 186 48.0469 186 48.1406C186 48.276 186.422 49.3073 187.266 51.2344C187.328 51.1094 187.422 50.9167 187.547 50.6562C187.672 50.3854 187.802 50.1042 187.938 49.8125C188.083 49.5104 188.203 49.2448 188.297 49.0156C188.401 48.776 188.453 48.625 188.453 48.5625C188.453 48.1562 188.344 47.9062 188.125 47.8125C187.906 47.7083 187.641 47.6562 187.328 47.6562C187.307 47.6562 187.286 47.6146 187.266 47.5312C187.255 47.4479 187.255 47.3594 187.266 47.2656C187.276 47.1615 187.292 47.099 187.312 47.0781C187.406 47.0781 187.578 47.0885 187.828 47.1094C188.089 47.1302 188.359 47.151 188.641 47.1719C188.922 47.1927 189.146 47.2031 189.312 47.2031C189.427 47.2031 189.578 47.1979 189.766 47.1875C189.964 47.1771 190.198 47.1615 190.469 47.1406C190.74 47.1198 190.953 47.1042 191.109 47.0938C191.266 47.0833 191.37 47.0781 191.422 47.0781C191.443 47.1302 191.443 47.2448 191.422 47.4219C191.411 47.5885 191.391 47.6719 191.359 47.6719C191.182 47.6719 190.995 47.7083 190.797 47.7812C190.609 47.8542 190.516 47.974 190.516 48.1406C190.516 48.2865 190.922 49.3229 191.734 51.25C191.964 50.7604 192.177 50.3125 192.375 49.9062C192.583 49.4896 192.755 49.1458 192.891 48.875C193.026 48.5938 193.094 48.4115 193.094 48.3281C193.094 48.0885 192.953 47.9219 192.672 47.8281C192.401 47.724 192.115 47.6719 191.812 47.6719C191.792 47.6719 191.771 47.6302 191.75 47.5469C191.74 47.4531 191.734 47.3594 191.734 47.2656C191.745 47.1615 191.76 47.099 191.781 47.0781L192.75 47.1562C192.99 47.1771 193.203 47.1927 193.391 47.2031C193.578 47.2135 193.729 47.2188 193.844 47.2188C193.958 47.2188 194.089 47.2135 194.234 47.2031C194.391 47.1927 194.568 47.1771 194.766 47.1562C194.964 47.1354 195.13 47.1198 195.266 47.1094C195.411 47.099 195.526 47.0885 195.609 47.0781C195.641 47.1719 195.656 47.276 195.656 47.3906C195.656 47.5677 195.635 47.6562 195.594 47.6562C195.521 47.6562 195.391 47.6927 195.203 47.7656C195.016 47.8281 194.828 47.9167 194.641 48.0312C194.464 48.1458 194.339 48.276 194.266 48.4219L191.688 53.8438C191.656 53.9167 191.578 53.9896 191.453 54.0625C191.339 54.1354 191.224 54.1719 191.109 54.1719C191.005 54.1719 190.927 54.1146 190.875 54L189.016 49.9688L187.234 53.8281C187.203 53.901 187.135 53.974 187.031 54.0469C186.927 54.1302 186.797 54.1719 186.641 54.1719ZM199.531 54.1094C198.854 54.1094 198.234 53.9531 197.672 53.6406C197.12 53.3177 196.677 52.8906 196.344 52.3594C196.021 51.8177 195.859 51.2188 195.859 50.5625C195.859 49.8958 196.021 49.2969 196.344 48.7656C196.677 48.2344 197.12 47.8125 197.672 47.5C198.234 47.1771 198.854 47.0156 199.531 47.0156C200.219 47.0156 200.839 47.1771 201.391 47.5C201.943 47.8125 202.38 48.2344 202.703 48.7656C203.036 49.2969 203.203 49.8958 203.203 50.5625C203.203 51.2188 203.042 51.8177 202.719 52.3594C202.396 52.8906 201.953 53.3177 201.391 53.6406C200.839 53.9531 200.219 54.1094 199.531 54.1094ZM199.688 53.25C199.979 53.25 200.219 53.151 200.406 52.9531C200.594 52.7552 200.729 52.4948 200.812 52.1719C200.906 51.8385 200.953 51.4844 200.953 51.1094C200.953 48.9531 200.406 47.875 199.312 47.875C199.021 47.875 198.781 47.9792 198.594 48.1875C198.417 48.3958 198.286 48.6667 198.203 49C198.12 49.3333 198.078 49.6927 198.078 50.0781C198.078 52.1927 198.615 53.25 199.688 53.25ZM204.109 54.0625C204.068 54.0208 204.047 53.9115 204.047 53.7344C204.047 53.5677 204.068 53.4844 204.109 53.4844C204.193 53.4844 204.312 53.4635 204.469 53.4219C204.625 53.3698 204.771 53.3125 204.906 53.25C205.042 53.1875 205.115 53.1354 205.125 53.0938C205.198 52.8021 205.234 52.4062 205.234 51.9062V49.7656C205.234 49.1823 205.141 48.7917 204.953 48.5938C204.87 48.4896 204.755 48.4167 204.609 48.375C204.474 48.3333 204.354 48.3073 204.25 48.2969C204.146 48.276 204.094 48.2552 204.094 48.2344C204.094 47.8698 204.12 47.6875 204.172 47.6875C204.443 47.6875 204.818 47.6302 205.297 47.5156C205.786 47.3906 206.302 47.2708 206.844 47.1562L207.203 47.0781C207.255 47.0781 207.307 47.1146 207.359 47.1875C207.411 47.25 207.438 47.3021 207.438 47.3438C207.427 47.4062 207.411 47.5312 207.391 47.7188C207.38 47.9062 207.37 48.0104 207.359 48.0312C207.88 47.3542 208.469 47.0156 209.125 47.0156C209.594 47.0156 210.042 47.2083 210.469 47.5938C210.469 48.1354 210.401 48.5365 210.266 48.7969C210.141 49.0573 209.906 49.1875 209.562 49.1875C209.354 49.1875 209.115 49.0677 208.844 48.8281C208.573 48.5885 208.333 48.4688 208.125 48.4688C207.917 48.4688 207.75 48.5521 207.625 48.7188C207.5 48.875 207.406 49.0781 207.344 49.3281C207.292 49.5781 207.266 49.8385 207.266 50.1094V51.6875C207.266 52.3646 207.302 52.8333 207.375 53.0938C207.396 53.1354 207.469 53.1875 207.594 53.25C207.719 53.3125 207.854 53.3698 208 53.4219C208.146 53.4635 208.245 53.4844 208.297 53.4844C208.318 53.4844 208.333 53.526 208.344 53.6094C208.354 53.6927 208.359 53.7812 208.359 53.875C208.359 53.9688 208.349 54.0312 208.328 54.0625C208.245 54.0521 208.068 54.0365 207.797 54.0156C207.526 54.0052 207.24 53.9896 206.938 53.9688C206.646 53.9479 206.417 53.9375 206.25 53.9375C206.125 53.9375 205.953 53.9427 205.734 53.9531C205.526 53.9635 205.307 53.9792 205.078 54C204.849 54.0104 204.646 54.0208 204.469 54.0312C204.292 54.0521 204.172 54.0625 204.109 54.0625ZM214.422 54.0938C213.859 54.0938 213.328 53.9531 212.828 53.6719C212.339 53.3906 211.938 52.9948 211.625 52.4844C211.323 51.974 211.172 51.375 211.172 50.6875C211.172 49.9896 211.333 49.3646 211.656 48.8125C211.99 48.2604 212.438 47.8229 213 47.5C213.573 47.1771 214.214 47.0156 214.922 47.0156C215.359 47.0156 215.724 47.0625 216.016 47.1562C216.047 47.1562 216.062 47.0833 216.062 46.9375V45.7031C216.062 45.2656 216.031 44.8906 215.969 44.5781C215.927 44.4115 215.656 44.3281 215.156 44.3281H215.016C214.953 44.3281 214.922 44.224 214.922 44.0156C214.922 43.8385 214.953 43.75 215.016 43.75C215.62 43.6979 216.188 43.6094 216.719 43.4844C217.26 43.3594 217.646 43.2604 217.875 43.1875L218.031 43.1406H218.062C218.104 43.1406 218.146 43.1719 218.188 43.2344C218.229 43.2969 218.255 43.3542 218.266 43.4062C218.151 43.8958 218.094 44.4219 218.094 44.9844V51.7031C218.094 51.9323 218.104 52.1823 218.125 52.4531C218.146 52.7135 218.193 52.8802 218.266 52.9531C218.349 53.0156 218.443 53.0521 218.547 53.0625C218.651 53.0625 218.786 53.0729 218.953 53.0938L219.109 53.1094C219.141 53.1198 219.156 53.1823 219.156 53.2969C219.156 53.5573 219.125 53.6875 219.062 53.6875C218.802 53.6979 218.5 53.7292 218.156 53.7812C217.823 53.8333 217.495 53.8854 217.172 53.9375C216.849 53.9896 216.589 54.0312 216.391 54.0625L216.156 54.0938C216.094 54.1042 216.062 54.0156 216.062 53.8281V53.5C216.062 53.4167 216.042 53.3958 216 53.4375C215.562 53.875 215.036 54.0938 214.422 54.0938ZM214.828 53.1406C215.182 53.1406 215.474 53.0417 215.703 52.8438C215.943 52.6354 216.062 52.3854 216.062 52.0938V49.25C216.062 49.125 216.052 49.0052 216.031 48.8906C216.01 48.776 215.964 48.6302 215.891 48.4531C215.818 48.276 215.688 48.1354 215.5 48.0312C215.323 47.9167 215.099 47.8594 214.828 47.8594C214.339 47.8594 213.979 48.0573 213.75 48.4531C213.531 48.8385 213.422 49.4583 213.422 50.3125C213.422 52.1979 213.891 53.1406 214.828 53.1406Z" fill="white"/>
<path d="M71.8643 199.654C71.8278 199.618 71.8096 199.54 71.8096 199.422C71.8096 199.312 71.8278 199.258 71.8643 199.258C71.9372 199.258 72.0374 199.244 72.165 199.217C72.2926 199.189 72.4111 199.153 72.5205 199.107C72.6299 199.062 72.6891 199.021 72.6982 198.984C72.7347 198.857 72.7575 198.711 72.7666 198.547C72.7848 198.383 72.7939 198.21 72.7939 198.027V195.443C72.7939 195.097 72.7301 194.851 72.6025 194.705C72.5114 194.587 72.402 194.514 72.2744 194.486C72.1468 194.45 72.0374 194.432 71.9463 194.432C71.8551 194.423 71.8096 194.409 71.8096 194.391C71.8096 194.172 71.8369 194.058 71.8916 194.049C72.3747 193.976 72.7438 193.917 72.999 193.871C73.2542 193.816 73.4821 193.766 73.6826 193.721L73.8467 193.68C73.8831 193.671 73.9059 193.707 73.915 193.789C73.9242 193.871 73.9242 193.93 73.915 193.967C73.8968 194.149 73.8786 194.322 73.8604 194.486C73.8512 194.65 73.8467 194.805 73.8467 194.951V197.768C73.8467 198.032 73.8558 198.264 73.874 198.465C73.8923 198.665 73.9196 198.839 73.9561 198.984C73.9743 199.021 74.0381 199.062 74.1475 199.107C74.2568 199.153 74.3753 199.189 74.5029 199.217C74.6305 199.244 74.7217 199.258 74.7764 199.258C74.8037 199.258 74.8219 199.312 74.8311 199.422C74.8402 199.531 74.8356 199.609 74.8174 199.654L73.3545 199.586L71.8643 199.654ZM73.2178 192.189C73.0355 192.189 72.876 192.121 72.7393 191.984C72.6025 191.848 72.5342 191.688 72.5342 191.506C72.5342 191.314 72.6025 191.155 72.7393 191.027C72.876 190.891 73.0355 190.822 73.2178 190.822C73.4092 190.822 73.5687 190.891 73.6963 191.027C73.833 191.155 73.9014 191.314 73.9014 191.506C73.9014 191.688 73.833 191.848 73.6963 191.984C73.5687 192.121 73.4092 192.189 73.2178 192.189ZM75.6377 199.654C75.6104 199.627 75.5921 199.554 75.583 199.436C75.583 199.317 75.6012 199.258 75.6377 199.258C75.7106 199.258 75.8063 199.244 75.9248 199.217C76.0433 199.189 76.1527 199.153 76.2529 199.107C76.3623 199.062 76.4215 199.021 76.4307 198.984C76.4762 198.802 76.5081 198.611 76.5264 198.41C76.5537 198.21 76.5674 197.995 76.5674 197.768V194.623C76.5674 194.559 76.5446 194.527 76.499 194.527H75.7744C75.7471 194.527 75.7334 194.5 75.7334 194.445C75.7334 194.363 75.8018 194.249 75.9385 194.104C76.0843 193.958 76.2438 193.885 76.417 193.885H76.499C76.5446 193.885 76.5674 193.857 76.5674 193.803V193.625C76.5674 193.142 76.6449 192.691 76.7998 192.271C76.9548 191.852 77.1598 191.479 77.415 191.15C77.6794 190.822 77.971 190.567 78.29 190.385C78.6182 190.202 78.9508 190.111 79.2881 190.111C79.9535 190.111 80.3864 190.289 80.5869 190.645C80.5869 191.219 80.4229 191.506 80.0947 191.506C79.9945 191.506 79.9033 191.465 79.8213 191.383C79.7393 191.292 79.6527 191.191 79.5615 191.082C79.4795 190.964 79.3792 190.863 79.2607 190.781C79.1514 190.69 79.0192 190.645 78.8643 190.645C78.5999 190.645 78.3721 190.758 78.1807 190.986C77.9893 191.214 77.8434 191.515 77.7432 191.889C77.652 192.262 77.6064 192.673 77.6064 193.119V193.816C77.6064 193.862 77.6292 193.885 77.6748 193.885H79.1924C79.238 193.885 79.2607 193.917 79.2607 193.98C79.2607 194.126 79.2061 194.309 79.0967 194.527H77.6885C77.6338 194.527 77.6064 194.555 77.6064 194.609V197.768C77.6064 198.26 77.6475 198.665 77.7295 198.984C77.7477 199.021 77.807 199.062 77.9072 199.107C78.0075 199.153 78.1169 199.189 78.2354 199.217C78.3538 199.244 78.4404 199.258 78.4951 199.258C78.5225 199.258 78.5407 199.312 78.5498 199.422C78.5589 199.531 78.5544 199.609 78.5361 199.654L77.0732 199.586L75.6377 199.654ZM84.1143 202.717C83.9229 202.717 83.7816 202.658 83.6904 202.539C83.5993 202.421 83.5537 202.302 83.5537 202.184C83.5537 201.992 83.6175 201.846 83.7451 201.746C84.5016 201.746 85.0029 201.354 85.249 200.57C85.2946 200.434 85.3493 200.27 85.4131 200.078C85.4769 199.887 85.527 199.732 85.5635 199.613L83.6084 194.828C83.5628 194.719 83.5173 194.628 83.4717 194.555C83.4261 194.473 83.3805 194.409 83.335 194.363C83.2529 194.281 83.1253 194.213 82.9521 194.158C82.7881 194.104 82.6559 194.076 82.5557 194.076C82.5192 194.076 82.501 194.017 82.501 193.898C82.501 193.789 82.5192 193.716 82.5557 193.68C82.8018 193.689 83.0433 193.702 83.2803 193.721C83.5264 193.73 83.777 193.734 84.0322 193.734C84.3239 193.734 84.5745 193.73 84.7842 193.721C84.9938 193.702 85.1852 193.689 85.3584 193.68C85.3766 193.753 85.3857 193.821 85.3857 193.885C85.3857 194.012 85.3675 194.076 85.3311 194.076C85.2946 194.076 85.2262 194.09 85.126 194.117C85.0348 194.145 84.9437 194.181 84.8525 194.227C84.7614 194.263 84.7067 194.309 84.6885 194.363V194.391C84.6885 194.546 85.1761 195.735 86.1514 197.959L87.1904 194.965C87.2542 194.783 87.2861 194.641 87.2861 194.541C87.2861 194.404 87.2132 194.295 87.0674 194.213C86.9307 194.122 86.7438 194.076 86.5068 194.076C86.4704 194.076 86.4521 194.017 86.4521 193.898C86.4521 193.789 86.4704 193.716 86.5068 193.68C86.6253 193.689 86.8031 193.702 87.04 193.721C87.277 193.739 87.5049 193.748 87.7236 193.748C87.9242 193.748 88.1429 193.739 88.3799 193.721C88.6169 193.702 88.7946 193.689 88.9131 193.68C88.9313 193.753 88.9404 193.821 88.9404 193.885C88.9404 194.012 88.9222 194.076 88.8857 194.076C88.7673 194.076 88.6077 194.117 88.4072 194.199C88.2067 194.281 88.07 194.413 87.9971 194.596L85.5498 201.199C85.3402 201.764 85.1032 202.156 84.8389 202.375C84.5745 202.603 84.333 202.717 84.1143 202.717ZM92.1807 199.709C91.6338 199.709 91.1325 199.572 90.6768 199.299C90.221 199.025 89.8564 198.656 89.583 198.191C89.3187 197.727 89.1865 197.216 89.1865 196.66C89.1865 196.095 89.3141 195.585 89.5693 195.129C89.8337 194.673 90.1891 194.313 90.6357 194.049C91.0824 193.775 91.5882 193.639 92.1533 193.639C92.7002 193.639 93.1969 193.775 93.6436 194.049C94.0993 194.322 94.4593 194.687 94.7236 195.143C94.9971 195.598 95.1338 196.104 95.1338 196.66C95.1338 197.216 95.0016 197.727 94.7373 198.191C94.473 198.656 94.1175 199.025 93.6709 199.299C93.2334 199.572 92.7367 199.709 92.1807 199.709ZM92.3037 199.176C92.6318 199.176 92.9189 199.071 93.165 198.861C93.4111 198.652 93.6025 198.369 93.7393 198.014C93.8851 197.658 93.958 197.271 93.958 196.852C93.958 196.359 93.8669 195.913 93.6846 195.512C93.5023 195.102 93.2607 194.778 92.96 194.541C92.6683 194.295 92.3493 194.172 92.0029 194.172C91.6839 194.172 91.3968 194.277 91.1416 194.486C90.8955 194.687 90.7041 194.96 90.5674 195.307C90.4307 195.644 90.3623 196.027 90.3623 196.455C90.3623 196.947 90.4489 197.403 90.6221 197.822C90.8044 198.232 91.0413 198.561 91.333 198.807C91.6338 199.053 91.9574 199.176 92.3037 199.176ZM100.671 199.723C100.598 199.723 100.562 199.65 100.562 199.504V198.807C100.562 198.761 100.552 198.738 100.534 198.738C99.9326 199.385 99.3356 199.709 98.7432 199.709C98.3148 199.709 97.973 199.586 97.7178 199.34C97.4717 199.085 97.2939 198.766 97.1846 198.383C97.0843 197.991 97.0342 197.585 97.0342 197.166V195.443C97.0342 195.097 96.9704 194.851 96.8428 194.705C96.7516 194.596 96.6423 194.523 96.5146 194.486C96.3962 194.45 96.2868 194.432 96.1865 194.432C96.0954 194.423 96.0498 194.409 96.0498 194.391C96.0498 194.172 96.0771 194.058 96.1318 194.049C96.6149 193.976 97.0023 193.912 97.2939 193.857C97.5947 193.794 97.7679 193.757 97.8135 193.748L98.0869 193.68C98.1234 193.671 98.1462 193.707 98.1553 193.789C98.1644 193.871 98.1644 193.93 98.1553 193.967C98.1006 194.404 98.0732 194.742 98.0732 194.979V196.824C98.0732 197.526 98.1781 198.046 98.3877 198.383C98.5973 198.711 98.9391 198.875 99.4131 198.875C99.5954 198.875 99.7731 198.825 99.9463 198.725C100.129 198.624 100.274 198.506 100.384 198.369C100.502 198.223 100.562 198.1 100.562 198V195.443C100.562 195.097 100.498 194.851 100.37 194.705C100.279 194.596 100.17 194.523 100.042 194.486C99.9235 194.45 99.8141 194.427 99.7139 194.418C99.6227 194.409 99.5771 194.4 99.5771 194.391C99.5771 194.172 99.6045 194.058 99.6592 194.049C100.142 193.976 100.502 193.917 100.739 193.871C100.985 193.826 101.181 193.785 101.327 193.748L101.614 193.68C101.651 193.671 101.674 193.707 101.683 193.789C101.692 193.871 101.692 193.93 101.683 193.967C101.628 194.404 101.601 194.732 101.601 194.951V197.686C101.601 198.096 101.632 198.442 101.696 198.725C101.724 198.816 101.797 198.875 101.915 198.902C102.034 198.921 102.17 198.939 102.325 198.957L102.503 198.971C102.53 198.98 102.544 199.03 102.544 199.121C102.544 199.148 102.53 199.194 102.503 199.258C102.485 199.312 102.462 199.34 102.435 199.34C102.161 199.358 101.86 199.408 101.532 199.49C101.204 199.563 100.958 199.632 100.794 199.695L100.671 199.723ZM106.099 199.654C106.062 199.618 106.044 199.54 106.044 199.422C106.044 199.312 106.062 199.258 106.099 199.258C106.172 199.258 106.272 199.244 106.399 199.217C106.527 199.189 106.646 199.153 106.755 199.107C106.864 199.062 106.924 199.021 106.933 198.984C106.969 198.857 106.992 198.711 107.001 198.547C107.019 198.383 107.028 198.21 107.028 198.027V192.107C107.028 191.798 107.001 191.506 106.946 191.232C106.91 191.087 106.677 191.014 106.249 191.014H106.126C106.071 191.014 106.044 190.964 106.044 190.863C106.044 190.717 106.071 190.645 106.126 190.645C106.591 190.599 106.983 190.526 107.302 190.426C107.621 190.316 107.84 190.23 107.958 190.166L108.026 190.125H108.054C108.09 190.125 108.127 190.152 108.163 190.207C108.2 190.253 108.222 190.298 108.231 190.344C108.131 190.645 108.081 191.041 108.081 191.533V196.318C108.263 196.282 108.377 196.241 108.423 196.195L109.052 195.662L109.544 195.252C109.699 195.124 109.831 195.006 109.94 194.896C110.059 194.787 110.118 194.687 110.118 194.596C110.118 194.477 110.018 194.413 109.817 194.404C109.635 194.395 109.53 194.377 109.503 194.35C109.43 194.167 109.435 194.062 109.517 194.035H110.597C110.916 194.035 111.175 194.026 111.376 194.008C111.576 193.99 111.818 193.976 112.101 193.967C112.155 193.976 112.178 194.044 112.169 194.172C112.16 194.29 112.132 194.35 112.087 194.35C112.014 194.35 111.909 194.363 111.772 194.391C111.645 194.418 111.522 194.45 111.403 194.486C111.285 194.514 111.198 194.546 111.144 194.582C111.043 194.637 110.87 194.755 110.624 194.938C110.387 195.12 110.132 195.329 109.858 195.566C109.585 195.794 109.339 196.018 109.12 196.236C109.822 196.984 110.369 197.585 110.761 198.041C111.162 198.497 111.422 198.779 111.54 198.889C111.695 199.016 111.891 199.117 112.128 199.189C112.365 199.253 112.534 199.285 112.634 199.285C112.67 199.285 112.688 199.358 112.688 199.504C112.688 199.595 112.684 199.645 112.675 199.654L111.185 199.586L109.763 199.654C109.726 199.618 109.708 199.545 109.708 199.436C109.708 199.335 109.726 199.285 109.763 199.285C109.854 199.285 109.959 199.267 110.077 199.23C110.196 199.194 110.255 199.153 110.255 199.107C110.255 199.089 110.25 199.076 110.241 199.066L108.245 196.906L108.081 196.947V197.768C108.081 198.068 108.09 198.324 108.108 198.533C108.136 198.734 108.163 198.884 108.19 198.984C108.209 199.021 108.272 199.062 108.382 199.107C108.491 199.153 108.61 199.189 108.737 199.217C108.865 199.244 108.956 199.258 109.011 199.258C109.038 199.258 109.056 199.312 109.065 199.422C109.075 199.531 109.07 199.609 109.052 199.654L107.589 199.586L106.099 199.654ZM113.085 199.654C113.049 199.618 113.03 199.54 113.03 199.422C113.03 199.312 113.049 199.258 113.085 199.258C113.158 199.258 113.258 199.244 113.386 199.217C113.513 199.189 113.632 199.153 113.741 199.107C113.851 199.062 113.91 199.021 113.919 198.984C113.955 198.857 113.978 198.711 113.987 198.547C114.006 198.383 114.015 198.21 114.015 198.027V195.443C114.015 195.097 113.951 194.851 113.823 194.705C113.732 194.596 113.623 194.523 113.495 194.486C113.377 194.45 113.267 194.432 113.167 194.432C113.076 194.423 113.03 194.409 113.03 194.391C113.03 194.172 113.058 194.058 113.112 194.049C113.595 193.976 113.987 193.912 114.288 193.857C114.589 193.794 114.776 193.753 114.849 193.734L115.067 193.68C115.104 193.671 115.127 193.707 115.136 193.789C115.145 193.871 115.145 193.93 115.136 193.967C115.118 194.094 115.104 194.204 115.095 194.295C115.086 194.386 115.081 194.459 115.081 194.514C115.081 194.55 115.09 194.568 115.108 194.568C115.118 194.568 115.131 194.559 115.149 194.541C115.359 194.322 115.642 194.117 115.997 193.926C116.362 193.725 116.708 193.625 117.036 193.625C117.674 193.625 118.121 193.853 118.376 194.309C118.631 194.764 118.759 195.503 118.759 196.523V197.768C118.759 198.032 118.768 198.264 118.786 198.465C118.804 198.665 118.832 198.839 118.868 198.984C118.886 199.021 118.95 199.062 119.06 199.107C119.169 199.153 119.287 199.189 119.415 199.217C119.543 199.244 119.634 199.258 119.688 199.258C119.716 199.258 119.734 199.312 119.743 199.422C119.752 199.531 119.748 199.609 119.729 199.654L118.267 199.586L116.831 199.654C116.795 199.618 116.776 199.54 116.776 199.422C116.776 199.312 116.795 199.258 116.831 199.258C116.904 199.258 117 199.244 117.118 199.217C117.237 199.189 117.346 199.153 117.446 199.107C117.547 199.062 117.601 199.021 117.61 198.984C117.647 198.857 117.67 198.711 117.679 198.547C117.697 198.383 117.706 198.21 117.706 198.027V196.66C117.706 195.812 117.597 195.234 117.378 194.924C117.159 194.614 116.804 194.459 116.312 194.459C116.12 194.459 115.929 194.514 115.737 194.623C115.546 194.723 115.386 194.842 115.259 194.979C115.131 195.115 115.067 195.243 115.067 195.361V197.768C115.067 198.032 115.076 198.264 115.095 198.465C115.113 198.665 115.14 198.839 115.177 198.984C115.195 199.021 115.259 199.062 115.368 199.107C115.478 199.153 115.596 199.189 115.724 199.217C115.851 199.244 115.942 199.258 115.997 199.258C116.024 199.258 116.043 199.312 116.052 199.422C116.061 199.531 116.056 199.609 116.038 199.654L114.575 199.586L113.085 199.654ZM123.558 199.709C123.011 199.709 122.509 199.572 122.054 199.299C121.598 199.025 121.233 198.656 120.96 198.191C120.696 197.727 120.563 197.216 120.563 196.66C120.563 196.095 120.691 195.585 120.946 195.129C121.211 194.673 121.566 194.313 122.013 194.049C122.459 193.775 122.965 193.639 123.53 193.639C124.077 193.639 124.574 193.775 125.021 194.049C125.476 194.322 125.836 194.687 126.101 195.143C126.374 195.598 126.511 196.104 126.511 196.66C126.511 197.216 126.379 197.727 126.114 198.191C125.85 198.656 125.494 199.025 125.048 199.299C124.61 199.572 124.114 199.709 123.558 199.709ZM123.681 199.176C124.009 199.176 124.296 199.071 124.542 198.861C124.788 198.652 124.979 198.369 125.116 198.014C125.262 197.658 125.335 197.271 125.335 196.852C125.335 196.359 125.244 195.913 125.062 195.512C124.879 195.102 124.638 194.778 124.337 194.541C124.045 194.295 123.726 194.172 123.38 194.172C123.061 194.172 122.774 194.277 122.519 194.486C122.272 194.687 122.081 194.96 121.944 195.307C121.808 195.644 121.739 196.027 121.739 196.455C121.739 196.947 121.826 197.403 121.999 197.822C122.181 198.232 122.418 198.561 122.71 198.807C123.011 199.053 123.334 199.176 123.681 199.176ZM130.503 199.764C130.403 199.764 130.348 199.745 130.339 199.709C130.229 199.463 130.111 199.194 129.983 198.902C129.865 198.602 129.737 198.278 129.601 197.932C129.318 197.248 129.054 196.633 128.808 196.086C128.562 195.53 128.274 194.96 127.946 194.377C127.828 194.176 127.582 194.076 127.208 194.076C127.172 194.076 127.153 194.017 127.153 193.898C127.153 193.789 127.172 193.716 127.208 193.68C127.399 193.689 127.614 193.707 127.851 193.734C128.088 193.753 128.325 193.757 128.562 193.748L129.929 193.68C129.947 193.716 129.951 193.794 129.942 193.912C129.942 194.021 129.929 194.076 129.901 194.076C129.446 194.076 129.218 194.181 129.218 194.391C129.218 194.454 129.368 194.796 129.669 195.416C129.97 196.027 130.362 196.879 130.845 197.973C131.164 197.07 131.414 196.359 131.597 195.84C131.788 195.32 131.884 195.024 131.884 194.951C131.884 194.906 131.856 194.828 131.802 194.719C131.756 194.609 131.697 194.486 131.624 194.35C131.551 194.24 131.451 194.167 131.323 194.131C131.196 194.094 131.063 194.076 130.927 194.076C130.89 194.076 130.872 194.017 130.872 193.898C130.872 193.789 130.89 193.716 130.927 193.68C131.118 193.689 131.328 193.702 131.556 193.721C131.793 193.739 132.025 193.748 132.253 193.748C132.545 193.748 132.8 193.739 133.019 193.721C133.246 193.702 133.438 193.689 133.593 193.68C133.611 193.753 133.62 193.83 133.62 193.912C133.62 194.003 133.606 194.058 133.579 194.076C133.142 194.076 132.923 194.254 132.923 194.609C132.923 194.792 133.424 195.913 134.427 197.973C134.609 197.408 134.787 196.888 134.96 196.414C135.133 195.931 135.274 195.53 135.384 195.211C135.493 194.883 135.548 194.664 135.548 194.555C135.548 194.236 135.247 194.076 134.646 194.076H134.591C134.554 194.076 134.536 194.017 134.536 193.898C134.536 193.789 134.554 193.716 134.591 193.68C134.791 193.689 135.01 193.702 135.247 193.721C135.484 193.739 135.726 193.748 135.972 193.748C136.19 193.748 136.4 193.739 136.601 193.721C136.81 193.702 137.006 193.689 137.188 193.68C137.207 193.753 137.216 193.821 137.216 193.885C137.216 194.012 137.193 194.076 137.147 194.076C137.029 194.076 136.869 194.117 136.669 194.199C136.468 194.272 136.336 194.395 136.272 194.568L134.481 199.463C134.418 199.663 134.29 199.764 134.099 199.764C133.998 199.764 133.944 199.745 133.935 199.709L132.253 195.689L130.872 199.463C130.845 199.527 130.795 199.59 130.722 199.654C130.658 199.727 130.585 199.764 130.503 199.764ZM137.298 201.842C137.261 201.842 137.198 201.805 137.106 201.732C137.024 201.66 136.983 201.596 136.983 201.541C136.983 201.514 137.034 201.454 137.134 201.363C137.234 201.272 137.353 201.154 137.489 201.008C137.626 200.871 137.744 200.698 137.845 200.488C137.945 200.288 137.995 200.06 137.995 199.805C137.995 199.641 137.927 199.417 137.79 199.135C137.653 198.843 137.585 198.656 137.585 198.574C137.585 198.374 137.685 198.205 137.886 198.068C138.086 197.923 138.314 197.85 138.569 197.85C138.706 197.85 138.815 197.868 138.897 197.904C139.016 198.077 139.075 198.369 139.075 198.779C139.075 199.363 138.916 199.91 138.597 200.42C138.278 200.93 137.849 201.404 137.312 201.842H137.298ZM144.421 202.717C144.229 202.717 144.088 202.658 143.997 202.539C143.906 202.421 143.86 202.302 143.86 202.184C143.86 201.992 143.924 201.846 144.052 201.746C144.808 201.746 145.31 201.354 145.556 200.57C145.601 200.434 145.656 200.27 145.72 200.078C145.784 199.887 145.834 199.732 145.87 199.613L143.915 194.828C143.869 194.719 143.824 194.628 143.778 194.555C143.733 194.473 143.687 194.409 143.642 194.363C143.56 194.281 143.432 194.213 143.259 194.158C143.095 194.104 142.963 194.076 142.862 194.076C142.826 194.076 142.808 194.017 142.808 193.898C142.808 193.789 142.826 193.716 142.862 193.68C143.108 193.689 143.35 193.702 143.587 193.721C143.833 193.73 144.084 193.734 144.339 193.734C144.631 193.734 144.881 193.73 145.091 193.721C145.3 193.702 145.492 193.689 145.665 193.68C145.683 193.753 145.692 193.821 145.692 193.885C145.692 194.012 145.674 194.076 145.638 194.076C145.601 194.076 145.533 194.09 145.433 194.117C145.341 194.145 145.25 194.181 145.159 194.227C145.068 194.263 145.013 194.309 144.995 194.363V194.391C144.995 194.546 145.483 195.735 146.458 197.959L147.497 194.965C147.561 194.783 147.593 194.641 147.593 194.541C147.593 194.404 147.52 194.295 147.374 194.213C147.237 194.122 147.05 194.076 146.813 194.076C146.777 194.076 146.759 194.017 146.759 193.898C146.759 193.789 146.777 193.716 146.813 193.68C146.932 193.689 147.11 193.702 147.347 193.721C147.584 193.739 147.812 193.748 148.03 193.748C148.231 193.748 148.45 193.739 148.687 193.721C148.924 193.702 149.101 193.689 149.22 193.68C149.238 193.753 149.247 193.821 149.247 193.885C149.247 194.012 149.229 194.076 149.192 194.076C149.074 194.076 148.914 194.117 148.714 194.199C148.513 194.281 148.377 194.413 148.304 194.596L145.856 201.199C145.647 201.764 145.41 202.156 145.146 202.375C144.881 202.603 144.64 202.717 144.421 202.717ZM152.487 199.709C151.94 199.709 151.439 199.572 150.983 199.299C150.528 199.025 150.163 198.656 149.89 198.191C149.625 197.727 149.493 197.216 149.493 196.66C149.493 196.095 149.621 195.585 149.876 195.129C150.14 194.673 150.496 194.313 150.942 194.049C151.389 193.775 151.895 193.639 152.46 193.639C153.007 193.639 153.504 193.775 153.95 194.049C154.406 194.322 154.766 194.687 155.03 195.143C155.304 195.598 155.44 196.104 155.44 196.66C155.44 197.216 155.308 197.727 155.044 198.191C154.78 198.656 154.424 199.025 153.978 199.299C153.54 199.572 153.043 199.709 152.487 199.709ZM152.61 199.176C152.938 199.176 153.226 199.071 153.472 198.861C153.718 198.652 153.909 198.369 154.046 198.014C154.192 197.658 154.265 197.271 154.265 196.852C154.265 196.359 154.174 195.913 153.991 195.512C153.809 195.102 153.567 194.778 153.267 194.541C152.975 194.295 152.656 194.172 152.31 194.172C151.991 194.172 151.703 194.277 151.448 194.486C151.202 194.687 151.011 194.96 150.874 195.307C150.737 195.644 150.669 196.027 150.669 196.455C150.669 196.947 150.756 197.403 150.929 197.822C151.111 198.232 151.348 198.561 151.64 198.807C151.94 199.053 152.264 199.176 152.61 199.176ZM160.978 199.723C160.905 199.723 160.868 199.65 160.868 199.504V198.807C160.868 198.761 160.859 198.738 160.841 198.738C160.239 199.385 159.642 199.709 159.05 199.709C158.621 199.709 158.28 199.586 158.024 199.34C157.778 199.085 157.601 198.766 157.491 198.383C157.391 197.991 157.341 197.585 157.341 197.166V195.443C157.341 195.097 157.277 194.851 157.149 194.705C157.058 194.596 156.949 194.523 156.821 194.486C156.703 194.45 156.593 194.432 156.493 194.432C156.402 194.423 156.356 194.409 156.356 194.391C156.356 194.172 156.384 194.058 156.438 194.049C156.922 193.976 157.309 193.912 157.601 193.857C157.901 193.794 158.075 193.757 158.12 193.748L158.394 193.68C158.43 193.671 158.453 193.707 158.462 193.789C158.471 193.871 158.471 193.93 158.462 193.967C158.407 194.404 158.38 194.742 158.38 194.979V196.824C158.38 197.526 158.485 198.046 158.694 198.383C158.904 198.711 159.246 198.875 159.72 198.875C159.902 198.875 160.08 198.825 160.253 198.725C160.435 198.624 160.581 198.506 160.69 198.369C160.809 198.223 160.868 198.1 160.868 198V195.443C160.868 195.097 160.804 194.851 160.677 194.705C160.586 194.596 160.476 194.523 160.349 194.486C160.23 194.45 160.121 194.427 160.021 194.418C159.929 194.409 159.884 194.4 159.884 194.391C159.884 194.172 159.911 194.058 159.966 194.049C160.449 193.976 160.809 193.917 161.046 193.871C161.292 193.826 161.488 193.785 161.634 193.748L161.921 193.68C161.957 193.671 161.98 193.707 161.989 193.789C161.998 193.871 161.998 193.93 161.989 193.967C161.935 194.404 161.907 194.732 161.907 194.951V197.686C161.907 198.096 161.939 198.442 162.003 198.725C162.03 198.816 162.103 198.875 162.222 198.902C162.34 198.921 162.477 198.939 162.632 198.957L162.81 198.971C162.837 198.98 162.851 199.03 162.851 199.121C162.851 199.148 162.837 199.194 162.81 199.258C162.791 199.312 162.769 199.34 162.741 199.34C162.468 199.358 162.167 199.408 161.839 199.49C161.511 199.563 161.265 199.632 161.101 199.695L160.978 199.723ZM166.405 199.654C166.369 199.618 166.351 199.54 166.351 199.422C166.351 199.312 166.369 199.258 166.405 199.258C166.478 199.258 166.578 199.244 166.706 199.217C166.834 199.189 166.952 199.153 167.062 199.107C167.171 199.062 167.23 199.021 167.239 198.984C167.276 198.857 167.299 198.711 167.308 198.547C167.326 198.383 167.335 198.21 167.335 198.027V192.107C167.335 191.798 167.308 191.506 167.253 191.232C167.216 191.087 166.984 191.014 166.556 191.014H166.433C166.378 191.014 166.351 190.964 166.351 190.863C166.351 190.717 166.378 190.645 166.433 190.645C166.897 190.599 167.289 190.526 167.608 190.426C167.927 190.316 168.146 190.23 168.265 190.166L168.333 190.125H168.36C168.397 190.125 168.433 190.152 168.47 190.207C168.506 190.253 168.529 190.298 168.538 190.344C168.438 190.645 168.388 191.041 168.388 191.533V196.318C168.57 196.282 168.684 196.241 168.729 196.195L169.358 195.662L169.851 195.252C170.006 195.124 170.138 195.006 170.247 194.896C170.366 194.787 170.425 194.687 170.425 194.596C170.425 194.477 170.325 194.413 170.124 194.404C169.942 194.395 169.837 194.377 169.81 194.35C169.737 194.167 169.741 194.062 169.823 194.035H170.903C171.222 194.035 171.482 194.026 171.683 194.008C171.883 193.99 172.125 193.976 172.407 193.967C172.462 193.976 172.485 194.044 172.476 194.172C172.466 194.29 172.439 194.35 172.394 194.35C172.321 194.35 172.216 194.363 172.079 194.391C171.951 194.418 171.828 194.45 171.71 194.486C171.591 194.514 171.505 194.546 171.45 194.582C171.35 194.637 171.177 194.755 170.931 194.938C170.694 195.12 170.438 195.329 170.165 195.566C169.892 195.794 169.646 196.018 169.427 196.236C170.129 196.984 170.675 197.585 171.067 198.041C171.468 198.497 171.728 198.779 171.847 198.889C172.002 199.016 172.198 199.117 172.435 199.189C172.672 199.253 172.84 199.285 172.94 199.285C172.977 199.285 172.995 199.358 172.995 199.504C172.995 199.595 172.991 199.645 172.981 199.654L171.491 199.586L170.069 199.654C170.033 199.618 170.015 199.545 170.015 199.436C170.015 199.335 170.033 199.285 170.069 199.285C170.16 199.285 170.265 199.267 170.384 199.23C170.502 199.194 170.562 199.153 170.562 199.107C170.562 199.089 170.557 199.076 170.548 199.066L168.552 196.906L168.388 196.947V197.768C168.388 198.068 168.397 198.324 168.415 198.533C168.442 198.734 168.47 198.884 168.497 198.984C168.515 199.021 168.579 199.062 168.688 199.107C168.798 199.153 168.916 199.189 169.044 199.217C169.172 199.244 169.263 199.258 169.317 199.258C169.345 199.258 169.363 199.312 169.372 199.422C169.381 199.531 169.377 199.609 169.358 199.654L167.896 199.586L166.405 199.654ZM173.392 199.654C173.355 199.618 173.337 199.54 173.337 199.422C173.337 199.312 173.355 199.258 173.392 199.258C173.465 199.258 173.565 199.244 173.692 199.217C173.82 199.189 173.938 199.153 174.048 199.107C174.157 199.062 174.216 199.021 174.226 198.984C174.262 198.857 174.285 198.711 174.294 198.547C174.312 198.383 174.321 198.21 174.321 198.027V195.443C174.321 195.097 174.257 194.851 174.13 194.705C174.039 194.596 173.929 194.523 173.802 194.486C173.683 194.45 173.574 194.432 173.474 194.432C173.382 194.423 173.337 194.409 173.337 194.391C173.337 194.172 173.364 194.058 173.419 194.049C173.902 193.976 174.294 193.912 174.595 193.857C174.896 193.794 175.082 193.753 175.155 193.734L175.374 193.68C175.41 193.671 175.433 193.707 175.442 193.789C175.451 193.871 175.451 193.93 175.442 193.967C175.424 194.094 175.41 194.204 175.401 194.295C175.392 194.386 175.388 194.459 175.388 194.514C175.388 194.55 175.397 194.568 175.415 194.568C175.424 194.568 175.438 194.559 175.456 194.541C175.666 194.322 175.948 194.117 176.304 193.926C176.668 193.725 177.015 193.625 177.343 193.625C177.981 193.625 178.427 193.853 178.683 194.309C178.938 194.764 179.065 195.503 179.065 196.523V197.768C179.065 198.032 179.075 198.264 179.093 198.465C179.111 198.665 179.138 198.839 179.175 198.984C179.193 199.021 179.257 199.062 179.366 199.107C179.476 199.153 179.594 199.189 179.722 199.217C179.849 199.244 179.94 199.258 179.995 199.258C180.022 199.258 180.041 199.312 180.05 199.422C180.059 199.531 180.054 199.609 180.036 199.654L178.573 199.586L177.138 199.654C177.101 199.618 177.083 199.54 177.083 199.422C177.083 199.312 177.101 199.258 177.138 199.258C177.211 199.258 177.306 199.244 177.425 199.217C177.543 199.189 177.653 199.153 177.753 199.107C177.853 199.062 177.908 199.021 177.917 198.984C177.953 198.857 177.976 198.711 177.985 198.547C178.004 198.383 178.013 198.21 178.013 198.027V196.66C178.013 195.812 177.903 195.234 177.685 194.924C177.466 194.614 177.11 194.459 176.618 194.459C176.427 194.459 176.235 194.514 176.044 194.623C175.853 194.723 175.693 194.842 175.565 194.979C175.438 195.115 175.374 195.243 175.374 195.361V197.768C175.374 198.032 175.383 198.264 175.401 198.465C175.42 198.665 175.447 198.839 175.483 198.984C175.502 199.021 175.565 199.062 175.675 199.107C175.784 199.153 175.903 199.189 176.03 199.217C176.158 199.244 176.249 199.258 176.304 199.258C176.331 199.258 176.349 199.312 176.358 199.422C176.368 199.531 176.363 199.609 176.345 199.654L174.882 199.586L173.392 199.654ZM183.864 199.709C183.317 199.709 182.816 199.572 182.36 199.299C181.905 199.025 181.54 198.656 181.267 198.191C181.002 197.727 180.87 197.216 180.87 196.66C180.87 196.095 180.998 195.585 181.253 195.129C181.517 194.673 181.873 194.313 182.319 194.049C182.766 193.775 183.272 193.639 183.837 193.639C184.384 193.639 184.881 193.775 185.327 194.049C185.783 194.322 186.143 194.687 186.407 195.143C186.681 195.598 186.817 196.104 186.817 196.66C186.817 197.216 186.685 197.727 186.421 198.191C186.157 198.656 185.801 199.025 185.354 199.299C184.917 199.572 184.42 199.709 183.864 199.709ZM183.987 199.176C184.315 199.176 184.603 199.071 184.849 198.861C185.095 198.652 185.286 198.369 185.423 198.014C185.569 197.658 185.642 197.271 185.642 196.852C185.642 196.359 185.55 195.913 185.368 195.512C185.186 195.102 184.944 194.778 184.644 194.541C184.352 194.295 184.033 194.172 183.687 194.172C183.368 194.172 183.08 194.277 182.825 194.486C182.579 194.687 182.388 194.96 182.251 195.307C182.114 195.644 182.046 196.027 182.046 196.455C182.046 196.947 182.132 197.403 182.306 197.822C182.488 198.232 182.725 198.561 183.017 198.807C183.317 199.053 183.641 199.176 183.987 199.176ZM190.81 199.764C190.709 199.764 190.655 199.745 190.646 199.709C190.536 199.463 190.418 199.194 190.29 198.902C190.172 198.602 190.044 198.278 189.907 197.932C189.625 197.248 189.36 196.633 189.114 196.086C188.868 195.53 188.581 194.96 188.253 194.377C188.134 194.176 187.888 194.076 187.515 194.076C187.478 194.076 187.46 194.017 187.46 193.898C187.46 193.789 187.478 193.716 187.515 193.68C187.706 193.689 187.92 193.707 188.157 193.734C188.394 193.753 188.631 193.757 188.868 193.748L190.235 193.68C190.254 193.716 190.258 193.794 190.249 193.912C190.249 194.021 190.235 194.076 190.208 194.076C189.752 194.076 189.524 194.181 189.524 194.391C189.524 194.454 189.675 194.796 189.976 195.416C190.276 196.027 190.668 196.879 191.151 197.973C191.47 197.07 191.721 196.359 191.903 195.84C192.095 195.32 192.19 195.024 192.19 194.951C192.19 194.906 192.163 194.828 192.108 194.719C192.063 194.609 192.004 194.486 191.931 194.35C191.858 194.24 191.757 194.167 191.63 194.131C191.502 194.094 191.37 194.076 191.233 194.076C191.197 194.076 191.179 194.017 191.179 193.898C191.179 193.789 191.197 193.716 191.233 193.68C191.425 193.689 191.634 193.702 191.862 193.721C192.099 193.739 192.332 193.748 192.56 193.748C192.851 193.748 193.106 193.739 193.325 193.721C193.553 193.702 193.744 193.689 193.899 193.68C193.918 193.753 193.927 193.83 193.927 193.912C193.927 194.003 193.913 194.058 193.886 194.076C193.448 194.076 193.229 194.254 193.229 194.609C193.229 194.792 193.731 195.913 194.733 197.973C194.916 197.408 195.093 196.888 195.267 196.414C195.44 195.931 195.581 195.53 195.69 195.211C195.8 194.883 195.854 194.664 195.854 194.555C195.854 194.236 195.554 194.076 194.952 194.076H194.897C194.861 194.076 194.843 194.017 194.843 193.898C194.843 193.789 194.861 193.716 194.897 193.68C195.098 193.689 195.317 193.702 195.554 193.721C195.791 193.739 196.032 193.748 196.278 193.748C196.497 193.748 196.707 193.739 196.907 193.721C197.117 193.702 197.313 193.689 197.495 193.68C197.513 193.753 197.522 193.821 197.522 193.885C197.522 194.012 197.5 194.076 197.454 194.076C197.336 194.076 197.176 194.117 196.976 194.199C196.775 194.272 196.643 194.395 196.579 194.568L194.788 199.463C194.724 199.663 194.597 199.764 194.405 199.764C194.305 199.764 194.25 199.745 194.241 199.709L192.56 195.689L191.179 199.463C191.151 199.527 191.101 199.59 191.028 199.654C190.965 199.727 190.892 199.764 190.81 199.764ZM201.392 196.893C201.328 196.893 201.296 196.842 201.296 196.742C201.296 196.277 201.351 196.045 201.46 196.045L204.782 195.881C204.837 195.881 204.864 195.922 204.864 196.004C204.864 196.077 204.855 196.2 204.837 196.373C204.819 196.546 204.782 196.66 204.728 196.715L204.687 196.742L201.392 196.893ZM213.272 199.695C212.935 199.695 212.767 199.659 212.767 199.586V197.234H209.308C209.244 197.161 209.212 197.02 209.212 196.811L213.354 190.959C213.437 190.85 213.541 190.795 213.669 190.795C213.787 190.795 213.847 190.84 213.847 190.932V196.441H214.694C214.84 196.441 214.913 196.66 214.913 197.098C214.913 197.143 214.886 197.189 214.831 197.234H213.847V199.627C213.819 199.673 213.628 199.695 213.272 199.695ZM210.278 196.441H212.767V192.805C212.767 192.723 212.744 192.682 212.698 192.682L212.685 192.709L210.196 196.277C210.187 196.286 210.183 196.3 210.183 196.318C210.183 196.4 210.215 196.441 210.278 196.441ZM218.646 199.736C217.889 199.736 217.274 199.531 216.8 199.121C216.335 198.711 216.103 198.173 216.103 197.508C216.103 197.079 216.262 196.678 216.581 196.305C216.9 195.922 217.333 195.576 217.88 195.266C217.925 195.238 217.925 195.211 217.88 195.184C217.524 194.974 217.201 194.682 216.909 194.309C216.627 193.926 216.485 193.507 216.485 193.051C216.485 192.659 216.59 192.294 216.8 191.957C217.009 191.62 217.287 191.346 217.634 191.137C217.98 190.927 218.354 190.822 218.755 190.822C219.174 190.822 219.552 190.909 219.89 191.082C220.227 191.255 220.496 191.497 220.696 191.807C220.897 192.117 220.997 192.481 220.997 192.9C220.997 193.602 220.487 194.272 219.466 194.91C219.429 194.938 219.429 194.965 219.466 194.992C219.767 195.165 220.054 195.375 220.327 195.621C220.601 195.858 220.824 196.122 220.997 196.414C221.17 196.697 221.257 197.002 221.257 197.33C221.257 197.777 221.134 198.182 220.888 198.547C220.651 198.911 220.332 199.203 219.931 199.422C219.539 199.632 219.11 199.736 218.646 199.736ZM219.001 194.664C219.019 194.664 219.047 194.655 219.083 194.637C219.703 194.227 220.013 193.671 220.013 192.969C220.013 192.677 219.953 192.408 219.835 192.162C219.726 191.907 219.571 191.702 219.37 191.547C219.17 191.383 218.937 191.301 218.673 191.301C218.336 191.301 218.053 191.447 217.825 191.738C217.606 192.03 217.497 192.413 217.497 192.887C217.497 193.507 217.971 194.09 218.919 194.637C218.946 194.655 218.974 194.664 219.001 194.664ZM218.673 199.244C219.129 199.244 219.489 199.107 219.753 198.834C220.017 198.561 220.149 198.191 220.149 197.727C220.149 197.408 220.058 197.12 219.876 196.865C219.703 196.601 219.507 196.378 219.288 196.195C219.069 196.013 218.896 195.881 218.769 195.799C218.595 195.68 218.477 195.612 218.413 195.594C218.358 195.566 218.322 195.553 218.304 195.553C218.285 195.553 218.258 195.566 218.222 195.594C218.185 195.612 218.144 195.639 218.099 195.676C217.771 195.913 217.534 196.168 217.388 196.441C217.251 196.706 217.183 197.048 217.183 197.467C217.183 197.995 217.333 198.424 217.634 198.752C217.935 199.08 218.281 199.244 218.673 199.244ZM222.815 199.613C222.779 199.613 222.743 199.563 222.706 199.463C222.679 199.354 222.665 199.267 222.665 199.203C223.33 198.529 223.937 197.836 224.483 197.125C225.03 196.414 225.468 195.73 225.796 195.074C226.124 194.409 226.288 193.83 226.288 193.338C226.288 192.846 226.165 192.467 225.919 192.203C225.673 191.93 225.349 191.793 224.948 191.793C224.192 191.793 223.586 192.171 223.13 192.928C223.075 192.928 223.016 192.9 222.952 192.846C222.897 192.782 222.87 192.736 222.87 192.709C222.897 192.6 222.975 192.445 223.103 192.244C223.239 192.035 223.417 191.825 223.636 191.615C223.864 191.396 224.132 191.214 224.442 191.068C224.752 190.913 225.103 190.836 225.495 190.836C225.905 190.836 226.256 190.941 226.548 191.15C226.84 191.36 227.063 191.638 227.218 191.984C227.382 192.322 227.464 192.682 227.464 193.064C227.464 193.493 227.377 193.926 227.204 194.363C227.031 194.792 226.803 195.211 226.521 195.621C226.247 196.031 225.951 196.423 225.632 196.797C225.313 197.161 225.003 197.494 224.702 197.795C224.401 198.087 224.146 198.333 223.937 198.533C223.909 198.579 223.918 198.611 223.964 198.629H226.603C226.858 198.629 227.04 198.556 227.149 198.41C227.268 198.264 227.386 197.986 227.505 197.576C227.55 197.476 227.614 197.426 227.696 197.426C227.824 197.426 227.906 197.444 227.942 197.48C227.724 198.556 227.601 199.194 227.573 199.395C227.564 199.54 227.473 199.613 227.3 199.613H222.815ZM230.567 199.695C230.467 199.695 230.362 199.65 230.253 199.559C230.144 199.458 230.089 199.376 230.089 199.312L233.726 192.053H230.431C230.23 192.053 230.062 192.153 229.925 192.354C229.788 192.554 229.67 192.814 229.569 193.133C229.56 193.169 229.496 193.192 229.378 193.201C229.259 193.21 229.168 193.201 229.104 193.174C229.114 193.128 229.136 193.023 229.173 192.859C229.209 192.686 229.25 192.49 229.296 192.271C229.351 192.044 229.396 191.825 229.433 191.615C229.478 191.406 229.51 191.242 229.528 191.123C229.547 191.014 229.619 190.959 229.747 190.959H233.698C233.771 190.959 233.853 190.959 233.944 190.959C234.035 190.95 234.14 190.941 234.259 190.932L234.614 190.918C234.678 190.918 234.71 190.959 234.71 191.041C234.71 191.16 234.669 191.296 234.587 191.451C234.505 191.606 234.414 191.775 234.313 191.957L230.718 199.654C230.69 199.682 230.64 199.695 230.567 199.695ZM238.429 199.695C237.927 199.695 237.476 199.559 237.075 199.285C236.683 199.012 236.373 198.652 236.146 198.205C235.927 197.758 235.817 197.28 235.817 196.77C235.817 196.059 235.95 195.398 236.214 194.787C236.478 194.167 236.838 193.602 237.294 193.092C237.75 192.572 238.269 192.117 238.853 191.725C239.436 191.333 240.047 191.014 240.685 190.768C240.739 190.768 240.803 190.818 240.876 190.918C240.958 191.018 240.999 191.091 240.999 191.137C240.078 191.538 239.295 192.025 238.647 192.6C238.009 193.165 237.567 193.898 237.321 194.801C237.312 194.892 237.317 194.938 237.335 194.938L237.376 194.91C237.467 194.837 237.604 194.764 237.786 194.691C237.968 194.609 238.164 194.541 238.374 194.486C238.593 194.432 238.793 194.404 238.976 194.404C239.404 194.404 239.787 194.532 240.124 194.787C240.461 195.033 240.73 195.352 240.931 195.744C241.131 196.127 241.231 196.528 241.231 196.947C241.231 197.449 241.099 197.909 240.835 198.328C240.58 198.747 240.238 199.08 239.81 199.326C239.381 199.572 238.921 199.695 238.429 199.695ZM238.593 199.162C238.994 199.162 239.345 198.989 239.646 198.643C239.946 198.287 240.097 197.818 240.097 197.234C240.097 196.615 239.946 196.104 239.646 195.703C239.354 195.302 238.921 195.102 238.347 195.102C238.101 195.102 237.864 195.17 237.636 195.307C237.408 195.434 237.262 195.571 237.198 195.717C237.08 195.999 237.011 196.341 236.993 196.742C236.993 197.161 237.062 197.558 237.198 197.932C237.344 198.296 237.535 198.592 237.772 198.82C238.019 199.048 238.292 199.162 238.593 199.162ZM246.604 199.695C246.55 199.695 246.522 199.618 246.522 199.463V199.299C246.522 199.253 246.504 199.235 246.468 199.244C245.966 199.527 245.483 199.668 245.019 199.668C244.517 199.668 244.062 199.545 243.651 199.299C243.25 199.044 242.931 198.711 242.694 198.301C242.466 197.882 242.353 197.426 242.353 196.934C242.353 196.496 242.435 196.077 242.599 195.676C242.772 195.275 243 194.919 243.282 194.609C243.574 194.29 243.902 194.044 244.267 193.871C244.631 193.689 245.009 193.598 245.401 193.598C245.793 193.598 246.135 193.675 246.427 193.83C246.491 193.83 246.522 193.748 246.522 193.584V192.107C246.522 191.798 246.495 191.506 246.44 191.232C246.404 191.087 246.172 191.014 245.743 191.014H245.62C245.565 191.014 245.538 190.964 245.538 190.863C245.538 190.717 245.565 190.645 245.62 190.645C246.131 190.599 246.532 190.531 246.823 190.439C247.124 190.348 247.338 190.257 247.466 190.166L247.521 190.125H247.548C247.584 190.125 247.621 190.152 247.657 190.207C247.694 190.253 247.716 190.298 247.726 190.344C247.625 190.645 247.575 191.041 247.575 191.533V197.686C247.575 198.114 247.603 198.46 247.657 198.725C247.685 198.816 247.762 198.875 247.89 198.902C248.026 198.921 248.168 198.939 248.313 198.957L248.437 198.971C248.464 198.98 248.478 199.035 248.478 199.135C248.478 199.271 248.45 199.34 248.396 199.34C248.095 199.358 247.785 199.408 247.466 199.49C247.147 199.563 246.901 199.622 246.728 199.668L246.604 199.695ZM245.538 198.998C245.848 198.998 246.09 198.93 246.263 198.793C246.436 198.647 246.522 198.456 246.522 198.219V194.965C246.522 194.773 246.418 194.596 246.208 194.432C246.007 194.258 245.679 194.172 245.224 194.172C244.877 194.172 244.576 194.281 244.321 194.5C244.066 194.719 243.87 195.01 243.733 195.375C243.597 195.73 243.528 196.118 243.528 196.537C243.528 196.975 243.606 197.38 243.761 197.754C243.925 198.128 244.157 198.428 244.458 198.656C244.759 198.884 245.119 198.998 245.538 198.998Z" fill="white"/>
<defs>
<filter id="filter0_d_66_44" x="0" y="0" width="322" height="250" filterUnits="userSpaceOnUse" color-interpolation-filters="sRGB">
<feFlood flood-opacity="0" result="BackgroundImageFix"/>
<feColorMatrix in="SourceAlpha" type="matrix" values="0 0 0 0 0 0 0 0 0 0 0 0 0 0 0 0 0 0 127 0" result="hardAlpha"/>
<feOffset/>
<feGaussianBlur stdDeviation="4"/>
<feComposite in2="hardAlpha" operator="out"/>
<feColorMatrix type="matrix" values="0 0 0 0 0 0 0 0 0 0 0 0 0 0 0 0 0 0 0.25 0"/>
<feBlend mode="normal" in2="BackgroundImageFix" result="effect1_dropShadow_66_44"/>
<feBlend mode="normal" in="SourceGraphic" in2="effect1_dropShadow_66_44" result="shape"/>
</filter>
</defs>
</svg>
