<svg width="108" height="47" viewBox="0 0 108 47" fill="none" xmlns="http://www.w3.org/2000/svg">
<path d="M0 23.5C0 10.5213 10.5213 0 23.5 0H102C105.314 0 108 2.68629 108 6V41C108 44.3137 105.314 47 102 47H23C10.2975 47 0 36.7025 0 24V23.5Z" fill="white"/>
<path d="M41.1896 28.188H41.8266L40.7626 29.077L40.2936 29.021L40.5596 27.341V20.383C40.499 20.327 40.4056 20.264 40.2796 20.194C40.1583 20.124 40.016 20.0517 39.8526 19.977C39.6893 19.8977 39.5166 19.8207 39.3346 19.746V19.473L41.6026 18.913H41.7986L41.7006 20.145V26.879C41.7006 27.1963 41.7706 27.4717 41.9106 27.705C42.0506 27.9337 42.2536 28.111 42.5196 28.237C42.7903 28.363 43.1146 28.426 43.4926 28.426C43.9173 28.426 44.279 28.3233 44.5776 28.118C44.881 27.908 45.112 27.607 45.2706 27.215C45.434 26.8183 45.5156 26.347 45.5156 25.801C45.5156 25.283 45.4293 24.8467 45.2566 24.492C45.0886 24.1373 44.846 23.869 44.5286 23.687C44.216 23.505 43.8426 23.414 43.4086 23.414C43.1286 23.414 42.858 23.4373 42.5966 23.484C42.34 23.5307 42.0926 23.6007 41.8546 23.694C41.6213 23.7873 41.402 23.9017 41.1966 24.037V23.463C41.5093 23.2857 41.7963 23.1363 42.0576 23.015C42.319 22.8937 42.557 22.7957 42.7716 22.721C42.991 22.6417 43.194 22.5857 43.3806 22.553C43.572 22.5157 43.747 22.497 43.9056 22.497C44.531 22.497 45.0583 22.623 45.4876 22.875C45.9216 23.1223 46.2483 23.4723 46.4676 23.925C46.6916 24.3777 46.8036 24.9097 46.8036 25.521C46.8036 26.0717 46.7196 26.571 46.5516 27.019C46.3883 27.4623 46.1526 27.8427 45.8446 28.16C45.5413 28.4773 45.182 28.7223 44.7666 28.895C44.3513 29.063 43.894 29.147 43.3946 29.147C43.1146 29.147 42.8486 29.112 42.5966 29.042C42.3446 28.9767 42.102 28.874 41.8686 28.734C41.64 28.594 41.4136 28.412 41.1896 28.188ZM52.3173 24.926L52.2823 25.563C51.6477 25.6797 51.1343 25.7987 50.7423 25.92C50.3503 26.0413 50.047 26.1697 49.8323 26.305C49.6223 26.4357 49.4777 26.578 49.3983 26.732C49.319 26.886 49.2793 27.0587 49.2793 27.25C49.2793 27.5767 49.3773 27.8263 49.5733 27.999C49.7693 28.167 50.0307 28.251 50.3573 28.251C50.6093 28.251 50.838 28.195 51.0433 28.083C51.2533 27.971 51.419 27.824 51.5403 27.642C51.6663 27.4553 51.7293 27.25 51.7293 27.026V24.506C51.7293 24.1047 51.6337 23.7967 51.4423 23.582C51.2557 23.3673 50.929 23.26 50.4623 23.26C50.271 23.26 50.075 23.2787 49.8743 23.316C49.6737 23.3533 49.48 23.4093 49.2933 23.484L49.7133 23.099C49.6853 23.253 49.655 23.3977 49.6223 23.533C49.5943 23.6683 49.5617 23.7897 49.5243 23.897C49.487 24.0043 49.4427 24.0977 49.3913 24.177C49.312 24.289 49.214 24.366 49.0973 24.408C48.9807 24.4453 48.8547 24.464 48.7193 24.464C48.528 24.464 48.3787 24.4243 48.2713 24.345C48.164 24.261 48.1103 24.1607 48.1103 24.044C48.1103 23.89 48.185 23.7267 48.3343 23.554C48.4883 23.3813 48.6937 23.218 48.9503 23.064C49.207 22.91 49.501 22.784 49.8323 22.686C50.1683 22.588 50.5183 22.539 50.8823 22.539C51.363 22.539 51.748 22.609 52.0373 22.749C52.3313 22.889 52.5437 23.0943 52.6743 23.365C52.805 23.631 52.8703 23.953 52.8703 24.331V27.572C52.8703 27.7307 52.8937 27.8613 52.9403 27.964C52.9917 28.0667 53.064 28.1437 53.1573 28.195C53.2507 28.2417 53.3673 28.265 53.5073 28.265C53.6147 28.265 53.729 28.2487 53.8503 28.216C53.9763 28.1833 54.1 28.139 54.2213 28.083V28.503C54.016 28.713 53.799 28.8693 53.5703 28.972C53.3417 29.07 53.127 29.119 52.9263 29.119C52.679 29.119 52.4667 29.063 52.2893 28.951C52.1167 28.8343 51.9837 28.664 51.8903 28.44C51.797 28.216 51.7457 27.9407 51.7363 27.614L51.7853 27.565C51.7247 27.8777 51.6057 28.153 51.4283 28.391C51.251 28.629 51.0293 28.8133 50.7633 28.944C50.502 29.0747 50.2103 29.14 49.8883 29.14C49.3377 29.14 48.8967 28.9977 48.5653 28.713C48.234 28.4237 48.0683 28.013 48.0683 27.481C48.0683 27.187 48.1267 26.921 48.2433 26.683C48.36 26.445 48.57 26.2257 48.8733 26.025C49.1813 25.8243 49.613 25.6353 50.1683 25.458C50.7237 25.276 51.44 25.0987 52.3173 24.926ZM58.4046 22.497C58.8573 22.497 59.2119 22.5483 59.4686 22.651C59.7299 22.749 59.9166 22.8703 60.0286 23.015C60.1406 23.1597 60.1966 23.2997 60.1966 23.435C60.1966 23.5797 60.1639 23.7103 60.0986 23.827C60.0379 23.9437 59.9516 24.0347 59.8396 24.1C59.7276 24.1653 59.5993 24.198 59.4546 24.198C59.3519 24.198 59.2446 24.1653 59.1326 24.1C59.0253 24.0347 58.9156 23.9553 58.8036 23.862C58.6963 23.764 58.5843 23.6683 58.4676 23.575C58.3556 23.477 58.2389 23.3953 58.1176 23.33C57.9963 23.2647 57.8749 23.232 57.7536 23.232C57.4316 23.232 57.1329 23.3137 56.8576 23.477C56.5869 23.6357 56.3699 23.8807 56.2066 24.212C56.0433 24.5387 55.9616 24.9517 55.9616 25.451C55.9616 26.0203 56.0549 26.5103 56.2416 26.921C56.4329 27.327 56.7059 27.6373 57.0606 27.852C57.4153 28.0667 57.8399 28.174 58.3346 28.174C58.6239 28.174 58.9133 28.1227 59.2026 28.02C59.4966 27.9173 59.7883 27.7703 60.0776 27.579L60.1896 27.957C59.9376 28.2183 59.6786 28.4377 59.4126 28.615C59.1513 28.7877 58.8806 28.9183 58.6006 29.007C58.3253 29.0957 58.0406 29.14 57.7466 29.14C57.1679 29.14 56.6569 29.007 56.2136 28.741C55.7749 28.475 55.4319 28.104 55.1846 27.628C54.9373 27.152 54.8136 26.5967 54.8136 25.962C54.8136 25.458 54.8929 24.996 55.0516 24.576C55.2149 24.1513 55.4483 23.785 55.7516 23.477C56.0596 23.1643 56.4353 22.924 56.8786 22.756C57.3266 22.5833 57.8353 22.497 58.4046 22.497ZM64.7254 25.5L64.8514 25.115L67.6654 28.279L68.5614 28.601V29H65.7124V28.601L66.2584 28.335L64.0324 25.822H62.9544V25.101H64.2844L66.0904 23.309L65.1314 23.05V22.637H68.0224V23.05L67.0984 23.302L64.7254 25.5ZM63.1784 28.286L64.2704 28.601V29H60.9314V28.601L62.0304 28.286V20.383C61.9697 20.327 61.8787 20.264 61.7574 20.194C61.636 20.124 61.4914 20.0517 61.3234 19.977C61.16 19.8977 60.9874 19.8207 60.8054 19.746V19.473L63.0804 18.913H63.2694L63.1784 20.145V28.286Z" fill="#171717"/>
</svg>
