<svg width="106" height="47" viewBox="0 0 106 47" fill="none" xmlns="http://www.w3.org/2000/svg">
<path d="M0 6C0 2.68629 2.68629 0 6 0H82.5C95.4787 0 106 10.5213 106 23.5V23.5C106 36.4787 95.4787 47 82.5 47H6C2.68629 47 0 44.3137 0 41V6Z" fill="white"/>
<path d="M26.8576 25.245C26.8576 25.5787 26.9508 25.8192 27.1371 25.9665C27.3278 26.1138 27.6116 26.1875 27.9886 26.1875C28.1576 26.1875 28.3396 26.1723 28.5346 26.142C28.7339 26.1073 28.9463 26.0575 29.1716 25.9925V26.402C28.8813 26.584 28.6278 26.7292 28.4111 26.8375C28.1944 26.9415 27.9994 27.013 27.8261 27.052C27.6528 27.0953 27.4859 27.117 27.3256 27.117C27.0266 27.117 26.7579 27.0628 26.5196 26.9545C26.2856 26.8462 26.1014 26.6858 25.9671 26.4735C25.8328 26.2568 25.7656 25.9882 25.7656 25.6675V21.93L24.8361 21.501V21.254C25.0008 21.1803 25.1481 21.1088 25.2781 21.0395C25.4124 20.9658 25.5338 20.89 25.6421 20.812C25.7548 20.734 25.8588 20.6538 25.9541 20.5715C26.0494 20.4848 26.1426 20.3917 26.2336 20.292C26.3289 20.1923 26.4243 20.0818 26.5196 19.9605H26.8576V21.202V25.245ZM26.4351 21.7675L26.4481 20.994H29.0091L28.9506 21.7675H26.4351ZM33.7943 26.597L34.8083 26.311V23.113C34.8083 22.8487 34.7563 22.6277 34.6523 22.45C34.5527 22.2723 34.3988 22.138 34.1908 22.047C33.9828 21.956 33.7185 21.9105 33.3978 21.9105C33.0685 21.9105 32.75 21.9603 32.4423 22.06C32.1347 22.1597 31.892 22.281 31.7143 22.424L31.5193 22.1965C31.827 21.9235 32.0935 21.7003 32.3188 21.527C32.5442 21.3537 32.75 21.2193 32.9363 21.124C33.1227 21.0287 33.3068 20.9615 33.4888 20.9225C33.6752 20.8835 33.8788 20.864 34.0998 20.864C34.7152 20.864 35.168 21.0373 35.4583 21.384C35.753 21.7263 35.9003 22.2572 35.9003 22.9765V26.311L36.9338 26.597V27H33.7943V26.597ZM32.7803 27H29.6408V26.597L30.6743 26.311V18.979C30.618 18.927 30.5292 18.8707 30.4078 18.81C30.2865 18.745 30.1457 18.6778 29.9853 18.6085C29.8293 18.5348 29.6668 18.4655 29.4978 18.4005V18.108L31.6623 17.601H31.8573L31.7598 18.7645V26.311L32.7803 26.597V27ZM40.5369 20.864C41.0742 20.864 41.5205 20.9788 41.8759 21.2085C42.2312 21.4338 42.502 21.7632 42.6884 22.1965C42.8747 22.6298 42.9809 23.1585 43.0069 23.7825H38.5999L38.5934 23.1585L42.2464 23.0675L41.8304 23.2885C41.8087 22.9028 41.7437 22.5822 41.6354 22.3265C41.527 22.0665 41.3754 21.8715 41.1804 21.7415C40.9897 21.6115 40.7514 21.5465 40.4654 21.5465C40.123 21.5465 39.8262 21.6288 39.5749 21.7935C39.3235 21.9538 39.1285 22.1987 38.9899 22.528C38.8555 22.853 38.7884 23.2625 38.7884 23.7565C38.7884 24.2895 38.8815 24.738 39.0679 25.102C39.2585 25.466 39.5315 25.7412 39.8869 25.9275C40.2422 26.1095 40.6734 26.2005 41.1804 26.2005C41.397 26.2005 41.605 26.1788 41.8044 26.1355C42.0037 26.0878 42.1944 26.0228 42.3764 25.9405C42.5627 25.8582 42.7404 25.765 42.9094 25.661L43.0069 26.051C42.7599 26.285 42.5042 26.4822 42.2399 26.6425C41.9755 26.8028 41.7047 26.9242 41.4274 27.0065C41.1544 27.0888 40.8792 27.13 40.6019 27.13C40.0255 27.13 39.5185 27.0043 39.0809 26.753C38.6475 26.5017 38.3074 26.1485 38.0604 25.6935C37.8177 25.2385 37.6964 24.7012 37.6964 24.0815C37.6964 23.4618 37.8112 22.9093 38.0409 22.424C38.2749 21.9387 38.6042 21.5573 39.0289 21.28C39.4535 21.0027 39.9562 20.864 40.5369 20.864ZM52.0662 22.931C52.0662 22.5193 51.9384 22.1878 51.6827 21.9365C51.4271 21.6808 51.0219 21.553 50.4672 21.553C50.0382 21.553 49.6742 21.6527 49.3752 21.852C49.0762 22.047 48.8487 22.3265 48.6927 22.6905C48.5411 23.0502 48.4652 23.4792 48.4652 23.9775C48.4652 24.4758 48.5454 24.894 48.7057 25.232C48.8661 25.5657 49.0936 25.817 49.3882 25.986C49.6872 26.1507 50.0426 26.233 50.4542 26.233C50.8182 26.233 51.1692 26.181 51.5072 26.077C51.8452 25.9687 52.1811 25.8083 52.5147 25.596V25.9535C52.1291 26.2092 51.8041 26.4172 51.5397 26.5775C51.2797 26.7335 51.0587 26.8505 50.8767 26.9285C50.6947 27.0065 50.5322 27.0585 50.3892 27.0845C50.2462 27.1148 50.1011 27.13 49.9537 27.13C49.3644 27.13 48.8682 27.013 48.4652 26.779C48.0622 26.5407 47.7567 26.207 47.5487 25.778C47.3451 25.349 47.2432 24.8463 47.2432 24.27C47.2432 23.7457 47.3299 23.2733 47.5032 22.853C47.6766 22.4327 47.9149 22.0752 48.2182 21.7805C48.5216 21.4858 48.8747 21.2605 49.2777 21.1045C49.6807 20.9442 50.1119 20.864 50.5712 20.864C50.8269 20.864 51.0652 20.8835 51.2862 20.9225C51.5116 20.9615 51.7391 21.0243 51.9687 21.111C52.1984 21.1933 52.4411 21.306 52.6967 21.449L52.0662 21.7935V18.8685C52.0142 18.8252 51.9254 18.7732 51.7997 18.7125C51.6784 18.6518 51.5441 18.5912 51.3967 18.5305C51.2494 18.4698 51.1129 18.4135 50.9872 18.3615V18.082L53.0542 17.601H53.2427L53.1517 18.771V25.8235C53.1907 25.8538 53.2514 25.8928 53.3337 25.9405C53.4161 25.9838 53.5049 26.0315 53.6002 26.0835C53.6999 26.1312 53.7952 26.1745 53.8862 26.2135C53.9816 26.2525 54.0639 26.2807 54.1332 26.298V26.5255L52.5017 27.117H52.3197L52.0662 25.947V22.931ZM58.9468 20.8965C59.1635 20.8965 59.3281 20.9528 59.4408 21.0655C59.5535 21.1782 59.6098 21.332 59.6098 21.527C59.6098 21.7523 59.5578 21.9322 59.4538 22.0665C59.3498 22.1965 59.2176 22.2615 59.0573 22.2615C58.9143 22.2615 58.7713 22.2485 58.6283 22.2225C58.4853 22.1965 58.3401 22.1705 58.1928 22.1445C58.0498 22.1185 57.9003 22.1055 57.7443 22.1055C57.6446 22.1055 57.5385 22.1163 57.4258 22.138C57.3131 22.1597 57.2005 22.1943 57.0878 22.242C56.9751 22.2897 56.8668 22.3503 56.7628 22.424L56.5938 22.1965C56.8971 21.9452 57.1658 21.7372 57.3998 21.5725C57.6338 21.4078 57.844 21.2757 58.0303 21.176C58.2166 21.0763 58.3835 21.0048 58.5308 20.9615C58.6825 20.9182 58.8211 20.8965 58.9468 20.8965ZM56.9448 22.138V26.311L58.0433 26.597V27H54.8258V26.597L55.8593 26.311V22.359C55.803 22.307 55.7228 22.2528 55.6188 22.1965C55.5148 22.1358 55.3935 22.0708 55.2548 22.0015C55.1161 21.9278 54.9666 21.8563 54.8063 21.787V21.579L56.5743 20.851H56.7563L56.9448 22.138ZM64.3651 23.152L64.2936 23.776C63.687 23.8843 63.1951 23.9948 62.8181 24.1075C62.4455 24.2202 62.1595 24.3372 61.9601 24.4585C61.7608 24.5798 61.6243 24.7142 61.5506 24.8615C61.477 25.0045 61.4401 25.1648 61.4401 25.3425C61.4401 25.6458 61.5311 25.8777 61.7131 26.038C61.8995 26.194 62.1508 26.272 62.4671 26.272C62.7098 26.272 62.9286 26.22 63.1236 26.116C63.323 26.012 63.4811 25.8755 63.5981 25.7065C63.7195 25.5332 63.7801 25.3425 63.7801 25.1345V22.788C63.7801 22.4023 63.6891 22.1077 63.5071 21.904C63.3251 21.7003 63.011 21.5985 62.5646 21.5985C62.374 21.5985 62.1833 21.6158 61.9926 21.6505C61.802 21.6852 61.62 21.735 61.4466 21.8L61.8431 21.4295C61.8171 21.5768 61.789 21.7133 61.7586 21.839C61.7326 21.9647 61.7001 22.0795 61.6611 22.1835C61.6265 22.2832 61.5853 22.372 61.5376 22.45C61.464 22.5627 61.373 22.6385 61.2646 22.6775C61.1563 22.7165 61.035 22.736 60.9006 22.736C60.71 22.736 60.5626 22.697 60.4586 22.619C60.359 22.5367 60.3091 22.4392 60.3091 22.3265C60.3091 22.1835 60.3785 22.0318 60.5171 21.8715C60.6601 21.7068 60.853 21.5508 61.0956 21.4035C61.3426 21.2562 61.6243 21.137 61.9406 21.046C62.2613 20.9507 62.5993 20.903 62.9546 20.903C63.4183 20.903 63.7888 20.9702 64.0661 21.1045C64.3478 21.2388 64.5515 21.4338 64.6771 21.6895C64.8028 21.9452 64.8656 22.2528 64.8656 22.6125V25.6285C64.8656 25.7758 64.8895 25.8993 64.9371 25.999C64.9848 26.0943 65.052 26.1658 65.1386 26.2135C65.2296 26.2568 65.3423 26.2785 65.4766 26.2785C65.5763 26.2785 65.6825 26.2655 65.7951 26.2395C65.9078 26.2092 66.0226 26.1702 66.1396 26.1225V26.5385C65.949 26.7335 65.7453 26.8787 65.5286 26.974C65.312 27.065 65.1083 27.1105 64.9176 27.1105C64.6836 27.1105 64.4821 27.0563 64.3131 26.948C64.1441 26.8353 64.0141 26.6707 63.9231 26.454C63.8365 26.2373 63.791 25.9708 63.7866 25.6545L63.8321 25.6155C63.7758 25.9188 63.6631 26.1853 63.4941 26.415C63.3295 26.6403 63.1193 26.8158 62.8636 26.9415C62.6123 27.0672 62.3285 27.13 62.0121 27.13C61.4835 27.13 61.061 26.9957 60.7446 26.727C60.4326 26.454 60.2766 26.064 60.2766 25.557C60.2766 25.2797 60.3308 25.0283 60.4391 24.803C60.5518 24.5733 60.7555 24.3632 61.0501 24.1725C61.3448 23.9818 61.7586 23.8042 62.2916 23.6395C62.829 23.4748 63.5201 23.3123 64.3651 23.152ZM67.9398 21.7675L67.6603 21.9235L66.4903 21.6505V21.358L67.7578 20.929L68.0243 20.994H70.8323L70.7673 21.7675H67.9398ZM68.7523 26.311L69.9093 26.597V27H66.6333V26.597L67.6603 26.311V20.669C67.6603 20.136 67.747 19.6767 67.9203 19.291C68.0937 18.901 68.3298 18.5825 68.6288 18.3355C68.9322 18.0885 69.2788 17.9043 69.6688 17.783C70.0588 17.6617 70.4705 17.601 70.9038 17.601C71.2028 17.601 71.4542 17.6227 71.6578 17.666C71.8658 17.705 72.0327 17.7613 72.1583 17.835C72.284 17.9043 72.375 17.9888 72.4313 18.0885C72.4877 18.1838 72.5158 18.29 72.5158 18.407C72.5158 18.6063 72.4487 18.7688 72.3143 18.8945C72.18 19.0158 72.0132 19.0765 71.8138 19.0765C71.7055 19.0765 71.6058 19.0397 71.5148 18.966C71.4282 18.888 71.335 18.8013 71.2353 18.706C71.1357 18.6063 71.0143 18.5197 70.8713 18.446C70.7327 18.368 70.5593 18.329 70.3513 18.329C70.0393 18.329 69.762 18.3875 69.5193 18.5045C69.281 18.6215 69.0925 18.8122 68.9538 19.0765C68.8195 19.3365 68.7523 19.681 68.7523 20.11V26.311ZM73.3732 25.245C73.3732 25.5787 73.4664 25.8192 73.6527 25.9665C73.8434 26.1138 74.1272 26.1875 74.5042 26.1875C74.6732 26.1875 74.8552 26.1723 75.0502 26.142C75.2496 26.1073 75.4619 26.0575 75.6872 25.9925V26.402C75.3969 26.584 75.1434 26.7292 74.9267 26.8375C74.7101 26.9415 74.5151 27.013 74.3417 27.052C74.1684 27.0953 74.0016 27.117 73.8412 27.117C73.5422 27.117 73.2736 27.0628 73.0352 26.9545C72.8012 26.8462 72.6171 26.6858 72.4827 26.4735C72.3484 26.2568 72.2812 25.9882 72.2812 25.6675V21.93L71.3517 21.501V21.254C71.5164 21.1803 71.6637 21.1088 71.7937 21.0395C71.9281 20.9658 72.0494 20.89 72.1577 20.812C72.2704 20.734 72.3744 20.6538 72.4697 20.5715C72.5651 20.4848 72.6582 20.3917 72.7492 20.292C72.8446 20.1923 72.9399 20.0818 73.0352 19.9605H73.3732V21.202V25.245ZM72.9507 21.7675L72.9637 20.994H75.5247L75.4662 21.7675H72.9507ZM78.906 20.864C79.1833 20.864 79.4433 20.89 79.686 20.942C79.933 20.9897 80.2125 21.072 80.5245 21.189L80.661 22.8075H80.128L79.4455 21.215L80.1345 21.8325C79.9091 21.7112 79.6903 21.6223 79.478 21.566C79.2656 21.5053 79.0576 21.475 78.854 21.475C78.438 21.475 78.1173 21.5487 77.892 21.696C77.671 21.839 77.5605 22.0448 77.5605 22.3135C77.5605 22.5605 77.632 22.7533 77.775 22.892C77.918 23.0263 78.1065 23.1347 78.3405 23.217C78.5788 23.295 78.8366 23.373 79.114 23.451C79.322 23.5117 79.5278 23.581 79.7315 23.659C79.9395 23.737 80.128 23.841 80.297 23.971C80.4703 24.101 80.609 24.27 80.713 24.478C80.817 24.6817 80.869 24.9417 80.869 25.258C80.869 25.661 80.7671 26.0012 80.5635 26.2785C80.3641 26.5558 80.0781 26.766 79.7055 26.909C79.3328 27.0477 78.8865 27.117 78.3665 27.117C78.0761 27.117 77.7858 27.0932 77.4955 27.0455C77.2095 27.0022 76.9538 26.935 76.7285 26.844L76.4425 25.1475H77.0015L77.84 26.857L77.0405 26.2785C77.2051 26.3435 77.3568 26.3933 77.4955 26.428C77.6341 26.4627 77.7663 26.4865 77.892 26.4995C78.022 26.5082 78.152 26.5125 78.282 26.5125C78.802 26.5125 79.1985 26.428 79.4715 26.259C79.7445 26.09 79.881 25.8365 79.881 25.4985C79.881 25.2818 79.8246 25.1085 79.712 24.9785C79.6036 24.8442 79.4585 24.738 79.2765 24.66C79.0988 24.582 78.9038 24.517 78.6915 24.465C78.4791 24.4087 78.2711 24.348 78.0675 24.283C77.7988 24.1963 77.5518 24.0902 77.3265 23.9645C77.1055 23.8345 76.93 23.6568 76.8 23.4315C76.67 23.2062 76.605 22.9115 76.605 22.5475C76.605 22.1878 76.7003 21.8845 76.891 21.6375C77.0816 21.3862 77.3503 21.1955 77.697 21.0655C78.0436 20.9312 78.4466 20.864 78.906 20.864Z" fill="#171717"/>
</svg>
