<svg width="106" height="47" viewBox="0 0 106 47" fill="none" xmlns="http://www.w3.org/2000/svg">
<path d="M0 6C0 2.68629 2.68629 0 6 0H82.5C95.4787 0 106 10.5213 106 23.5V23.5C106 36.4787 95.4787 47 82.5 47H6C2.68629 47 0 44.3137 0 41V6Z" fill="#171717"/>
<path d="M54.5029 22.926L54.4679 23.563C53.8332 23.6797 53.3199 23.7987 52.9279 23.92C52.5359 24.0413 52.2325 24.1697 52.0179 24.305C51.8079 24.4357 51.6632 24.578 51.5839 24.732C51.5045 24.886 51.4649 25.0587 51.4649 25.25C51.4649 25.5767 51.5629 25.8263 51.7589 25.999C51.9549 26.167 52.2162 26.251 52.5429 26.251C52.7949 26.251 53.0235 26.195 53.2289 26.083C53.4389 25.971 53.6045 25.824 53.7259 25.642C53.8519 25.4553 53.9149 25.25 53.9149 25.026V22.506C53.9149 22.1047 53.8192 21.7967 53.6279 21.582C53.4412 21.3673 53.1145 21.26 52.6479 21.26C52.4565 21.26 52.2605 21.2787 52.0599 21.316C51.8592 21.3533 51.6655 21.4093 51.4789 21.484L51.8989 21.099C51.8709 21.253 51.8405 21.3977 51.8079 21.533C51.7799 21.6683 51.7472 21.7897 51.7099 21.897C51.6725 22.0043 51.6282 22.0977 51.5769 22.177C51.4975 22.289 51.3995 22.366 51.2829 22.408C51.1662 22.4453 51.0402 22.464 50.9049 22.464C50.7135 22.464 50.5642 22.4243 50.4569 22.345C50.3495 22.261 50.2959 22.1607 50.2959 22.044C50.2959 21.89 50.3705 21.7267 50.5199 21.554C50.6739 21.3813 50.8792 21.218 51.1359 21.064C51.3925 20.91 51.6865 20.784 52.0179 20.686C52.3539 20.588 52.7039 20.539 53.0679 20.539C53.5485 20.539 53.9335 20.609 54.2229 20.749C54.5169 20.889 54.7292 21.0943 54.8599 21.365C54.9905 21.631 55.0559 21.953 55.0559 22.331V25.572C55.0559 25.7307 55.0792 25.8613 55.1259 25.964C55.1772 26.0667 55.2495 26.1437 55.3429 26.195C55.4362 26.2417 55.5529 26.265 55.6929 26.265C55.8002 26.265 55.9145 26.2487 56.0359 26.216C56.1619 26.1833 56.2855 26.139 56.4069 26.083V26.503C56.2015 26.713 55.9845 26.8693 55.7559 26.972C55.5272 27.07 55.3125 27.119 55.1119 27.119C54.8645 27.119 54.6522 27.063 54.4749 26.951C54.3022 26.8343 54.1692 26.664 54.0759 26.44C53.9825 26.216 53.9312 25.9407 53.9219 25.614L53.9709 25.565C53.9102 25.8777 53.7912 26.153 53.6139 26.391C53.4365 26.629 53.2149 26.8133 52.9489 26.944C52.6875 27.0747 52.3959 27.14 52.0739 27.14C51.5232 27.14 51.0822 26.9977 50.7509 26.713C50.4195 26.4237 50.2539 26.013 50.2539 25.481C50.2539 25.187 50.3122 24.921 50.4289 24.683C50.5455 24.445 50.7555 24.2257 51.0589 24.025C51.3669 23.8243 51.7985 23.6353 52.3539 23.458C52.9092 23.276 53.6255 23.0987 54.5029 22.926Z" fill="white"/>
</svg>
