<svg width="106" height="47" viewBox="0 0 106 47" fill="none" xmlns="http://www.w3.org/2000/svg">
<path d="M0 6C0 2.68629 2.68629 0 6 0H82.5C95.4787 0 106 10.5213 106 23.5V23.5C106 36.4787 95.4787 47 82.5 47H6C2.68629 47 0 44.3137 0 41V6Z" fill="#171717"/>
<path d="M25.5286 25.152C25.5286 25.502 25.6289 25.7563 25.8296 25.915C26.0303 26.0737 26.3266 26.153 26.7186 26.153C26.8959 26.153 27.0873 26.1367 27.2926 26.104C27.5026 26.0667 27.7289 26.013 27.9716 25.943V26.363C27.6683 26.559 27.4023 26.713 27.1736 26.825C26.9449 26.937 26.7396 27.014 26.5576 27.056C26.3756 27.098 26.2006 27.119 26.0326 27.119C25.7106 27.119 25.4259 27.063 25.1786 26.951C24.9313 26.8343 24.7353 26.6617 24.5906 26.433C24.4506 26.1997 24.3806 25.9127 24.3806 25.572V21.631L23.4286 21.155V20.917C23.5919 20.8377 23.7413 20.7607 23.8766 20.686C24.0119 20.6067 24.1356 20.5273 24.2476 20.448C24.3643 20.364 24.4739 20.2777 24.5766 20.189C24.6793 20.0957 24.7819 19.9977 24.8846 19.895C24.9873 19.7923 25.0899 19.6803 25.1926 19.559H25.5286V20.854V25.152ZM25.0806 21.428L25.0946 20.637H27.7896L27.7126 21.428H25.0806ZM32.8202 26.601L33.9122 26.286V22.87C33.9122 22.59 33.8562 22.3567 33.7442 22.17C33.6369 21.9787 33.4712 21.834 33.2472 21.736C33.0279 21.638 32.7502 21.589 32.4142 21.589C32.0549 21.589 31.7119 21.645 31.3852 21.757C31.0585 21.869 30.8065 22.0067 30.6292 22.17L30.4052 21.932C30.7179 21.6427 30.9932 21.4047 31.2312 21.218C31.4692 21.0313 31.6885 20.8867 31.8892 20.784C32.0945 20.6767 32.2999 20.602 32.5052 20.56C32.7105 20.518 32.9322 20.497 33.1702 20.497C33.8142 20.497 34.2879 20.6813 34.5912 21.05C34.8992 21.4187 35.0532 21.9903 35.0532 22.765V26.286L36.1662 26.601V27H32.8202V26.601ZM31.7772 27H28.4382V26.601L29.5372 26.286V18.383C29.4765 18.327 29.3855 18.264 29.2642 18.194C29.1429 18.124 28.9982 18.0517 28.8302 17.977C28.6669 17.8977 28.4942 17.8207 28.3122 17.746V17.473L30.5872 16.913H30.7762L30.6852 18.145V26.286L31.7772 26.601V27ZM39.9593 20.497C40.5147 20.497 40.9767 20.6137 41.3453 20.847C41.7187 21.0803 42.0057 21.4233 42.2063 21.876C42.407 22.324 42.5237 22.8747 42.5563 23.528H37.9013V22.898L41.7653 22.786L41.3103 23.031C41.287 22.6343 41.217 22.3007 41.1003 22.03C40.9883 21.7547 40.832 21.547 40.6313 21.407C40.4307 21.2623 40.1787 21.19 39.8753 21.19C39.516 21.19 39.2033 21.2787 38.9373 21.456C38.6713 21.6333 38.466 21.897 38.3213 22.247C38.1767 22.597 38.1043 23.0333 38.1043 23.556C38.1043 24.1207 38.2047 24.599 38.4053 24.991C38.6107 25.3783 38.9023 25.6723 39.2803 25.873C39.6583 26.0737 40.1157 26.174 40.6523 26.174C40.8717 26.174 41.084 26.1507 41.2893 26.104C41.4947 26.0527 41.693 25.9827 41.8843 25.894C42.0803 25.8053 42.267 25.7003 42.4443 25.579L42.5633 25.957C42.302 26.2137 42.0337 26.4307 41.7583 26.608C41.483 26.7853 41.1983 26.9183 40.9043 27.007C40.615 27.0957 40.3187 27.14 40.0153 27.14C39.4133 27.14 38.8813 27.007 38.4193 26.741C37.962 26.4703 37.6027 26.0923 37.3413 25.607C37.08 25.1217 36.9493 24.5547 36.9493 23.906C36.9493 23.2527 37.0707 22.6693 37.3133 22.156C37.5607 21.6427 37.9083 21.239 38.3563 20.945C38.809 20.6463 39.3433 20.497 39.9593 20.497ZM52.1355 22.66C52.1355 22.226 51.9978 21.876 51.7225 21.61C51.4472 21.3393 51.0178 21.204 50.4345 21.204C49.9818 21.204 49.5968 21.309 49.2795 21.519C48.9668 21.729 48.7288 22.0277 48.5655 22.415C48.4022 22.8023 48.3205 23.262 48.3205 23.794C48.3205 24.326 48.4068 24.7717 48.5795 25.131C48.7522 25.4903 48.9948 25.761 49.3075 25.943C49.6202 26.125 49.9935 26.216 50.4275 26.216C50.8102 26.216 51.1788 26.16 51.5335 26.048C51.8928 25.9313 52.2475 25.7563 52.5975 25.523V25.936C52.2008 26.1973 51.8648 26.4097 51.5895 26.573C51.3188 26.7317 51.0855 26.853 50.8895 26.937C50.6982 27.0163 50.5255 27.07 50.3715 27.098C50.2222 27.126 50.0682 27.14 49.9095 27.14C49.2795 27.14 48.7498 27.014 48.3205 26.762C47.8958 26.51 47.5738 26.1577 47.3545 25.705C47.1398 25.2477 47.0325 24.718 47.0325 24.116C47.0325 23.556 47.1235 23.0543 47.3055 22.611C47.4922 22.163 47.7465 21.7827 48.0685 21.47C48.3905 21.1527 48.7638 20.9123 49.1885 20.749C49.6178 20.581 50.0728 20.497 50.5535 20.497C50.8195 20.497 51.0692 20.518 51.3025 20.56C51.5405 20.5973 51.7808 20.6603 52.0235 20.749C52.2662 20.8377 52.5252 20.9567 52.8005 21.106L52.1355 21.484V18.25C52.0795 18.1987 51.9885 18.1427 51.8625 18.082C51.7412 18.0167 51.6058 17.9513 51.4565 17.886C51.3072 17.8207 51.1648 17.76 51.0295 17.704V17.438L53.1785 16.913H53.3675L53.2765 18.152V25.789C53.3185 25.8263 53.3815 25.8707 53.4655 25.922C53.5495 25.9687 53.6405 26.0177 53.7385 26.069C53.8412 26.1157 53.9415 26.16 54.0395 26.202C54.1375 26.2393 54.2238 26.2673 54.2985 26.286V26.524L52.5555 27.119H52.3735L52.1355 25.901V22.66ZM59.3816 20.532C59.6149 20.532 59.7899 20.5927 59.9066 20.714C60.0279 20.8307 60.0886 20.9917 60.0886 21.197C60.0886 21.435 60.0303 21.624 59.9136 21.764C59.7969 21.8993 59.6453 21.967 59.4586 21.967C59.3139 21.967 59.1693 21.953 59.0246 21.925C58.8846 21.8923 58.7399 21.862 58.5906 21.834C58.4459 21.806 58.2919 21.792 58.1286 21.792C58.0213 21.792 57.9046 21.8037 57.7786 21.827C57.6573 21.8503 57.5359 21.8877 57.4146 21.939C57.2933 21.9903 57.1766 22.0557 57.0646 22.135L56.8896 21.89C57.2069 21.6333 57.4893 21.4187 57.7366 21.246C57.9886 21.0733 58.2126 20.9357 58.4086 20.833C58.6046 20.7257 58.7819 20.6487 58.9406 20.602C59.1039 20.5553 59.2509 20.532 59.3816 20.532ZM57.2536 21.848V26.286L58.4156 26.601V27H55.0136V26.601L56.1126 26.286V22.058C56.0519 22.002 55.9656 21.9437 55.8536 21.883C55.7463 21.8177 55.6203 21.75 55.4756 21.68C55.3309 21.61 55.1723 21.5377 54.9996 21.463V21.253L56.8896 20.483H57.0786L57.2536 21.848ZM65.0097 22.926L64.9747 23.563C64.34 23.6797 63.8267 23.7987 63.4347 23.92C63.0427 24.0413 62.7394 24.1697 62.5247 24.305C62.3147 24.4357 62.17 24.578 62.0907 24.732C62.0114 24.886 61.9717 25.0587 61.9717 25.25C61.9717 25.5767 62.0697 25.8263 62.2657 25.999C62.4617 26.167 62.723 26.251 63.0497 26.251C63.3017 26.251 63.5304 26.195 63.7357 26.083C63.9457 25.971 64.1114 25.824 64.2327 25.642C64.3587 25.4553 64.4217 25.25 64.4217 25.026V22.506C64.4217 22.1047 64.326 21.7967 64.1347 21.582C63.948 21.3673 63.6214 21.26 63.1547 21.26C62.9634 21.26 62.7674 21.2787 62.5667 21.316C62.366 21.3533 62.1724 21.4093 61.9857 21.484L62.4057 21.099C62.3777 21.253 62.3474 21.3977 62.3147 21.533C62.2867 21.6683 62.254 21.7897 62.2167 21.897C62.1794 22.0043 62.135 22.0977 62.0837 22.177C62.0044 22.289 61.9064 22.366 61.7897 22.408C61.673 22.4453 61.547 22.464 61.4117 22.464C61.2204 22.464 61.071 22.4243 60.9637 22.345C60.8564 22.261 60.8027 22.1607 60.8027 22.044C60.8027 21.89 60.8774 21.7267 61.0267 21.554C61.1807 21.3813 61.386 21.218 61.6427 21.064C61.8994 20.91 62.1934 20.784 62.5247 20.686C62.8607 20.588 63.2107 20.539 63.5747 20.539C64.0554 20.539 64.4404 20.609 64.7297 20.749C65.0237 20.889 65.236 21.0943 65.3667 21.365C65.4974 21.631 65.5627 21.953 65.5627 22.331V25.572C65.5627 25.7307 65.586 25.8613 65.6327 25.964C65.684 26.0667 65.7564 26.1437 65.8497 26.195C65.943 26.2417 66.0597 26.265 66.1997 26.265C66.307 26.265 66.4214 26.2487 66.5427 26.216C66.6687 26.1833 66.7924 26.139 66.9137 26.083V26.503C66.7084 26.713 66.4914 26.8693 66.2627 26.972C66.034 27.07 65.8194 27.119 65.6187 27.119C65.3714 27.119 65.159 27.063 64.9817 26.951C64.809 26.8343 64.676 26.664 64.5827 26.44C64.4894 26.216 64.438 25.9407 64.4287 25.614L64.4777 25.565C64.417 25.8777 64.298 26.153 64.1207 26.391C63.9434 26.629 63.7217 26.8133 63.4557 26.944C63.1944 27.0747 62.9027 27.14 62.5807 27.14C62.03 27.14 61.589 26.9977 61.2577 26.713C60.9264 26.4237 60.7607 26.013 60.7607 25.481C60.7607 25.187 60.819 24.921 60.9357 24.683C61.0524 24.445 61.2624 24.2257 61.5657 24.025C61.8737 23.8243 62.3054 23.6353 62.8607 23.458C63.416 23.276 64.1324 23.0987 65.0097 22.926ZM68.801 21.428L68.514 21.596L67.268 21.33V21.036L68.612 20.581L68.906 20.637H71.832L71.748 21.428H68.801ZM69.655 26.286L70.894 26.601V27H67.415V26.601L68.514 26.286V20.301C68.514 19.7083 68.6073 19.1997 68.794 18.775C68.9853 18.3457 69.2466 17.9957 69.578 17.725C69.9093 17.4497 70.285 17.2467 70.705 17.116C71.1296 16.9807 71.5706 16.913 72.028 16.913C72.3313 16.913 72.588 16.9363 72.798 16.983C73.008 17.025 73.176 17.0833 73.302 17.158C73.4326 17.2327 73.526 17.3213 73.582 17.424C73.6426 17.522 73.673 17.6293 73.673 17.746C73.673 17.956 73.603 18.1263 73.463 18.257C73.323 18.3877 73.148 18.453 72.938 18.453C72.812 18.453 72.7 18.4133 72.602 18.334C72.504 18.2547 72.4013 18.166 72.294 18.068C72.1913 17.9653 72.0676 17.8743 71.923 17.795C71.7783 17.7157 71.5963 17.676 71.377 17.676C71.0503 17.676 70.7563 17.7413 70.495 17.872C70.2383 18.0027 70.033 18.215 69.879 18.509C69.7296 18.7983 69.655 19.188 69.655 19.678V26.286ZM74.4739 25.152C74.4739 25.502 74.5743 25.7563 74.7749 25.915C74.9756 26.0737 75.2719 26.153 75.6639 26.153C75.8413 26.153 76.0326 26.1367 76.2379 26.104C76.4479 26.0667 76.6743 26.013 76.9169 25.943V26.363C76.6136 26.559 76.3476 26.713 76.1189 26.825C75.8903 26.937 75.6849 27.014 75.5029 27.056C75.3209 27.098 75.1459 27.119 74.9779 27.119C74.6559 27.119 74.3713 27.063 74.1239 26.951C73.8766 26.8343 73.6806 26.6617 73.5359 26.433C73.3959 26.1997 73.3259 25.9127 73.3259 25.572V21.631L72.3739 21.155V20.917C72.5373 20.8377 72.6866 20.7607 72.8219 20.686C72.9573 20.6067 73.0809 20.5273 73.1929 20.448C73.3096 20.364 73.4193 20.2777 73.5219 20.189C73.6246 20.0957 73.7273 19.9977 73.8299 19.895C73.9326 19.7923 74.0353 19.6803 74.1379 19.559H74.4739V20.854V25.152ZM74.0259 21.428L74.0399 20.637H76.7349L76.6579 21.428H74.0259ZM80.2465 20.497C80.5358 20.497 80.8065 20.5227 81.0585 20.574C81.3152 20.6253 81.6045 20.7163 81.9265 20.847L82.0665 22.569H81.5485L80.8205 20.854L81.5135 21.505C81.2848 21.3743 81.0632 21.2763 80.8485 21.211C80.6338 21.1457 80.4192 21.113 80.2045 21.113C79.7752 21.113 79.4438 21.1923 79.2105 21.351C78.9772 21.505 78.8605 21.7267 78.8605 22.016C78.8605 22.2727 78.9352 22.4757 79.0845 22.625C79.2338 22.7697 79.4298 22.8887 79.6725 22.982C79.9198 23.0707 80.1858 23.1593 80.4705 23.248C80.6852 23.3133 80.8975 23.3903 81.1075 23.479C81.3222 23.5677 81.5158 23.682 81.6885 23.822C81.8658 23.9573 82.0082 24.1347 82.1155 24.354C82.2228 24.5733 82.2765 24.8463 82.2765 25.173C82.2765 25.593 82.1692 25.95 81.9545 26.244C81.7445 26.5333 81.4458 26.755 81.0585 26.909C80.6758 27.0583 80.2185 27.133 79.6865 27.133C79.3832 27.133 79.0845 27.1073 78.7905 27.056C78.5012 27.0093 78.2398 26.937 78.0065 26.839L77.6915 25.04H78.2445L79.1545 26.867L78.2935 26.258C78.4708 26.3327 78.6295 26.3887 78.7695 26.426C78.9142 26.4633 79.0518 26.489 79.1825 26.503C79.3132 26.5123 79.4438 26.517 79.5745 26.517C80.1112 26.517 80.5218 26.4283 80.8065 26.251C81.0958 26.069 81.2405 25.796 81.2405 25.432C81.2405 25.2033 81.1845 25.0213 81.0725 24.886C80.9605 24.746 80.8112 24.634 80.6245 24.55C80.4378 24.4613 80.2348 24.3867 80.0155 24.326C79.8008 24.2607 79.5885 24.1907 79.3785 24.116C79.1032 24.018 78.8512 23.899 78.6225 23.759C78.3938 23.619 78.2118 23.4323 78.0765 23.199C77.9412 22.961 77.8735 22.653 77.8735 22.275C77.8735 21.8923 77.9715 21.5703 78.1675 21.309C78.3682 21.043 78.6458 20.8423 79.0005 20.707C79.3598 20.567 79.7752 20.497 80.2465 20.497Z" fill="white"/>
</svg>
