<svg width="228" height="198" viewBox="0 0 228 198" fill="none" xmlns="http://www.w3.org/2000/svg">
<path d="M22.9881 83.3086C22.7969 83.7536 22.5739 84.134 22.3193 84.4497C22.0646 84.7654 21.7903 85.1663 21.4965 85.6523C21.3139 85.6418 21.0739 85.6067 20.7764 85.547C20.479 85.4872 20.1703 85.4141 19.8503 85.3276C19.5365 85.2268 19.2863 85.1363 19.0996 85.0561C19.0629 84.9043 19.0568 84.7996 19.0815 84.7422C19.174 84.5269 19.2664 84.4305 19.3587 84.4532C19.6705 84.5191 20.0193 84.4989 20.4051 84.3926C20.7909 84.2862 21.1552 84.1112 21.4981 83.8673C21.8266 83.6173 22.0648 83.32 22.2129 82.9755C22.4102 82.5161 22.4486 82.0904 22.3279 81.6984C22.199 81.2859 21.8977 80.9779 21.4239 80.7744C20.9215 80.5585 20.4219 80.5734 19.9252 80.8192C19.5516 81.0158 19.2683 81.2002 19.0753 81.3724C18.8741 81.524 18.6872 81.6818 18.5147 81.8458C18.3341 81.9892 18.0959 82.1675 17.8003 82.3806C16.6732 83.2228 15.6646 83.4527 14.7745 83.0703C14.2577 82.8483 13.8671 82.5104 13.6029 82.0568C13.3243 81.5969 13.1791 81.0839 13.1673 80.5176C13.1473 79.9308 13.2545 79.3647 13.4889 78.8191C13.5567 78.6612 13.6482 78.4879 13.7632 78.2993C13.8639 78.1045 13.9811 77.8912 14.1146 77.6595C14.2626 77.4339 14.3848 77.2484 14.4814 77.1028C14.5779 76.9572 14.655 76.8373 14.7125 76.7429C15.4407 76.8687 16.2099 77.0972 17.02 77.4282C17.0918 77.4591 17.0876 77.5678 17.0074 77.7544C16.921 77.9554 16.8245 78.0415 16.7179 78.0127C16.2851 77.9118 15.8152 77.9565 15.3083 78.1468C14.8075 78.3228 14.4646 78.6261 14.2796 79.0568C13.8355 80.0905 14.0369 80.7892 14.8839 81.1531C15.0993 81.2457 15.3023 81.3074 15.4931 81.3383C15.6757 81.3488 15.8789 81.2915 16.1026 81.1666C16.6384 80.8695 17.208 80.4936 17.8116 80.0387C18.4214 79.5694 18.9634 79.1985 19.4376 78.9261C20.156 78.5205 20.8239 78.4503 21.4412 78.7155C22.0011 78.9561 22.446 79.3258 22.7758 79.8246C23.0913 80.3173 23.2704 80.8704 23.3129 81.4839C23.3554 82.0974 23.2472 82.7056 22.9881 83.3086Z" fill="white"/>
<path d="M31.559 67.2173C31.492 67.3228 31.353 67.3086 31.142 67.1745L30.1329 66.5337C30.067 66.4919 30.0256 66.4841 30.0089 66.5105C30.3925 67.9758 30.3121 69.1371 29.7677 69.9944C29.374 70.6143 28.8818 70.9959 28.2911 71.139C27.6956 71.2606 27.0706 71.2247 26.4161 71.0311C25.7568 70.8161 25.1238 70.5158 24.5171 70.1305L22.0241 68.5474C21.5229 68.2291 21.1082 68.0953 20.7799 68.1459C20.5378 68.1773 20.3318 68.2686 20.1617 68.4197C20.0001 68.5577 19.8732 68.6992 19.7811 68.8443C19.6841 68.9678 19.6224 69.0212 19.5961 69.0044C19.2795 68.8034 19.1397 68.6591 19.1768 68.5716C19.5152 67.8055 19.7789 67.1863 19.9678 66.714C20.1519 66.2201 20.2583 65.936 20.287 65.8616L20.4393 65.4031C20.4597 65.342 20.5334 65.3425 20.6605 65.4047C20.7875 65.4669 20.8733 65.5214 20.9177 65.5681C21.5005 66.0493 21.9634 66.3988 22.3064 66.6165L24.9773 68.3128C25.993 68.9577 26.8411 69.2835 27.5218 69.2901C28.1893 69.2882 28.7409 68.9444 29.1764 68.2585C29.344 67.9947 29.4348 67.6914 29.4488 67.3487C29.4712 66.9927 29.4338 66.6728 29.3365 66.3889C29.2343 66.0834 29.1107 65.8846 28.9656 65.7924L25.2658 63.4429C24.7646 63.1246 24.3498 62.9907 24.0215 63.0414C23.7795 63.0727 23.5734 63.164 23.4034 63.3152C23.2417 63.4531 23.1083 63.5905 23.0029 63.7272C22.906 63.8507 22.8509 63.9083 22.8377 63.8999C22.5211 63.6989 22.3814 63.5546 22.4185 63.4671C22.7569 62.701 23.002 62.1255 23.1539 61.7407C23.3141 61.3427 23.4348 61.0214 23.5161 60.7769L23.681 60.2986C23.7013 60.2374 23.775 60.238 23.9021 60.3002C24.0292 60.3624 24.1149 60.4168 24.1593 60.4635C24.7422 60.9447 25.1919 61.2858 25.5085 61.4869L29.4655 63.9998C30.059 64.3767 30.5896 64.6489 31.0571 64.8162C31.2141 64.8604 31.3669 64.8093 31.5153 64.663C31.6506 64.5083 31.8026 64.3272 31.9714 64.1197L32.1545 63.875C32.1928 63.8438 32.2779 63.8701 32.4098 63.9539C32.4494 63.979 32.5028 64.0407 32.57 64.1389C32.6324 64.2155 32.651 64.2736 32.6259 64.3132C32.401 64.7257 32.1971 65.207 32.0143 65.7572C31.8182 66.2991 31.691 66.718 31.6326 67.0141L31.559 67.2173Z" fill="white"/>
<path d="M40.9507 62.8318C40.8624 62.8358 40.7491 62.7745 40.6108 62.6479C40.4609 62.5108 40.407 62.4192 40.4492 62.3731C40.5335 62.2809 40.6322 62.1382 40.7453 61.9452C40.8583 61.7521 40.9493 61.56 41.0182 61.3689C41.0871 61.1779 41.1037 61.0555 41.0681 61.0018C40.9489 60.808 40.7908 60.6105 40.5938 60.4091C40.4073 60.1963 40.1988 59.9844 39.9682 59.7735L32.8252 53.2409C32.3871 52.8402 32.002 52.6362 31.6699 52.6289C31.426 52.6176 31.2073 52.6716 31.0135 52.7909C30.8303 52.8986 30.6807 53.0159 30.5647 53.1427C30.4477 53.2475 30.3777 53.2893 30.3547 53.2682C30.0779 53.0151 29.9654 52.8487 30.0172 52.769C30.9505 51.3781 31.5234 50.4622 31.736 50.0214L31.8121 49.8687C31.8648 49.8111 31.9493 49.846 32.0656 49.9735C32.1704 50.0905 32.2578 50.1917 32.328 50.277L32.416 50.3892C32.4407 50.2001 32.5018 49.9596 32.5994 49.6677C32.697 49.3758 32.8166 49.0829 32.9583 48.789C33.1106 48.4836 33.2658 48.2444 33.424 48.0715C34.141 47.2874 34.9156 46.7994 35.7475 46.6074C36.5785 46.3934 37.3809 46.4074 38.1548 46.6493C38.9278 46.8692 39.5909 47.2322 40.1444 47.7384C40.6978 48.2445 41.1333 48.8333 41.4508 49.5049C41.7568 50.1658 41.9424 50.8543 42.0075 51.5703C42.0727 52.2862 42.0096 52.9803 41.8184 53.6524C41.6263 54.3024 41.3087 54.8696 40.8658 55.3538C40.5389 55.7113 40.2623 55.9559 40.0359 56.0876C39.8211 56.2299 39.5453 56.3694 39.2086 56.5061C39.2125 56.5944 39.2664 56.686 39.3701 56.7809L40.8575 58.1412C41.1919 58.447 41.4965 58.7044 41.7712 58.9133C42.046 59.1222 42.2967 59.288 42.5233 59.4106C42.5905 59.4297 42.7162 59.3965 42.9004 59.3108C43.0846 59.2252 43.2678 59.1175 43.4501 58.9877C43.6323 58.8579 43.755 58.7584 43.8183 58.6892C43.8499 58.6546 43.9402 58.6948 44.0891 58.8098C44.2495 58.9354 44.3423 59.0308 44.3673 59.096L42.5884 60.8675L40.9507 62.8318ZM40.2027 54.6203C40.6245 54.1591 40.8447 53.6405 40.8632 53.0646C40.8807 52.4666 40.749 51.8698 40.4681 51.274C40.1756 50.6677 39.7757 50.1326 39.2684 49.6686C38.6227 49.0781 37.9585 48.693 37.2758 48.5134C36.5922 48.3116 35.9443 48.2908 35.3321 48.4508C34.7199 48.6108 34.1976 48.9272 33.7653 49.4C33.4384 49.7574 33.2675 50.1411 33.2526 50.5509C33.2262 50.9503 33.3917 51.3134 33.7492 51.6403L37.6406 55.1992C37.9519 55.4839 38.37 55.5592 38.8949 55.4252C39.4082 55.2806 39.8442 55.0123 40.2027 54.6203Z" fill="white"/>
<path d="M52.8559 44.182C52.1797 44.7122 51.4189 45.0209 50.5737 45.1078C49.7285 45.1947 48.9024 45.0781 48.0953 44.7579C47.2909 44.4157 46.5995 43.8758 46.021 43.138C45.3461 42.2773 44.9226 41.4081 44.7505 40.5304C44.5785 39.6526 44.639 38.8308 44.932 38.065C45.2153 37.2868 45.7012 36.6278 46.3898 36.0878C46.9554 35.6443 47.5401 35.3645 48.144 35.2484C48.7383 35.1199 49.2824 35.1301 49.7763 35.2789C50.2676 35.4496 50.7022 35.6747 51.0802 35.9542C51.4608 36.2117 51.7861 36.5126 52.0561 36.8568C52.2489 37.1028 52.3325 37.2854 52.307 37.4047C52.2718 37.5117 52.1497 37.6472 51.9406 37.8111L47.2929 41.4556C47.1945 41.5327 47.1695 41.602 47.2177 41.6635C47.6226 42.1799 48.1176 42.596 48.7027 42.9116C49.2781 43.2149 49.8892 43.3612 50.5359 43.3504C51.1827 43.3396 51.8012 43.1028 52.3914 42.64C52.9078 42.2351 53.2803 41.8239 53.5089 41.4063C53.7401 40.9669 53.8875 40.623 53.9509 40.3747L54.0077 40.1813C54.0815 40.1234 54.181 40.1744 54.3064 40.3343C54.3738 40.4203 54.4237 40.5599 54.456 40.753C54.4801 41.2901 54.3632 41.8881 54.1054 42.5469C53.838 43.1934 53.4215 43.7385 52.8559 44.182ZM46.6855 40.681L50.2819 37.8608C50.3434 37.8126 50.3259 37.727 50.2295 37.6041C50.0174 37.3336 49.7122 37.0963 49.314 36.8924C48.9184 36.6664 48.4828 36.5414 48.0072 36.5172C47.5316 36.4931 47.0786 36.6497 46.6483 36.9872C46.2548 37.2957 46.0227 37.6961 45.952 38.1884C45.8717 38.6683 45.8928 39.1383 46.0152 39.5983C46.128 40.046 46.2808 40.3927 46.4736 40.6387C46.5411 40.7247 46.6117 40.7388 46.6855 40.681Z" fill="white"/>
<path d="M61.8527 37.7553C61.7676 37.7317 61.675 37.6315 61.5749 37.4547C61.4826 37.2915 61.4636 37.1946 61.518 37.1638C61.6268 37.1022 61.7648 36.9972 61.9321 36.8486C62.0994 36.7001 62.2454 36.5456 62.3701 36.3853C62.4948 36.225 62.5485 36.1137 62.5313 36.0516C62.478 35.8305 62.3889 35.5937 62.2639 35.3412C62.1526 35.081 62.02 34.815 61.8661 34.543L59.6843 30.6879C59.3918 30.1712 59.0889 29.8579 58.7754 29.748C58.547 29.6618 58.3223 29.6454 58.1011 29.6987C57.8936 29.7444 57.715 29.8095 57.5654 29.8942C57.4217 29.9576 57.3422 29.9756 57.3268 29.9484C57.1421 29.6221 57.0867 29.429 57.1606 29.3692C58.512 28.2992 59.284 27.6648 59.4767 27.466L59.7657 27.1677C59.8124 27.1234 59.8772 27.1585 59.9601 27.2732C60.0429 27.3879 60.093 27.4763 60.1102 27.5384L60.565 28.6275C60.6019 28.1218 60.7427 27.5933 60.9872 27.042C61.2377 26.4694 61.5737 26.0638 61.9952 25.8252C62.7839 25.3788 63.4259 25.2759 63.921 25.5163C64.1904 25.9922 64.3118 26.3813 64.2854 26.6836C64.2589 26.9858 64.1369 27.1985 63.9193 27.3216C63.6746 27.4601 63.3848 27.4715 63.05 27.3558C62.7152 27.2401 62.371 27.2822 62.0174 27.4823C61.7455 27.6362 61.541 27.8777 61.4039 28.2066C61.2592 28.5219 61.1929 28.8646 61.2049 29.2348C61.2228 29.5838 61.3165 29.9078 61.4858 30.207L63.2173 33.2666C63.4405 33.6609 63.6504 34 63.8469 34.2838C64.0434 34.5676 64.2304 34.8028 64.4079 34.9896C64.4659 35.0286 64.5957 35.0359 64.7974 35.0116C64.999 34.9872 65.2066 34.9416 65.4201 34.8746C65.6471 34.8 65.8014 34.7396 65.883 34.6934C65.9238 34.6703 65.9972 34.7365 66.1032 34.892C66.2091 35.0475 66.2677 35.1669 66.279 35.2503L64.0184 36.395L61.8527 37.7553Z" fill="white"/>
<path d="M87.4254 26.9015C86.958 27.0284 86.5214 27.0902 86.1158 27.0869C85.7101 27.0837 85.2257 27.118 84.6623 27.1899C84.557 27.0404 84.4353 26.8306 84.2972 26.5605C84.1592 26.2903 84.0245 26.003 83.8934 25.6986C83.7773 25.3902 83.6926 25.1379 83.6394 24.9419C83.7355 24.8186 83.8137 24.7489 83.874 24.7325C84.1002 24.6711 84.2331 24.6836 84.2727 24.77C84.4149 25.0552 84.6476 25.3159 84.9707 25.552C85.2938 25.7881 85.6574 25.9647 86.0615 26.0816C86.4616 26.1836 86.8425 26.1854 87.2044 26.0872C87.687 25.9562 88.0443 25.7217 88.2763 25.3835C88.5193 25.0261 88.5733 24.5986 88.4382 24.101C88.295 23.5732 87.9728 23.1911 87.4715 22.9548C87.0852 22.7844 86.7647 22.6771 86.5099 22.6329C86.266 22.5696 86.0263 22.5213 85.7906 22.4881C85.5659 22.4358 85.2782 22.36 84.9275 22.2609C83.5672 21.9015 82.7601 21.2544 82.5064 20.3194C82.3591 19.7766 82.381 19.2607 82.572 18.7717C82.7591 18.2676 83.0707 17.8349 83.5069 17.4737C83.9541 17.0933 84.4643 16.8253 85.0373 16.6698C85.2032 16.6248 85.3958 16.5887 85.6151 16.5616C85.8303 16.5194 86.0701 16.4786 86.3347 16.4391C86.6033 16.4148 86.8246 16.3952 86.9987 16.3804C87.1728 16.3655 87.3146 16.3513 87.4243 16.3377C87.7784 16.9864 88.0776 17.7309 88.3218 18.5712C88.3423 18.6466 88.2545 18.7109 88.0585 18.7641C87.8474 18.8214 87.7199 18.7993 87.6762 18.6979C87.4862 18.2961 87.1591 17.9558 86.6949 17.6771C86.2458 17.3942 85.795 17.3142 85.3426 17.4369C84.2569 17.7316 83.8348 18.3237 84.0762 19.2134C84.1376 19.4396 84.2155 19.6371 84.3098 19.8057C84.4151 19.9553 84.5863 20.0788 84.8232 20.1764C85.3889 20.4114 86.0375 20.624 86.7691 20.814C87.5157 21 88.1431 21.194 88.6513 21.3961C89.4156 21.7067 89.8857 22.1863 90.0617 22.8347C90.2213 23.4228 90.2082 24.0011 90.0225 24.5696C89.8327 25.123 89.5108 25.607 89.0566 26.0217C88.6025 26.4363 88.0588 26.7296 87.4254 26.9015Z" fill="white"/>
<path d="M102.384 23.8826C101.531 23.9812 100.721 23.8467 99.9549 23.479C99.1889 23.1114 98.5455 22.5801 98.0249 21.8853C97.5179 21.1731 97.2107 20.3514 97.1031 19.4201C96.9776 18.3336 97.0709 17.3712 97.383 16.533C97.6952 15.6947 98.1763 15.0257 98.8263 14.526C99.4746 14.0107 100.233 13.7028 101.103 13.6024C101.817 13.5199 102.461 13.587 103.037 13.8037C103.611 14.0048 104.069 14.2979 104.412 14.6829C104.742 15.0852 104.995 15.5043 105.171 15.9401C105.361 16.3585 105.481 16.7851 105.531 17.2197C105.567 17.5301 105.543 17.7295 105.459 17.8179C105.373 17.8907 105.198 17.9424 104.934 17.9729L99.0668 18.6506C98.9427 18.665 98.8851 18.7109 98.894 18.7885C98.9693 19.4405 99.1739 20.0538 99.5077 20.6287C99.8397 21.1881 100.284 21.6322 100.841 21.9611C101.398 22.2899 102.049 22.4113 102.794 22.3253C103.446 22.25 103.979 22.0941 104.392 21.8576C104.819 21.6039 105.124 21.3877 105.308 21.2092L105.457 21.0739C105.551 21.0632 105.609 21.1587 105.632 21.3605C105.645 21.4691 105.614 21.6142 105.541 21.7957C105.281 22.2662 104.868 22.7149 104.304 23.1418C103.738 23.5532 103.098 23.8001 102.384 23.8826ZM98.9539 17.6727L103.494 17.1483C103.572 17.1393 103.601 17.0573 103.584 16.902C103.544 16.5606 103.408 16.1988 103.175 15.8167C102.956 15.4174 102.65 15.0831 102.257 14.8139C101.864 14.5447 101.396 14.4415 100.853 14.5042C100.356 14.5616 99.949 14.7816 99.6315 15.1644C99.3121 15.5316 99.0844 15.9432 98.9484 16.3993C98.8105 16.8399 98.7595 17.2155 98.7954 17.5259C98.8079 17.6345 98.8608 17.6835 98.9539 17.6727Z" fill="white"/>
<path d="M118.135 23.3461C117.277 23.3118 116.497 23.0538 115.797 22.5723C115.097 22.0908 114.544 21.4666 114.136 20.6997C113.745 19.9178 113.569 19.0585 113.606 18.1218C113.645 17.1538 113.852 16.2786 114.227 15.4961C114.619 14.6986 115.16 14.0713 115.851 13.6142C116.557 13.1577 117.394 12.9488 118.362 12.9875C120.08 13.0563 121.25 13.5019 121.874 14.3243C121.832 15.3704 121.522 15.8818 120.945 15.8587C120.679 15.8481 120.479 15.7853 120.342 15.6704C120.207 15.5399 120.036 15.3141 119.83 14.9931C119.375 14.2556 118.812 13.8734 118.14 13.8465C117.5 13.8209 116.902 14.1019 116.347 14.6896C115.808 15.2778 115.514 16.173 115.466 17.3752C115.416 18.6242 115.679 19.6746 116.254 20.5265C116.846 21.3789 117.688 21.827 118.781 21.8707C119.437 21.897 119.987 21.8252 120.431 21.6553C120.892 21.4705 121.227 21.3041 121.436 21.1561L121.605 21.0455C121.699 21.0493 121.742 21.1526 121.733 21.3556C121.729 21.4649 121.677 21.6035 121.576 21.7715C121.246 22.1962 120.77 22.5759 120.147 22.9106C119.524 23.2297 118.854 23.3749 118.135 23.3461Z" fill="white"/>
<path d="M128.165 24.1877C128.115 24.1148 128.108 23.9785 128.146 23.7788C128.18 23.5945 128.228 23.5081 128.29 23.5196C128.413 23.5426 128.586 23.5512 128.81 23.5454C129.033 23.5395 129.244 23.5155 129.443 23.4732C129.642 23.4309 129.754 23.3804 129.781 23.3219C129.883 23.1183 129.967 22.8798 130.034 22.6062C130.117 22.3355 130.187 22.0466 130.244 21.7394L131.059 17.3853C131.168 16.8017 131.138 16.3669 130.969 16.0809C130.85 15.8679 130.689 15.7105 130.485 15.6089C130.297 15.5101 130.119 15.4449 129.95 15.4132C129.799 15.3691 129.727 15.3317 129.732 15.301C129.801 14.9324 129.883 14.7491 129.978 14.7509C131.701 14.8031 132.701 14.8153 132.976 14.7873L133.389 14.7454C133.453 14.7416 133.48 14.8102 133.47 14.9513C133.459 15.0924 133.441 15.1922 133.414 15.2508L133.06 16.3768C133.414 16.0139 133.862 15.7003 134.404 15.4362C134.965 15.1595 135.483 15.0658 135.959 15.1549C136.85 15.3216 137.407 15.6564 137.631 16.1592C137.531 16.6968 137.373 17.0726 137.158 17.2867C136.943 17.5009 136.713 17.5849 136.467 17.5389C136.19 17.4872 135.961 17.3092 135.78 17.005C135.598 16.7008 135.308 16.5113 134.909 16.4366C134.602 16.3791 134.29 16.432 133.973 16.5953C133.659 16.7432 133.388 16.9627 133.158 17.2536C132.947 17.532 132.81 17.8402 132.747 18.178L132.1 21.6337C132.017 22.0791 131.959 22.4736 131.926 22.8172C131.894 23.1608 131.885 23.4613 131.901 23.7185C131.92 23.7857 132.015 23.8749 132.184 23.9862C132.354 24.0975 132.543 24.1963 132.749 24.2826C132.971 24.3718 133.128 24.425 133.22 24.4422C133.266 24.4509 133.279 24.5488 133.26 24.7359C133.241 24.9231 133.209 25.0522 133.164 25.1233L130.697 24.5425L128.165 24.1877Z" fill="white"/>
<path d="M146.092 28.7554C145.281 28.4729 144.61 27.9995 144.08 27.3353C143.55 26.671 143.202 25.9128 143.035 25.0607C142.889 24.1989 142.969 23.3254 143.278 22.44C143.637 21.407 144.14 20.581 144.786 19.962C145.431 19.343 146.155 18.9499 146.958 18.7826C147.766 18.6006 148.583 18.6534 149.409 18.9411C150.088 19.1774 150.64 19.5183 151.064 19.9637C151.493 20.3943 151.778 20.8577 151.92 21.3537C152.042 21.8594 152.087 22.3467 152.056 22.8157C152.045 23.2751 151.968 23.7114 151.824 24.1246C151.721 24.4197 151.613 24.5888 151.498 24.6317C151.389 24.6599 151.209 24.6304 150.959 24.5431L145.381 22.6013C145.263 22.5602 145.191 22.5765 145.165 22.6503C144.949 23.2701 144.867 23.9114 144.917 24.5742C144.973 25.2223 145.18 25.8155 145.538 26.3539C145.897 26.8924 146.43 27.2849 147.139 27.5315C147.758 27.7472 148.306 27.8385 148.781 27.8052C149.275 27.7624 149.644 27.7005 149.887 27.6198L150.081 27.563C150.169 27.5939 150.18 27.7052 150.114 27.897C150.078 28.0003 149.987 28.1177 149.842 28.2492C149.403 28.5596 148.837 28.7844 148.143 28.9234C147.455 29.0477 146.771 28.9917 146.092 28.7554ZM145.704 21.6716L150.02 23.1742C150.094 23.1999 150.157 23.1389 150.208 22.9914C150.321 22.6667 150.356 22.2818 150.312 21.8364C150.289 21.3815 150.159 20.9474 149.922 20.5341C149.685 20.1208 149.309 19.8243 148.792 19.6445C148.32 19.4801 147.858 19.5012 147.405 19.7077C146.958 19.8994 146.574 20.171 146.253 20.5226C145.937 20.8594 145.728 21.1753 145.625 21.4704C145.589 21.5737 145.616 21.6408 145.704 21.6716Z" fill="white"/>
<path d="M159.642 34.6868C158.949 34.3261 158.486 33.7943 158.253 33.0917C158.034 32.3962 158.144 31.6258 158.584 30.7803L161.333 25.5L160.128 24.8722C160.058 24.8361 160.1 24.6726 160.251 24.3815C160.294 24.2984 160.327 24.2535 160.348 24.2468C160.864 24.2693 161.492 24.1293 162.231 23.8269C162.744 23.6186 163.15 23.4156 163.446 23.2178C163.757 23.0272 163.927 22.9042 163.956 22.8487C164.371 23.0652 164.561 23.2081 164.525 23.2773L163.454 25.3355L165.085 26.2113L166.249 26.8173C166.36 26.8751 166.383 26.9663 166.318 27.091C166.181 27.3544 165.975 27.5816 165.699 27.7728L162.934 26.3333L160.283 31.4266C159.994 31.981 159.902 32.4966 160.006 32.9736C160.124 33.4577 160.411 33.8188 160.869 34.0569C161.298 34.2806 161.796 34.3726 162.363 34.333C162.419 34.3269 162.449 34.4217 162.453 34.6175C162.464 34.7994 162.459 34.8936 162.438 34.9003C162.114 35.0138 161.68 35.0696 161.135 35.0677C160.597 35.0519 160.1 34.9249 159.642 34.6868Z" fill="white"/>
<path d="M175.946 45.3406C175.939 45.2525 176.002 45.1314 176.134 44.9773C176.257 44.8351 176.341 44.7844 176.389 44.8252C176.484 44.9066 176.629 45.0009 176.826 45.1079C177.022 45.215 177.217 45.3 177.41 45.363C177.603 45.4259 177.726 45.4388 177.779 45.4016C177.969 45.2764 178.161 45.1123 178.356 44.9092C178.563 44.7163 178.769 44.5013 178.972 44.2643L185.587 36.5682C185.934 36.1653 186.224 35.7555 186.459 35.3389C186.574 35.1086 186.353 34.7541 185.797 34.2754L185.637 34.1379C185.565 34.0768 185.586 33.9811 185.698 33.8507C185.861 33.6612 185.978 33.5969 186.049 33.658C186.831 34.1862 187.44 34.5446 187.875 34.7333C188.311 34.922 188.629 35.0309 188.831 35.06L189.1 35.1062L189.136 35.1367C189.183 35.1775 189.2 35.2537 189.186 35.3656C189.183 35.4656 189.161 35.5503 189.122 35.6197C188.656 35.8987 188.148 36.3581 187.598 36.998L180.631 45.103C180.336 45.4466 180.088 45.759 179.888 46.04C179.687 46.3211 179.529 46.5768 179.414 46.8071C179.397 46.8749 179.434 46.9995 179.525 47.181C179.616 47.3624 179.73 47.5422 179.865 47.7204C180 47.8985 180.104 48.0181 180.175 48.0792C180.21 48.1098 180.173 48.2013 180.062 48.3536C179.952 48.506 179.86 48.6016 179.785 48.6405L177.959 46.917L175.946 45.3406Z" fill="white"/>
<path d="M184.239 52.9257C184.242 52.8373 184.319 52.7243 184.468 52.5864C184.606 52.4592 184.696 52.4185 184.738 52.4645C184.823 52.5563 184.957 52.6666 185.14 52.7955C185.322 52.9244 185.506 53.0312 185.691 53.1159C185.875 53.2006 185.996 53.2275 186.052 53.1966C186.256 53.094 186.466 52.9531 186.683 52.7737C186.911 52.6058 187.139 52.4159 187.369 52.2038L190.623 49.198C191.059 48.7951 191.295 48.4285 191.33 48.0982C191.373 47.8456 191.337 47.623 191.223 47.4306C191.121 47.2275 191.017 47.0685 190.911 46.9538C190.816 46.8284 190.78 46.7551 190.803 46.7339C191.079 46.4794 191.254 46.3813 191.329 46.4396C191.983 46.9631 192.487 47.359 192.841 47.6273C193.207 47.8851 193.535 48.1137 193.826 48.3132L194.068 48.4721C194.122 48.5074 194.103 48.5785 194.01 48.6854C193.917 48.7923 193.843 48.8612 193.786 48.8921C193.535 49.0812 193.296 49.2597 193.068 49.4276C192.851 49.607 192.651 49.7815 192.467 49.9511L188.921 53.2273C188.588 53.5347 188.306 53.8166 188.074 54.0728C187.843 54.329 187.657 54.5649 187.516 54.7804C187.491 54.8458 187.513 54.9738 187.583 55.1646C187.653 55.3553 187.745 55.5469 187.859 55.7394C187.973 55.9319 188.062 56.0626 188.125 56.1315C188.157 56.1659 188.11 56.2525 187.983 56.3912C187.855 56.5299 187.753 56.6143 187.674 56.6443L186.058 54.7227L184.239 52.9257ZM195.213 45.9466C195.001 45.7171 194.902 45.4367 194.915 45.1055C194.928 44.7743 195.049 44.5027 195.279 44.2907C195.52 44.068 195.8 43.9685 196.12 43.9923C196.451 44.0054 196.723 44.1267 196.935 44.3563C197.157 44.5973 197.257 44.8777 197.233 45.1974C197.231 45.518 197.11 45.7896 196.869 46.0122C196.64 46.2243 196.359 46.3238 196.028 46.3106C195.707 46.309 195.436 46.1877 195.213 45.9466Z" fill="white"/>
<path d="M192.015 61.7149C192.032 61.6281 192.124 61.5277 192.293 61.4137C192.448 61.3085 192.543 61.2818 192.578 61.3335C192.648 61.437 192.764 61.5661 192.925 61.7208C193.087 61.8756 193.253 62.0086 193.423 62.12C193.593 62.2313 193.708 62.2759 193.768 62.2538C193.984 62.1828 194.213 62.0748 194.455 61.9299C194.705 61.798 194.96 61.6443 195.218 61.4689L198.885 58.9831C199.376 58.6499 199.664 58.3227 199.748 58.0013C199.816 57.7668 199.814 57.5414 199.743 57.3253C199.681 57.1221 199.601 56.9494 199.505 56.8071C199.43 56.669 199.406 56.5912 199.431 56.5737C199.742 56.3632 199.93 56.2924 199.995 56.3612C200.564 56.9765 201.031 57.4713 201.398 57.8454C201.778 58.2108 202.016 58.4365 202.112 58.5224L202.4 58.7802C202.448 58.8232 202.418 58.8906 202.31 58.9824C202.203 59.0743 202.119 59.1313 202.058 59.1534C201.86 59.2503 201.691 59.3361 201.553 59.4109C201.415 59.4856 201.307 59.5493 201.23 59.6019C201.178 59.637 201.161 59.6675 201.178 59.6933C201.187 59.7063 201.213 59.7169 201.257 59.7252C201.769 59.8122 202.332 60.0159 202.945 60.3361C203.58 60.6605 204.056 61.0555 204.371 61.5211C204.985 62.4264 205.092 63.2793 204.69 64.0799C204.289 64.8804 203.364 65.7717 201.916 66.7537L200.151 67.9506C199.776 68.2049 199.455 68.4414 199.188 68.6602C198.921 68.8789 198.701 69.0843 198.529 69.2763C198.495 69.3373 198.498 69.4673 198.539 69.6663C198.579 69.8653 198.642 70.0685 198.726 70.2759C198.81 70.4833 198.878 70.6257 198.931 70.7033C198.957 70.7421 198.897 70.8206 198.75 70.9388C198.604 71.0569 198.49 71.125 198.407 71.143L197.097 69.0015L195.619 67.0303C195.636 66.9435 195.728 66.8431 195.896 66.7291C196.051 66.6239 196.147 66.5972 196.182 66.6489C196.252 66.7524 196.363 66.875 196.516 67.0168C196.669 67.1586 196.826 67.2788 196.987 67.3772C197.148 67.4756 197.259 67.5137 197.319 67.4916C197.535 67.4206 197.764 67.3126 198.006 67.1677C198.256 67.0358 198.511 66.8821 198.769 66.7067L200.709 65.3915C201.912 64.576 202.628 63.8641 202.857 63.2556C203.087 62.6471 202.965 61.9936 202.491 61.2952C202.307 61.0236 202.045 60.8047 201.706 60.6383C201.379 60.4632 201.058 60.3508 200.741 60.3013C200.424 60.2518 200.182 60.284 200.014 60.398L196.6 62.7128C196.224 62.9671 195.903 63.2036 195.636 63.4224C195.37 63.6411 195.15 63.8465 194.978 64.0385C194.944 64.0995 194.947 64.2295 194.988 64.4285C195.028 64.6275 195.091 64.8307 195.175 65.0381C195.258 65.2455 195.327 65.3879 195.379 65.4655C195.406 65.5043 195.346 65.5828 195.199 65.701C195.053 65.8191 194.938 65.8872 194.856 65.9052L193.546 63.7637L192.015 61.7149Z" fill="white"/>
<path d="M201.34 76.4223C201.371 76.3397 201.48 76.2569 201.665 76.174C201.836 76.0974 201.935 76.0876 201.96 76.1446C202.011 76.2587 202.103 76.406 202.235 76.5866C202.367 76.7671 202.507 76.927 202.655 77.0662C202.803 77.2054 202.909 77.2694 202.972 77.2581C203.197 77.2258 203.442 77.1594 203.705 77.0587C203.974 76.9724 204.251 76.8654 204.537 76.7377L213.8 72.5922C214.285 72.3752 214.722 72.1282 215.112 71.8511C215.314 71.6919 215.266 71.2772 214.966 70.6069L214.879 70.4144C214.841 70.3288 214.9 70.2509 215.057 70.1807C215.285 70.0786 215.419 70.0703 215.457 70.1559C215.854 70.8513 216.242 71.4135 216.623 71.8425C217.017 72.265 217.306 72.5467 217.489 72.6874L217.601 72.7657L217.62 72.8084C217.645 72.8655 217.628 72.9417 217.568 73.037C217.522 73.126 217.467 73.1936 217.402 73.2397C216.861 73.2935 216.206 73.4927 215.436 73.8373L207.948 77.1882C208.133 77.4479 208.277 77.5975 208.38 77.6369L209.655 78.2476L210.641 78.7305C210.949 78.8836 211.227 79.0074 211.475 79.102C211.729 79.2108 211.927 79.2333 212.07 79.1694C212.255 79.0865 212.285 78.8849 212.159 78.5648C212.046 78.2731 212.001 78.0964 212.024 78.0344C212.258 77.7927 212.426 77.7264 212.526 77.8356L213.282 79.5257C213.506 80.0248 213.702 80.4249 213.871 80.7259C214.04 81.0269 214.23 81.3953 214.442 81.831C214.466 81.923 214.375 82.0065 214.169 82.0816C213.978 82.1503 213.866 82.149 213.834 82.0777C213.783 81.9636 213.688 81.8092 213.549 81.6144C213.417 81.4339 213.281 81.2637 213.141 81.1038C213.015 80.9375 212.905 80.8244 212.809 80.7643C212.654 80.6458 212.347 80.4578 211.889 80.2003C211.438 79.9572 210.932 79.7046 210.369 79.4427C209.821 79.1744 209.299 78.9457 208.804 78.7566C208.126 80.3782 207.568 81.6551 207.129 82.5875C206.697 83.5342 206.437 84.1385 206.348 84.4005C206.257 84.7323 206.238 85.1092 206.289 85.531C206.356 85.9465 206.424 86.2327 206.494 86.3896C206.519 86.4466 206.418 86.5262 206.19 86.6284C206.047 86.6922 205.966 86.7202 205.945 86.7123L205.008 84.3326L203.906 82.1556C203.937 82.073 204.039 81.9934 204.21 81.9168C204.367 81.8466 204.458 81.84 204.483 81.8971C204.547 82.0397 204.649 82.191 204.789 82.3508C204.929 82.5107 205.035 82.5747 205.106 82.5428C205.135 82.53 205.153 82.5133 205.161 82.4927L207.143 77.8566L206.964 77.6286L205.68 78.2031C205.21 78.4137 204.817 78.6067 204.502 78.782C204.207 78.9652 203.991 79.1133 203.853 79.2263C203.809 79.2803 203.789 79.4089 203.795 79.6119C203.8 79.815 203.826 80.0259 203.872 80.2448C203.919 80.4636 203.961 80.6158 204 80.7013C204.019 80.7441 203.946 80.8109 203.781 80.9018C203.616 80.9926 203.492 81.0398 203.408 81.0432L202.49 78.7062L201.34 76.4223Z" fill="white"/>
<circle cx="113.5" cy="118.5" r="79" stroke="white"/>
</svg>
